M48
;DRILL file {Pcbnew (2013-mar-13)-testing} date Sun 24 Mar 2013 03:35:48 PM EDT
;FORMAT={-:-/ absolute / inch / decimal}
FMAT,2
INCH,TZ
T1C0.025
T2C0.032
T3C0.040
T4C0.062
T5C0.128
%
G90
G05
M72
T1
X7.512Y-2.896
X7.584Y-2.954
X7.65Y-2.962
X7.656Y-2.6
X7.706Y-2.754
X7.756Y-2.72
X7.77Y-2.822
X7.811Y-2.781
X7.822Y-2.73
X7.858Y-3.058
X7.872Y-2.602
X7.891Y-2.971
X7.986Y-2.946
X8.01Y-3.812
X8.021Y-2.611
X8.061Y-2.956
X8.102Y-3.58
X8.111Y-2.961
X8.126Y-2.816
X8.1535Y-2.856
X8.158Y-2.41
X8.158Y-3.036
X8.1585Y-2.5635
X8.196Y-3.0085
X8.241Y-2.7085
X8.348Y-3.972
X8.396Y-3.774
X8.436Y-3.568
X8.436Y-3.63
X8.448Y-3.466
X8.63Y-3.758
X8.634Y-3.62
X8.634Y-3.872
X8.642Y-3.956
X8.692Y-4.222
X8.704Y-3.686
X8.71Y-3.746
X8.748Y-3.692
X8.772Y-3.728
X8.776Y-3.964
X8.806Y-3.878
X8.818Y-3.726
X8.876Y-3.95
X8.91Y-3.91
X8.91Y-3.994
X8.914Y-2.688
X8.934Y-3.726
X8.972Y-4.
X8.976Y-3.446
X8.978Y-3.85
X8.988Y-3.804
X8.992Y-3.64
X9.002Y-2.826
X9.018Y-3.47
X9.048Y-3.554
X9.052Y-3.502
X9.138Y-2.952
X9.184Y-3.832
X9.324Y-4.25
X9.368Y-4.23
X9.412Y-3.65
X9.412Y-4.198
X9.434Y-4.154
X9.466Y-3.662
X9.48Y-3.536
X9.49Y-3.472
X9.556Y-3.108
X9.61Y-3.372
X9.682Y-4.188
X9.696Y-3.814
X9.728Y-4.188
X9.74Y-3.786
X9.754Y-3.364
X9.774Y-3.442
X9.778Y-4.188
X9.81Y-3.274
X9.81Y-4.154
X9.824Y-3.224
X9.914Y-3.276
X9.942Y-3.228
X9.964Y-3.466
X10.Y-3.544
T2
X8.22Y-4.182
X8.22Y-4.282
X8.32Y-4.182
X8.32Y-4.282
X8.42Y-4.182
X8.42Y-4.282
X10.15Y-3.51
X10.15Y-3.61
X10.15Y-3.71
X10.15Y-3.81
X10.15Y-3.91
X10.15Y-4.01
X10.35Y-2.61
X10.35Y-2.71
X10.35Y-2.81
X10.35Y-2.91
X10.35Y-3.01
X10.35Y-3.11
X10.35Y-3.31
X10.35Y-3.41
X10.35Y-3.51
X10.35Y-3.61
X10.35Y-3.71
X10.35Y-3.81
X10.35Y-3.91
X10.35Y-4.01
X10.35Y-4.11
X10.35Y-4.21
T3
X7.806Y-3.33
X7.806Y-3.77
X8.086Y-3.35
X8.086Y-3.43
X8.086Y-3.67
X8.086Y-3.75
X8.186Y-3.63
X8.186Y-3.71
X8.186Y-3.79
X8.286Y-3.31
X8.286Y-3.41
X8.286Y-3.69
X8.286Y-3.79
T4
X7.361Y-3.2325
X7.361Y-3.8675
T5
X7.486Y-3.3
X7.486Y-3.8
T0
M30
