G04 (created by PCBNEW (2013-mar-13)-testing) date Sun 24 Mar 2013 04:17:42 PM EDT*
%MOIN*%
G04 Gerber Fmt 3.4, Leading zero omitted, Abs format*
%FSLAX34Y34*%
G01*
G70*
G90*
G04 APERTURE LIST*
%ADD10C,0.006*%
%ADD11C,0.128*%
%ADD12C,0.06*%
%ADD13C,0.062*%
%ADD14R,0.019685X0.0354331*%
%ADD15R,0.0354331X0.019685*%
%ADD16R,0.0314961X0.0314961*%
%ADD17R,0.0748031X0.102362*%
%ADD18R,0.01X0.0472*%
%ADD19R,0.0472X0.01*%
%ADD20R,0.055X0.055*%
%ADD21C,0.055*%
%ADD22R,0.0393701X0.015748*%
%ADD23R,0.0133858X0.0275591*%
%ADD24R,0.0551181X0.0551181*%
%ADD25R,0.132283X0.191339*%
%ADD26R,0.0551181X0.0354331*%
%ADD27R,0.0551181X0.0866142*%
%ADD28R,0.0216535X0.0413386*%
%ADD29R,0.05X0.08*%
%ADD30R,0.0590551X0.0314961*%
%ADD31R,0.108268X0.108268*%
%ADD32O,0.0374016X0.011811*%
%ADD33O,0.011811X0.0374016*%
%ADD34R,0.0787X0.0177*%
%ADD35R,0.0177X0.0787*%
%ADD36R,0.0276X0.0394*%
%ADD37R,0.0394X0.0315*%
%ADD38R,0.06X0.08*%
%ADD39R,0.025X0.045*%
%ADD40R,0.045X0.025*%
%ADD41C,0.035*%
%ADD42C,0.01*%
%ADD43C,0.015*%
%ADD44C,0.025*%
%ADD45C,0.03*%
G04 APERTURE END LIST*
G54D10*
G54D11*
X74860Y-38000D03*
X74860Y-33000D03*
G54D12*
X81860Y-37100D03*
X81860Y-37900D03*
X80860Y-33500D03*
X80860Y-34300D03*
X80860Y-36700D03*
X78060Y-37700D03*
X78060Y-33300D03*
X82860Y-36900D03*
X82860Y-33100D03*
X82860Y-37900D03*
X82860Y-34100D03*
X80860Y-37500D03*
G54D13*
X73610Y-32325D03*
X73610Y-38675D03*
G54D12*
X81860Y-36300D03*
G54D14*
X79577Y-40734D03*
X79262Y-40734D03*
X79262Y-40065D03*
X79577Y-40065D03*
X76977Y-40794D03*
X76662Y-40794D03*
X76662Y-40125D03*
X76977Y-40125D03*
G54D15*
X93885Y-33232D03*
X93885Y-32917D03*
X93885Y-32287D03*
X93885Y-32602D03*
X94554Y-32602D03*
X94554Y-32287D03*
X94554Y-32917D03*
X94554Y-33232D03*
G54D16*
X92510Y-34380D03*
X91289Y-34380D03*
X92510Y-34860D03*
X91289Y-34860D03*
X92510Y-35820D03*
X91289Y-35820D03*
X92510Y-35340D03*
X91289Y-35340D03*
G54D17*
X87753Y-33360D03*
X89446Y-33360D03*
G54D18*
X86240Y-35594D03*
X89980Y-35594D03*
X89780Y-35594D03*
X89580Y-35594D03*
X89390Y-35594D03*
X89190Y-35594D03*
X88990Y-35594D03*
X88790Y-35594D03*
X88600Y-35594D03*
X88400Y-35594D03*
X88200Y-35594D03*
X88010Y-35594D03*
X87810Y-35594D03*
X87610Y-35594D03*
X87420Y-35594D03*
X87220Y-35594D03*
X87020Y-35594D03*
X86830Y-35594D03*
X86630Y-35594D03*
X86430Y-35594D03*
G54D19*
X90732Y-36354D03*
X90732Y-38126D03*
X90732Y-37928D03*
X90732Y-37732D03*
X90732Y-37536D03*
X90732Y-37338D03*
X90732Y-37142D03*
X90732Y-36944D03*
X90732Y-36748D03*
X90732Y-36550D03*
X90732Y-39306D03*
X90732Y-39110D03*
X90732Y-38914D03*
X90732Y-38716D03*
X90732Y-38520D03*
X90732Y-38322D03*
X90732Y-39504D03*
X90732Y-39700D03*
X90732Y-39898D03*
X90732Y-40094D03*
X85494Y-36352D03*
X85494Y-36552D03*
X85494Y-36742D03*
X85494Y-36942D03*
X85494Y-37142D03*
X85494Y-37332D03*
X85494Y-37532D03*
X85494Y-37732D03*
X85494Y-37922D03*
X85494Y-38122D03*
X85494Y-38322D03*
X85494Y-38522D03*
X85494Y-38712D03*
X85494Y-38912D03*
X85494Y-39112D03*
X85494Y-39302D03*
X85494Y-39502D03*
X85494Y-39702D03*
X85494Y-39892D03*
X85494Y-40092D03*
G54D18*
X86240Y-40846D03*
X86440Y-40846D03*
X86638Y-40846D03*
X86836Y-40846D03*
X87032Y-40846D03*
X87228Y-40846D03*
X87424Y-40846D03*
X87620Y-40846D03*
X87820Y-40846D03*
X88016Y-40846D03*
X88212Y-40846D03*
X88410Y-40846D03*
X88606Y-40846D03*
X88804Y-40846D03*
X89000Y-40846D03*
X89196Y-40846D03*
X89394Y-40846D03*
X89590Y-40846D03*
X89788Y-40846D03*
X89984Y-40846D03*
G54D20*
X82200Y-42820D03*
G54D21*
X82200Y-41820D03*
X83200Y-42820D03*
X83200Y-41820D03*
X84200Y-42820D03*
X84200Y-41820D03*
G54D22*
X75305Y-28252D03*
X75305Y-27937D03*
X75305Y-27307D03*
X75305Y-27622D03*
X75934Y-27622D03*
X75934Y-27307D03*
X75934Y-27937D03*
X75934Y-28252D03*
G54D23*
X77492Y-25369D03*
X77177Y-25369D03*
X76547Y-25369D03*
X76862Y-25369D03*
X77492Y-26590D03*
X77177Y-26590D03*
X76547Y-26590D03*
X76862Y-26590D03*
X77452Y-29029D03*
X77137Y-29029D03*
X76507Y-29029D03*
X76822Y-29029D03*
X77452Y-30250D03*
X77137Y-30250D03*
X76507Y-30250D03*
X76822Y-30250D03*
G54D24*
X96422Y-26870D03*
X97147Y-26870D03*
G54D25*
X96785Y-28437D03*
G54D26*
X88885Y-31272D03*
G54D27*
X88885Y-30268D03*
G54D28*
X87660Y-31136D03*
X87660Y-30033D03*
G54D29*
X94740Y-24990D03*
X91800Y-30890D03*
X90820Y-24990D03*
X91800Y-24990D03*
X92780Y-24990D03*
X93760Y-24990D03*
X90820Y-30890D03*
X92780Y-30890D03*
X93760Y-30890D03*
X94740Y-30890D03*
G54D30*
X83166Y-27810D03*
X83166Y-27310D03*
X85103Y-27310D03*
X85103Y-27810D03*
G54D31*
X79710Y-27960D03*
G54D32*
X80635Y-28442D03*
X80635Y-28127D03*
X80635Y-27792D03*
X80635Y-27477D03*
G54D33*
X80497Y-27034D03*
X80182Y-27034D03*
X79867Y-27034D03*
X79552Y-27034D03*
X79237Y-27034D03*
X78922Y-27034D03*
G54D32*
X78784Y-27477D03*
X78784Y-27792D03*
X78784Y-28127D03*
X78784Y-28442D03*
G54D33*
X78922Y-28885D03*
X79237Y-28885D03*
X79540Y-28885D03*
X79867Y-28885D03*
X80182Y-28885D03*
X80497Y-28885D03*
G54D34*
X94474Y-39843D03*
X94474Y-39528D03*
X94474Y-39213D03*
X94474Y-38898D03*
X94474Y-38583D03*
X94474Y-38268D03*
X94474Y-37953D03*
X94474Y-37638D03*
X98240Y-37640D03*
X98240Y-39850D03*
X98240Y-39530D03*
X98240Y-39210D03*
X98240Y-38900D03*
X98240Y-38580D03*
X98240Y-38270D03*
X98240Y-37950D03*
G54D35*
X95258Y-36850D03*
X95572Y-36850D03*
X95888Y-36850D03*
X96202Y-36850D03*
X96518Y-36850D03*
X96832Y-36850D03*
X97148Y-36850D03*
X97462Y-36850D03*
X95260Y-40630D03*
X95570Y-40630D03*
X95890Y-40630D03*
X96200Y-40630D03*
X96510Y-40630D03*
X96830Y-40630D03*
X97150Y-40630D03*
X97470Y-40630D03*
G54D36*
X98285Y-34780D03*
X98660Y-34780D03*
X99035Y-34780D03*
X99035Y-35780D03*
X98660Y-35780D03*
X98285Y-35780D03*
G54D37*
X88243Y-25385D03*
X87377Y-25760D03*
X87377Y-25010D03*
G54D38*
X98910Y-31395D03*
X100210Y-31395D03*
G54D39*
X82985Y-24510D03*
X83585Y-24510D03*
G54D40*
X79560Y-26210D03*
X79560Y-25610D03*
G54D39*
X80560Y-25060D03*
X79960Y-25060D03*
G54D40*
X97760Y-30170D03*
X97760Y-30770D03*
X89900Y-30300D03*
X89900Y-30900D03*
X89110Y-28660D03*
X89110Y-29260D03*
X88435Y-28660D03*
X88435Y-29260D03*
X87735Y-28660D03*
X87735Y-29260D03*
X80910Y-26210D03*
X80910Y-25610D03*
G54D39*
X99260Y-28995D03*
X99860Y-28995D03*
G54D40*
X98385Y-26995D03*
X98385Y-27595D03*
X98385Y-28420D03*
X98385Y-29020D03*
G54D39*
X84760Y-30485D03*
X85360Y-30485D03*
G54D40*
X84660Y-29235D03*
X84660Y-29835D03*
X85435Y-29235D03*
X85435Y-29835D03*
G54D39*
X85135Y-28560D03*
X84535Y-28560D03*
X93270Y-38600D03*
X92670Y-38600D03*
X98260Y-34000D03*
X98860Y-34000D03*
G54D40*
X97470Y-35650D03*
X97470Y-35050D03*
X96720Y-35050D03*
X96720Y-35650D03*
G54D39*
X96600Y-34400D03*
X97200Y-34400D03*
G54D40*
X87035Y-28660D03*
X87035Y-29260D03*
X93220Y-39550D03*
X93220Y-40150D03*
G54D39*
X96020Y-34600D03*
X95420Y-34600D03*
G54D40*
X78540Y-40700D03*
X78540Y-41300D03*
X76020Y-40820D03*
X76020Y-41420D03*
G54D39*
X87535Y-26860D03*
X88135Y-26860D03*
G54D40*
X83940Y-33480D03*
X83940Y-34080D03*
G54D39*
X82680Y-39680D03*
X82080Y-39680D03*
G54D40*
X88560Y-41660D03*
X88560Y-42260D03*
G54D39*
X91560Y-37320D03*
X92160Y-37320D03*
X87100Y-34280D03*
X87700Y-34280D03*
X90880Y-33660D03*
X90280Y-33660D03*
X90880Y-32920D03*
X90280Y-32920D03*
G54D40*
X86040Y-32560D03*
X86040Y-33160D03*
X86720Y-32900D03*
X86720Y-33500D03*
G54D39*
X84600Y-40320D03*
X84000Y-40320D03*
G54D40*
X86235Y-25835D03*
X86235Y-26435D03*
X86235Y-24660D03*
X86235Y-25260D03*
X82885Y-28485D03*
X82885Y-29085D03*
G54D39*
X81660Y-27760D03*
X82260Y-27760D03*
G54D40*
X82235Y-28485D03*
X82235Y-29085D03*
G54D39*
X83560Y-29685D03*
X82960Y-29685D03*
G54D40*
X83535Y-28485D03*
X83535Y-29085D03*
G54D39*
X91500Y-39520D03*
X92100Y-39520D03*
X95420Y-35350D03*
X96020Y-35350D03*
X84600Y-39020D03*
X84000Y-39020D03*
G54D40*
X88360Y-34960D03*
X88360Y-34360D03*
X89100Y-34940D03*
X89100Y-34340D03*
G54D39*
X84000Y-38360D03*
X84600Y-38360D03*
X84600Y-39680D03*
X84000Y-39680D03*
X89180Y-41560D03*
X89780Y-41560D03*
G54D40*
X85280Y-34080D03*
X85280Y-34680D03*
X86020Y-34680D03*
X86020Y-34080D03*
G54D20*
X103500Y-31100D03*
G54D21*
X103500Y-30100D03*
X103500Y-29100D03*
X103500Y-28100D03*
X103500Y-27100D03*
X103500Y-26100D03*
G54D20*
X101500Y-40100D03*
G54D21*
X101500Y-39100D03*
X101500Y-38100D03*
X101500Y-37100D03*
X101500Y-36100D03*
X101500Y-35100D03*
G54D20*
X103500Y-33100D03*
G54D21*
X103500Y-34100D03*
X103500Y-35100D03*
X103500Y-36100D03*
X103500Y-37100D03*
X103500Y-38100D03*
X103500Y-39100D03*
X103500Y-40100D03*
X103500Y-41100D03*
X103500Y-42100D03*
G54D40*
X84620Y-34080D03*
X84620Y-33480D03*
X85260Y-33480D03*
X85260Y-32880D03*
X81300Y-39720D03*
X81300Y-40320D03*
G54D41*
X89100Y-39940D03*
X89100Y-39100D03*
X97740Y-34420D03*
X94660Y-36620D03*
X94800Y-35360D03*
X84480Y-34660D03*
X87100Y-37460D03*
X87760Y-39640D03*
X88760Y-39500D03*
X83960Y-37740D03*
X86300Y-37580D03*
X87720Y-37280D03*
X90520Y-35020D03*
X99140Y-32760D03*
X98100Y-32740D03*
X99420Y-32280D03*
X98240Y-32240D03*
X94120Y-36500D03*
X97400Y-37860D03*
X96960Y-38140D03*
X97540Y-33640D03*
X88180Y-37260D03*
X90480Y-35540D03*
X91840Y-38320D03*
X88060Y-38780D03*
X83480Y-39720D03*
X86420Y-39560D03*
X86340Y-38720D03*
X94900Y-34720D03*
X89340Y-37260D03*
X95560Y-31080D03*
X86340Y-36200D03*
X89140Y-26880D03*
X89720Y-40000D03*
X89920Y-36400D03*
X100000Y-35440D03*
X99640Y-34660D03*
X89880Y-38040D03*
X93240Y-42500D03*
X97780Y-41880D03*
X93680Y-42300D03*
X97280Y-41880D03*
X80210Y-26110D03*
X80610Y-29560D03*
X82410Y-27085D03*
X81535Y-28560D03*
X79860Y-29460D03*
X81580Y-30360D03*
X96100Y-33720D03*
X86920Y-42220D03*
X80100Y-38120D03*
X84360Y-35680D03*
X84360Y-36300D03*
X87480Y-36920D03*
X90180Y-34700D03*
X94340Y-41540D03*
X98100Y-41540D03*
X89780Y-38500D03*
X94120Y-41980D03*
X96820Y-41880D03*
X87040Y-36860D03*
X89760Y-34460D03*
X81020Y-35800D03*
X76560Y-26000D03*
X78220Y-27300D03*
X75840Y-29540D03*
X77060Y-27540D03*
X77560Y-27200D03*
X76500Y-29620D03*
X77700Y-28220D03*
X75120Y-28960D03*
X78580Y-30580D03*
X78720Y-26020D03*
X91380Y-29520D03*
X90020Y-28260D03*
X81580Y-24100D03*
X81960Y-30085D03*
X81585Y-25635D03*
X81110Y-29610D03*
X81260Y-28160D03*
X78910Y-29710D03*
X78110Y-27810D03*
G54D42*
X85948Y-39112D02*
X87068Y-39112D01*
X87068Y-39112D02*
X87460Y-38720D01*
X85494Y-38322D02*
X87062Y-38322D01*
X87062Y-38322D02*
X87460Y-38720D01*
X87460Y-38720D02*
X87420Y-38720D01*
X87420Y-38720D02*
X87400Y-38700D01*
X88400Y-35594D02*
X88400Y-36800D01*
X88860Y-40180D02*
X88606Y-40180D01*
X89100Y-39940D02*
X88860Y-40180D01*
X89100Y-37500D02*
X89100Y-39100D01*
X88400Y-36800D02*
X89100Y-37500D01*
X89100Y-34940D02*
X89040Y-34940D01*
X88400Y-35260D02*
X88400Y-35594D01*
X88440Y-35220D02*
X88400Y-35260D01*
X88760Y-35220D02*
X88440Y-35220D01*
X89040Y-34940D02*
X88760Y-35220D01*
X84600Y-39680D02*
X84820Y-39680D01*
X85068Y-39112D02*
X85494Y-39112D01*
X84960Y-39220D02*
X85068Y-39112D01*
X84960Y-39540D02*
X84960Y-39220D01*
X84820Y-39680D02*
X84960Y-39540D01*
X84600Y-38360D02*
X84980Y-38360D01*
X85018Y-38322D02*
X85494Y-38322D01*
X84980Y-38360D02*
X85018Y-38322D01*
X88606Y-40846D02*
X88606Y-40180D01*
X88606Y-40180D02*
X88606Y-39866D01*
X88606Y-39866D02*
X87460Y-38720D01*
X87460Y-38720D02*
X87400Y-38720D01*
X85494Y-39112D02*
X85948Y-39112D01*
X88606Y-40846D02*
X88606Y-41226D01*
X88920Y-41300D02*
X89180Y-41560D01*
X88680Y-41300D02*
X88920Y-41300D01*
X88606Y-41226D02*
X88680Y-41300D01*
X85494Y-39112D02*
X85494Y-39302D01*
G54D43*
X93377Y-39143D02*
X93337Y-39143D01*
X93220Y-39260D02*
X93220Y-39550D01*
X93337Y-39143D02*
X93220Y-39260D01*
X93270Y-39036D02*
X93377Y-39143D01*
X93377Y-39143D02*
X93447Y-39213D01*
X93447Y-39213D02*
X94474Y-39213D01*
G54D44*
X98260Y-34380D02*
X97780Y-34380D01*
X97780Y-34380D02*
X97740Y-34420D01*
X98260Y-34000D02*
X98260Y-34380D01*
X98260Y-34380D02*
X98260Y-34755D01*
X98260Y-34755D02*
X98285Y-34780D01*
G54D43*
X94580Y-31740D02*
X94580Y-32262D01*
X94580Y-32262D02*
X94554Y-32287D01*
G54D42*
X87620Y-37980D02*
X88200Y-37980D01*
X88760Y-38540D02*
X88760Y-39120D01*
X88200Y-37980D02*
X88760Y-38540D01*
X81300Y-39720D02*
X82040Y-39720D01*
X82040Y-39720D02*
X82080Y-39680D01*
G54D43*
X103500Y-28100D02*
X101660Y-28100D01*
X98910Y-30610D02*
X98910Y-31395D01*
X99220Y-30300D02*
X98910Y-30610D01*
X99460Y-30300D02*
X99220Y-30300D01*
X100440Y-29320D02*
X99460Y-30300D01*
G54D42*
X100440Y-29320D02*
X100440Y-29320D01*
G54D43*
X101660Y-28100D02*
X100440Y-29320D01*
G54D42*
X82200Y-41820D02*
X82200Y-40360D01*
X82200Y-40360D02*
X82300Y-40260D01*
G54D43*
X94554Y-33232D02*
X94554Y-32917D01*
X94554Y-32917D02*
X94554Y-32602D01*
X94554Y-32602D02*
X94554Y-32287D01*
X92780Y-37320D02*
X92780Y-36440D01*
X94554Y-33665D02*
X94554Y-33232D01*
X93840Y-34380D02*
X94554Y-33665D01*
X93840Y-35380D02*
X93840Y-34380D01*
X92780Y-36440D02*
X93840Y-35380D01*
G54D42*
X89900Y-31740D02*
X94580Y-31740D01*
G54D43*
X94580Y-31740D02*
X97460Y-31740D01*
G54D42*
X89900Y-30900D02*
X89900Y-31740D01*
G54D43*
X97460Y-31740D02*
X97857Y-31342D01*
G54D44*
X98560Y-33080D02*
X98560Y-32500D01*
X98560Y-33080D02*
X98260Y-33380D01*
X98260Y-34000D02*
X98260Y-33380D01*
X98910Y-32150D02*
X98910Y-31395D01*
X98560Y-32500D02*
X98910Y-32150D01*
G54D42*
X98285Y-34420D02*
X98260Y-34420D01*
X98260Y-34420D02*
X98285Y-34420D01*
G54D44*
X93150Y-37470D02*
X93810Y-37470D01*
X93810Y-37470D02*
X94660Y-36620D01*
G54D42*
X94810Y-35350D02*
X95420Y-35350D01*
X94800Y-35360D02*
X94810Y-35350D01*
X88760Y-39500D02*
X88760Y-39120D01*
X84620Y-34520D02*
X84620Y-34080D01*
X84480Y-34660D02*
X84620Y-34520D01*
X87620Y-37980D02*
X87100Y-37460D01*
X84600Y-40320D02*
X84600Y-40700D01*
X82080Y-40140D02*
X82080Y-39680D01*
X82200Y-40260D02*
X82080Y-40140D01*
X82900Y-40260D02*
X82300Y-40260D01*
X82300Y-40260D02*
X82200Y-40260D01*
X83460Y-40820D02*
X82900Y-40260D01*
X84480Y-40820D02*
X83460Y-40820D01*
X84600Y-40700D02*
X84480Y-40820D01*
X84600Y-39020D02*
X84380Y-39020D01*
X84340Y-40320D02*
X84600Y-40320D01*
X84300Y-40280D02*
X84340Y-40320D01*
X84300Y-39100D02*
X84300Y-40280D01*
X84380Y-39020D02*
X84300Y-39100D01*
X90732Y-39504D02*
X88764Y-39504D01*
X85120Y-40540D02*
X84860Y-40280D01*
X85820Y-40540D02*
X85120Y-40540D01*
X86240Y-40120D02*
X85820Y-40540D01*
X87280Y-40120D02*
X86240Y-40120D01*
X87760Y-39640D02*
X87280Y-40120D01*
X88764Y-39504D02*
X88760Y-39500D01*
G54D43*
X91500Y-39520D02*
X91500Y-40560D01*
X89800Y-42260D02*
X88560Y-42260D01*
X91500Y-40560D02*
X89800Y-42260D01*
X93270Y-39036D02*
X91564Y-39036D01*
X91500Y-39100D02*
X91500Y-39520D01*
X91564Y-39036D02*
X91500Y-39100D01*
G54D44*
X92160Y-37320D02*
X92780Y-37320D01*
X92780Y-37320D02*
X93000Y-37320D01*
X93270Y-37590D02*
X93270Y-38600D01*
X93000Y-37320D02*
X93150Y-37470D01*
G54D42*
X93150Y-37470D02*
X93270Y-37590D01*
X81860Y-37900D02*
X81860Y-38800D01*
X81860Y-38800D02*
X82080Y-39020D01*
X82080Y-39020D02*
X82080Y-39680D01*
X84620Y-34080D02*
X83940Y-34080D01*
X84600Y-40320D02*
X84820Y-40320D01*
X84820Y-40320D02*
X84860Y-40280D01*
X85078Y-39702D02*
X85494Y-39702D01*
X84860Y-40280D02*
X84960Y-40180D01*
X84960Y-40180D02*
X84960Y-39820D01*
X84960Y-39820D02*
X85078Y-39702D01*
X84600Y-39020D02*
X84840Y-39020D01*
X85098Y-38522D02*
X85494Y-38522D01*
X84960Y-38660D02*
X85098Y-38522D01*
X84960Y-38900D02*
X84960Y-38660D01*
X84840Y-39020D02*
X84960Y-38900D01*
X84620Y-34080D02*
X85280Y-34080D01*
X90732Y-39504D02*
X91484Y-39504D01*
X91484Y-39504D02*
X91500Y-39520D01*
G54D43*
X98240Y-39530D02*
X97290Y-39530D01*
X97290Y-39530D02*
X96660Y-38900D01*
G54D44*
X93270Y-38600D02*
X93270Y-39036D01*
G54D43*
X98240Y-38900D02*
X96660Y-38900D01*
X96343Y-38583D02*
X94474Y-38583D01*
X96660Y-38900D02*
X96343Y-38583D01*
G54D42*
X93220Y-39550D02*
X93220Y-39440D01*
G54D43*
X93270Y-38600D02*
X94457Y-38600D01*
G54D42*
X94457Y-38600D02*
X94474Y-38583D01*
G54D43*
X98285Y-34780D02*
X98060Y-34780D01*
X98060Y-34780D02*
X97790Y-35050D01*
X97790Y-35050D02*
X97470Y-35050D01*
X96720Y-35050D02*
X97470Y-35050D01*
G54D44*
X97760Y-30770D02*
X97760Y-31245D01*
X97760Y-31245D02*
X97857Y-31342D01*
X97857Y-31342D02*
X97910Y-31395D01*
X97910Y-31395D02*
X98910Y-31395D01*
G54D42*
X86140Y-37300D02*
X86140Y-37420D01*
X84000Y-37780D02*
X83960Y-37740D01*
X84000Y-37780D02*
X84000Y-38360D01*
X86140Y-37420D02*
X86300Y-37580D01*
X85494Y-37532D02*
X85908Y-37532D01*
X87420Y-36020D02*
X87420Y-35594D01*
X85908Y-37532D02*
X86140Y-37300D01*
X86140Y-37300D02*
X87420Y-36020D01*
X87420Y-35594D02*
X87420Y-35180D01*
X87640Y-34960D02*
X88360Y-34960D01*
X87420Y-35180D02*
X87640Y-34960D01*
X98240Y-37950D02*
X98810Y-37950D01*
X100540Y-40100D02*
X101500Y-40100D01*
X100020Y-39580D02*
X100540Y-40100D01*
X100020Y-39160D02*
X100020Y-39580D01*
X98810Y-37950D02*
X100020Y-39160D01*
X98240Y-37640D02*
X99140Y-37640D01*
X100600Y-39100D02*
X101500Y-39100D01*
X99140Y-37640D02*
X100600Y-39100D01*
X97462Y-36850D02*
X97870Y-36850D01*
X100480Y-38100D02*
X101500Y-38100D01*
X99640Y-37260D02*
X100480Y-38100D01*
X98280Y-37260D02*
X99640Y-37260D01*
X97870Y-36850D02*
X98280Y-37260D01*
X97148Y-36850D02*
X97148Y-36332D01*
X100780Y-37100D02*
X101500Y-37100D01*
X100580Y-36900D02*
X100780Y-37100D01*
X98400Y-36900D02*
X100580Y-36900D01*
X97680Y-36180D02*
X98400Y-36900D01*
X97300Y-36180D02*
X97680Y-36180D01*
X97148Y-36332D02*
X97300Y-36180D01*
X88010Y-36500D02*
X88010Y-36990D01*
X88010Y-36990D02*
X87720Y-37280D01*
X88010Y-35594D02*
X88010Y-36500D01*
X90840Y-35340D02*
X91289Y-35340D01*
X90520Y-35020D02*
X90840Y-35340D01*
X95342Y-35780D02*
X94560Y-35780D01*
X95888Y-36325D02*
X95342Y-35780D01*
X95888Y-36850D02*
X95888Y-36325D01*
X103300Y-32900D02*
X103500Y-33100D01*
X99280Y-32900D02*
X103300Y-32900D01*
X99140Y-32760D02*
X99280Y-32900D01*
X96160Y-32740D02*
X98100Y-32740D01*
X94380Y-34520D02*
X96160Y-32740D01*
X94380Y-35600D02*
X94380Y-34520D01*
X94560Y-35780D02*
X94380Y-35600D01*
X103500Y-30100D02*
X103620Y-30100D01*
X104200Y-32200D02*
X103900Y-32500D01*
X104200Y-30680D02*
X104200Y-32200D01*
X103620Y-30100D02*
X104200Y-30680D01*
X94160Y-35999D02*
X94160Y-34400D01*
X95572Y-36292D02*
X95279Y-35999D01*
X95279Y-35999D02*
X94160Y-35999D01*
X95572Y-36850D02*
X95572Y-36292D01*
X103920Y-34100D02*
X103500Y-34100D01*
X104100Y-33920D02*
X103920Y-34100D01*
X104100Y-32700D02*
X104100Y-33920D01*
X103660Y-32260D02*
X103900Y-32500D01*
X103900Y-32500D02*
X104100Y-32700D01*
X99440Y-32260D02*
X103660Y-32260D01*
X99420Y-32280D02*
X99440Y-32260D01*
X96320Y-32240D02*
X98240Y-32240D01*
X94160Y-34400D02*
X96320Y-32240D01*
X94180Y-36200D02*
X94180Y-36440D01*
X94180Y-36440D02*
X94120Y-36500D01*
X95258Y-36850D02*
X95258Y-36338D01*
X95120Y-36200D02*
X94180Y-36200D01*
X94180Y-36200D02*
X94160Y-36200D01*
X95258Y-36338D02*
X95120Y-36200D01*
X94474Y-37638D02*
X97178Y-37638D01*
X97178Y-37638D02*
X97400Y-37860D01*
X94474Y-37953D02*
X96773Y-37953D01*
X96773Y-37953D02*
X96960Y-38140D01*
X95260Y-40630D02*
X95260Y-42240D01*
X104920Y-39520D02*
X103500Y-38100D01*
X104920Y-42860D02*
X104920Y-39520D01*
X104500Y-43280D02*
X104920Y-42860D01*
X96300Y-43280D02*
X104500Y-43280D01*
X95260Y-42240D02*
X96300Y-43280D01*
X95570Y-40630D02*
X95570Y-42230D01*
X104720Y-40320D02*
X103500Y-39100D01*
X104720Y-42780D02*
X104720Y-40320D01*
X104420Y-43080D02*
X104720Y-42780D01*
X96420Y-43080D02*
X104420Y-43080D01*
X95570Y-42230D02*
X96420Y-43080D01*
X95890Y-40630D02*
X95890Y-42250D01*
X104500Y-41100D02*
X103500Y-40100D01*
X104500Y-42680D02*
X104500Y-41100D01*
X104320Y-42860D02*
X104500Y-42680D01*
X96500Y-42860D02*
X104320Y-42860D01*
X95890Y-42250D02*
X96500Y-42860D01*
X96200Y-40630D02*
X96200Y-42220D01*
X96200Y-42220D02*
X96540Y-42560D01*
X104280Y-41880D02*
X103500Y-41100D01*
X104280Y-42560D02*
X104280Y-41880D01*
X104280Y-42560D02*
X104280Y-42560D01*
X96540Y-42560D02*
X104280Y-42560D01*
X96510Y-40630D02*
X96510Y-42170D01*
X101820Y-42100D02*
X103500Y-42100D01*
X101620Y-42300D02*
X101820Y-42100D01*
X96640Y-42300D02*
X101620Y-42300D01*
X96510Y-42170D02*
X96640Y-42300D01*
X97200Y-34400D02*
X97200Y-33980D01*
X97200Y-33980D02*
X97540Y-33640D01*
X88200Y-36320D02*
X88200Y-37240D01*
X88200Y-37240D02*
X88180Y-37260D01*
X88200Y-35594D02*
X88200Y-36320D01*
X90760Y-35820D02*
X91289Y-35820D01*
X90480Y-35540D02*
X90760Y-35820D01*
X90732Y-38322D02*
X91838Y-38322D01*
X92120Y-38600D02*
X91840Y-38320D01*
X92120Y-38600D02*
X92670Y-38600D01*
X91838Y-38322D02*
X91840Y-38320D01*
X85494Y-38122D02*
X87402Y-38122D01*
X87402Y-38122D02*
X88060Y-38780D01*
X84000Y-39680D02*
X83520Y-39680D01*
X83520Y-39680D02*
X83480Y-39720D01*
X85960Y-39680D02*
X86300Y-39680D01*
X86300Y-39680D02*
X86420Y-39560D01*
X85494Y-38912D02*
X85494Y-38712D01*
X85494Y-38712D02*
X85502Y-38720D01*
X85502Y-38720D02*
X86340Y-38720D01*
X95420Y-34600D02*
X95020Y-34600D01*
X95020Y-34600D02*
X94900Y-34720D01*
X89040Y-36700D02*
X89040Y-36960D01*
X89040Y-36960D02*
X89340Y-37260D01*
X94740Y-30890D02*
X95370Y-30890D01*
X95370Y-30890D02*
X95560Y-31080D01*
X86020Y-34080D02*
X86020Y-33740D01*
X85620Y-32880D02*
X85260Y-32880D01*
X85640Y-32900D02*
X85620Y-32880D01*
X85640Y-33360D02*
X85640Y-32900D01*
X86020Y-33740D02*
X85640Y-33360D01*
X86480Y-36530D02*
X86480Y-36340D01*
X86480Y-36340D02*
X86340Y-36200D01*
G54D44*
X88135Y-26860D02*
X89120Y-26860D01*
G54D42*
X89120Y-26860D02*
X89140Y-26880D01*
X89780Y-41560D02*
X89780Y-40854D01*
X89780Y-40854D02*
X89788Y-40846D01*
X90732Y-39898D02*
X89822Y-39898D01*
X89822Y-39898D02*
X89720Y-40000D01*
X89580Y-35594D02*
X89580Y-36060D01*
X89580Y-36060D02*
X89920Y-36400D01*
X88600Y-36400D02*
X88700Y-36500D01*
X88700Y-36500D02*
X88840Y-36500D01*
X88840Y-36500D02*
X89040Y-36700D01*
X88600Y-35594D02*
X88600Y-36400D01*
X86470Y-36530D02*
X86480Y-36530D01*
X85494Y-36942D02*
X86058Y-36942D01*
X86830Y-36170D02*
X86830Y-35594D01*
X86058Y-36942D02*
X86470Y-36530D01*
X86470Y-36530D02*
X86830Y-36170D01*
X99920Y-35360D02*
X100000Y-35440D01*
X98660Y-35780D02*
X98660Y-35400D01*
X98700Y-35360D02*
X99480Y-35360D01*
X98660Y-35400D02*
X98700Y-35360D01*
X99480Y-35360D02*
X99920Y-35360D01*
X99520Y-34780D02*
X99035Y-34780D01*
X99640Y-34660D02*
X99520Y-34780D01*
X93760Y-30890D02*
X94740Y-30890D01*
X89580Y-35594D02*
X89580Y-34840D01*
X89100Y-34620D02*
X89100Y-34340D01*
X89120Y-34640D02*
X89100Y-34620D01*
X89380Y-34640D02*
X89120Y-34640D01*
X89580Y-34840D02*
X89380Y-34640D01*
X89100Y-34340D02*
X89420Y-34340D01*
X89420Y-34340D02*
X89620Y-34140D01*
X89620Y-34140D02*
X90780Y-34140D01*
X90780Y-34140D02*
X90880Y-34040D01*
X90880Y-34040D02*
X90880Y-33660D01*
X88360Y-34360D02*
X89080Y-34360D01*
X89080Y-34360D02*
X89100Y-34340D01*
X90732Y-37928D02*
X90732Y-37732D01*
X90732Y-37732D02*
X90732Y-37536D01*
X90732Y-39306D02*
X90732Y-39110D01*
X90732Y-39110D02*
X90732Y-38914D01*
X90732Y-38914D02*
X90732Y-38716D01*
X90732Y-38716D02*
X90732Y-38520D01*
X90732Y-38520D02*
X90732Y-38322D01*
X90732Y-38322D02*
X90732Y-38126D01*
X90732Y-38126D02*
X90732Y-37928D01*
X90732Y-40094D02*
X90732Y-39898D01*
X90732Y-39898D02*
X90732Y-39700D01*
X88804Y-40846D02*
X89000Y-40846D01*
X89000Y-40846D02*
X89196Y-40846D01*
X89196Y-40846D02*
X89394Y-40846D01*
X89394Y-40846D02*
X89590Y-40846D01*
X89590Y-40846D02*
X89788Y-40846D01*
X89788Y-40846D02*
X89984Y-40846D01*
X86240Y-40846D02*
X86440Y-40846D01*
X86440Y-40846D02*
X86638Y-40846D01*
X86638Y-40846D02*
X86836Y-40846D01*
X86836Y-40846D02*
X87032Y-40846D01*
X87032Y-40846D02*
X87228Y-40846D01*
X87228Y-40846D02*
X87220Y-40838D01*
X87220Y-40838D02*
X87220Y-40420D01*
X87220Y-40420D02*
X87340Y-40300D01*
X87340Y-40300D02*
X88280Y-40300D01*
X88280Y-40300D02*
X88410Y-40430D01*
X88410Y-40430D02*
X88410Y-40846D01*
X85494Y-39892D02*
X85494Y-40092D01*
X85494Y-39502D02*
X85902Y-39502D01*
X85908Y-39892D02*
X85494Y-39892D01*
X85960Y-39840D02*
X85908Y-39892D01*
X85960Y-39560D02*
X85960Y-39680D01*
X85960Y-39680D02*
X85960Y-39840D01*
X85902Y-39502D02*
X85960Y-39560D01*
X98240Y-38580D02*
X96800Y-38580D01*
X96488Y-38268D02*
X94474Y-38268D01*
X96800Y-38580D02*
X96488Y-38268D01*
X89190Y-35594D02*
X89390Y-35594D01*
X89390Y-35594D02*
X89580Y-35594D01*
X98660Y-34780D02*
X99035Y-34780D01*
X88243Y-25385D02*
X88243Y-24543D01*
X84285Y-24510D02*
X83585Y-24510D01*
X84610Y-24185D02*
X84285Y-24510D01*
X87885Y-24185D02*
X84610Y-24185D01*
X88243Y-24543D02*
X87885Y-24185D01*
X88243Y-25385D02*
X88243Y-26202D01*
X88135Y-26310D02*
X88135Y-26860D01*
X88243Y-26202D02*
X88135Y-26310D01*
X89480Y-36520D02*
X89900Y-36940D01*
X89900Y-38020D02*
X89880Y-38040D01*
X89900Y-36940D02*
X89900Y-38020D01*
X88990Y-35594D02*
X88990Y-36030D01*
X88990Y-36030D02*
X89480Y-36520D01*
X82200Y-42820D02*
X82200Y-43000D01*
X87680Y-43260D02*
X87860Y-43080D01*
X82460Y-43260D02*
X87680Y-43260D01*
X82200Y-43000D02*
X82460Y-43260D01*
X97470Y-41550D02*
X97470Y-41570D01*
X97470Y-40630D02*
X97470Y-41550D01*
X93120Y-42380D02*
X91500Y-42380D01*
X93240Y-42500D02*
X93120Y-42380D01*
X97470Y-41570D02*
X97780Y-41880D01*
X91500Y-42380D02*
X90920Y-42380D01*
X87424Y-42644D02*
X87424Y-40846D01*
X88080Y-43300D02*
X87860Y-43080D01*
X87860Y-43080D02*
X87424Y-42644D01*
X90000Y-43300D02*
X88080Y-43300D01*
X90920Y-42380D02*
X90000Y-43300D01*
X91500Y-42380D02*
X91480Y-42380D01*
X97150Y-41550D02*
X97150Y-41750D01*
X90840Y-42160D02*
X89900Y-43100D01*
X89900Y-43100D02*
X88160Y-43100D01*
X88160Y-43100D02*
X87620Y-42560D01*
X87620Y-40846D02*
X87620Y-42560D01*
X97150Y-41550D02*
X97150Y-40630D01*
X91400Y-42160D02*
X90840Y-42160D01*
X93540Y-42160D02*
X91400Y-42160D01*
X93680Y-42300D02*
X93540Y-42160D01*
X97150Y-41750D02*
X97280Y-41880D01*
X88560Y-41660D02*
X88560Y-41540D01*
X88212Y-41192D02*
X88212Y-40846D01*
X88560Y-41540D02*
X88212Y-41192D01*
X85103Y-27810D02*
X84760Y-27810D01*
X84535Y-28035D02*
X84535Y-28560D01*
X84760Y-27810D02*
X84535Y-28035D01*
X80210Y-29360D02*
X80410Y-29360D01*
X79867Y-26752D02*
X79867Y-27034D01*
X80110Y-26510D02*
X79867Y-26752D01*
X80110Y-26210D02*
X80110Y-26510D01*
X80210Y-26110D02*
X80110Y-26210D01*
X80410Y-29360D02*
X80610Y-29560D01*
X79540Y-28885D02*
X79540Y-29279D01*
X80210Y-28912D02*
X80182Y-28885D01*
X80210Y-29710D02*
X80210Y-29360D01*
X80210Y-29360D02*
X80210Y-28912D01*
X80010Y-29910D02*
X80210Y-29710D01*
X79610Y-29910D02*
X80010Y-29910D01*
X79460Y-29760D02*
X79610Y-29910D01*
X79460Y-29360D02*
X79460Y-29760D01*
X79540Y-29279D02*
X79460Y-29360D01*
G54D44*
X96422Y-26870D02*
X95390Y-26870D01*
X92780Y-29480D02*
X92780Y-30890D01*
X95390Y-26870D02*
X92780Y-29480D01*
X91800Y-30890D02*
X92780Y-30890D01*
X98385Y-26245D02*
X98385Y-26995D01*
X98185Y-25145D02*
X98185Y-26045D01*
X98185Y-26045D02*
X98385Y-26245D01*
G54D45*
X97147Y-26870D02*
X97147Y-25300D01*
X97147Y-25300D02*
X97147Y-25202D01*
X97147Y-25202D02*
X97205Y-25145D01*
X97205Y-25145D02*
X98185Y-25145D01*
X97147Y-26870D02*
X96422Y-26870D01*
G54D42*
X98185Y-25145D02*
X97205Y-25145D01*
X85103Y-27310D02*
X85103Y-24866D01*
X85103Y-24866D02*
X85310Y-24660D01*
X87377Y-25760D02*
X87660Y-25760D01*
X86910Y-24660D02*
X86235Y-24660D01*
X87035Y-24535D02*
X86910Y-24660D01*
X87685Y-24535D02*
X87035Y-24535D01*
X87835Y-24685D02*
X87685Y-24535D01*
X87835Y-25585D02*
X87835Y-24685D01*
X87660Y-25760D02*
X87835Y-25585D01*
X86235Y-24660D02*
X85360Y-24660D01*
X85360Y-24660D02*
X85310Y-24660D01*
X82885Y-28485D02*
X82885Y-28335D01*
X81092Y-27477D02*
X80635Y-27477D01*
X81310Y-27260D02*
X81092Y-27477D01*
X81885Y-27260D02*
X81310Y-27260D01*
X81960Y-27335D02*
X81885Y-27260D01*
X81960Y-28135D02*
X81960Y-27335D01*
X82010Y-28185D02*
X81960Y-28135D01*
X82735Y-28185D02*
X82010Y-28185D01*
X82885Y-28335D02*
X82735Y-28185D01*
X83166Y-27810D02*
X83166Y-28066D01*
X83535Y-28210D02*
X83535Y-28485D01*
X83510Y-28185D02*
X83535Y-28210D01*
X83285Y-28185D02*
X83510Y-28185D01*
X83166Y-28066D02*
X83285Y-28185D01*
X80635Y-28442D02*
X81042Y-28442D01*
X82260Y-27235D02*
X82260Y-27760D01*
X82410Y-27085D02*
X82260Y-27235D01*
X81160Y-28560D02*
X81535Y-28560D01*
X81042Y-28442D02*
X81160Y-28560D01*
X82260Y-27760D02*
X83116Y-27760D01*
X83116Y-27760D02*
X83166Y-27810D01*
X82235Y-28485D02*
X82010Y-28485D01*
X81660Y-28135D02*
X81660Y-27760D01*
X82010Y-28485D02*
X81660Y-28135D01*
X80635Y-27792D02*
X81627Y-27792D01*
X81627Y-27792D02*
X81660Y-27760D01*
X86040Y-33160D02*
X86040Y-33040D01*
X86180Y-32900D02*
X86720Y-32900D01*
X86040Y-33040D02*
X86180Y-32900D01*
X86720Y-33500D02*
X86720Y-33740D01*
X85072Y-36352D02*
X85494Y-36352D01*
X84960Y-36240D02*
X85072Y-36352D01*
X84960Y-35200D02*
X84960Y-36240D01*
X85140Y-35020D02*
X84960Y-35200D01*
X86300Y-35020D02*
X85140Y-35020D01*
X86400Y-34920D02*
X86300Y-35020D01*
X86400Y-34060D02*
X86400Y-34920D01*
X86720Y-33740D02*
X86400Y-34060D01*
X90140Y-32920D02*
X90280Y-32920D01*
X89800Y-32580D02*
X90140Y-32920D01*
X88980Y-32580D02*
X89800Y-32580D01*
X88200Y-33360D02*
X88980Y-32580D01*
X87020Y-35594D02*
X87020Y-35220D01*
X86680Y-34280D02*
X87100Y-34280D01*
X86580Y-34379D02*
X86680Y-34280D01*
X86580Y-34860D02*
X86580Y-34379D01*
X86680Y-34960D02*
X86580Y-34860D01*
X86760Y-34960D02*
X86680Y-34960D01*
X87020Y-35220D02*
X86760Y-34960D01*
X87753Y-33360D02*
X87360Y-33360D01*
X87100Y-33620D02*
X87100Y-34280D01*
X87360Y-33360D02*
X87100Y-33620D01*
X87753Y-33360D02*
X88200Y-33360D01*
X87700Y-34280D02*
X87780Y-34280D01*
X88780Y-33360D02*
X89446Y-33360D01*
X88440Y-33700D02*
X88780Y-33360D01*
X88440Y-33800D02*
X88440Y-33700D01*
X88220Y-34020D02*
X88440Y-33800D01*
X88040Y-34020D02*
X88220Y-34020D01*
X87780Y-34280D02*
X88040Y-34020D01*
X87220Y-35594D02*
X87220Y-35140D01*
X87480Y-34280D02*
X87700Y-34280D01*
X87400Y-34360D02*
X87480Y-34280D01*
X87400Y-34560D02*
X87400Y-34360D01*
X87320Y-34640D02*
X87400Y-34560D01*
X87060Y-34640D02*
X87320Y-34640D01*
X86980Y-34720D02*
X87060Y-34640D01*
X86980Y-34900D02*
X86980Y-34720D01*
X87220Y-35140D02*
X86980Y-34900D01*
X89446Y-33360D02*
X89680Y-33360D01*
X89680Y-33360D02*
X89980Y-33660D01*
X89980Y-33660D02*
X90280Y-33660D01*
X90732Y-36748D02*
X90732Y-36944D01*
X90732Y-37338D02*
X90338Y-37338D01*
X90356Y-36944D02*
X90732Y-36944D01*
X90280Y-37020D02*
X90356Y-36944D01*
X90280Y-37280D02*
X90280Y-37020D01*
X90338Y-37338D02*
X90280Y-37280D01*
X90732Y-37338D02*
X91542Y-37338D01*
X91542Y-37338D02*
X91560Y-37320D01*
X92510Y-35340D02*
X92760Y-35340D01*
X93302Y-32917D02*
X93885Y-32917D01*
X93160Y-33060D02*
X93302Y-32917D01*
X93160Y-34940D02*
X93160Y-33060D01*
X92760Y-35340D02*
X93160Y-34940D01*
X92510Y-35820D02*
X92740Y-35820D01*
X93547Y-33232D02*
X93885Y-33232D01*
X93400Y-33380D02*
X93547Y-33232D01*
X93400Y-35160D02*
X93400Y-33380D01*
X92740Y-35820D02*
X93400Y-35160D01*
X92510Y-34860D02*
X92780Y-34860D01*
X93077Y-32602D02*
X93885Y-32602D01*
X92920Y-32760D02*
X93077Y-32602D01*
X92920Y-34720D02*
X92920Y-32760D01*
X92780Y-34860D02*
X92920Y-34720D01*
X92510Y-34380D02*
X92510Y-32649D01*
X92872Y-32287D02*
X93885Y-32287D01*
X92510Y-32649D02*
X92872Y-32287D01*
X80910Y-26210D02*
X80760Y-26210D01*
X80182Y-26787D02*
X80182Y-27034D01*
X80760Y-26210D02*
X80182Y-26787D01*
X79560Y-26210D02*
X79560Y-27027D01*
X79560Y-27027D02*
X79552Y-27034D01*
X82860Y-37900D02*
X82860Y-39000D01*
X82680Y-39180D02*
X82680Y-39680D01*
X82860Y-39000D02*
X82680Y-39180D01*
X79577Y-40734D02*
X79262Y-40734D01*
X79262Y-40734D02*
X79227Y-40700D01*
X79227Y-40700D02*
X78560Y-40700D01*
X76977Y-40794D02*
X76662Y-40794D01*
X76662Y-40794D02*
X76637Y-40820D01*
X76637Y-40820D02*
X76020Y-40820D01*
X83940Y-33480D02*
X83940Y-33400D01*
X83640Y-33100D02*
X82860Y-33100D01*
X83940Y-33400D02*
X83640Y-33100D01*
X85280Y-34680D02*
X85180Y-34680D01*
X84932Y-36552D02*
X85494Y-36552D01*
X84740Y-36360D02*
X84932Y-36552D01*
X84740Y-35120D02*
X84740Y-36360D01*
X85180Y-34680D02*
X84740Y-35120D01*
X85640Y-34680D02*
X85640Y-33880D01*
X85260Y-33720D02*
X85260Y-33480D01*
X85320Y-33780D02*
X85260Y-33720D01*
X85540Y-33780D02*
X85320Y-33780D01*
X85640Y-33880D02*
X85540Y-33780D01*
X86020Y-34680D02*
X85640Y-34680D01*
X85640Y-34680D02*
X85280Y-34680D01*
G54D44*
X98385Y-27595D02*
X98385Y-28420D01*
G54D42*
X87660Y-31136D02*
X88036Y-31136D01*
X88172Y-31272D02*
X88885Y-31272D01*
X88036Y-31136D02*
X88172Y-31272D01*
G54D44*
X96785Y-28437D02*
X96785Y-29920D01*
X96785Y-29920D02*
X97035Y-30170D01*
X97035Y-30170D02*
X97760Y-30170D01*
X98385Y-29020D02*
X98385Y-29345D01*
X98385Y-29345D02*
X98085Y-29645D01*
X98085Y-29645D02*
X97860Y-29645D01*
X97860Y-29645D02*
X97760Y-29745D01*
X97760Y-29745D02*
X97760Y-30170D01*
X98385Y-29020D02*
X99235Y-29020D01*
X99235Y-29020D02*
X99260Y-28995D01*
G54D42*
X84660Y-29835D02*
X84660Y-30385D01*
X84660Y-30385D02*
X84760Y-30485D01*
G54D44*
X89110Y-29260D02*
X89860Y-29260D01*
X93760Y-25980D02*
X93760Y-24990D01*
X93220Y-26520D02*
X93760Y-25980D01*
X92600Y-26520D02*
X93220Y-26520D01*
X89860Y-29260D02*
X92600Y-26520D01*
G54D42*
X88435Y-29560D02*
X88160Y-29835D01*
X88160Y-29835D02*
X88160Y-30435D01*
X88160Y-30435D02*
X87985Y-30610D01*
X87985Y-30610D02*
X86760Y-30610D01*
X86760Y-30610D02*
X85885Y-31485D01*
X85885Y-31485D02*
X83785Y-31485D01*
X83785Y-31485D02*
X83335Y-31035D01*
X79867Y-29452D02*
X79860Y-29460D01*
X79867Y-28885D02*
X79867Y-29452D01*
X88435Y-29560D02*
X88435Y-29260D01*
X83020Y-30720D02*
X83335Y-31035D01*
X81940Y-30720D02*
X83020Y-30720D01*
X81580Y-30360D02*
X81940Y-30720D01*
X88435Y-29260D02*
X87735Y-29260D01*
X87735Y-29260D02*
X87035Y-29260D01*
X89110Y-29260D02*
X88435Y-29260D01*
X88885Y-30268D02*
X88885Y-29659D01*
X89110Y-29435D02*
X89110Y-29260D01*
X88885Y-29659D02*
X89110Y-29435D01*
X83535Y-29085D02*
X83535Y-29660D01*
X83535Y-29660D02*
X83560Y-29685D01*
X86235Y-26860D02*
X86235Y-29635D01*
X86035Y-29835D02*
X85435Y-29835D01*
X86235Y-29635D02*
X86035Y-29835D01*
X86235Y-26860D02*
X87535Y-26860D01*
X87377Y-25010D02*
X86985Y-25010D01*
X86635Y-26435D02*
X86235Y-26435D01*
X86835Y-26235D02*
X86635Y-26435D01*
X86835Y-25160D02*
X86835Y-26235D01*
X86985Y-25010D02*
X86835Y-25160D01*
X85435Y-29835D02*
X85810Y-29835D01*
X86235Y-26860D02*
X86235Y-26435D01*
X85435Y-29835D02*
X85435Y-30410D01*
X85435Y-30410D02*
X85360Y-30485D01*
X85435Y-29235D02*
X84660Y-29235D01*
X85135Y-28560D02*
X85435Y-28560D01*
X85435Y-28560D02*
X85435Y-29235D01*
X86235Y-25260D02*
X86235Y-25835D01*
X84200Y-42820D02*
X84780Y-42820D01*
X96020Y-33800D02*
X96020Y-34600D01*
X96100Y-33720D02*
X96020Y-33800D01*
X85380Y-42220D02*
X86920Y-42220D01*
X84780Y-42820D02*
X85380Y-42220D01*
X96600Y-34400D02*
X96440Y-34400D01*
X96240Y-34600D02*
X96020Y-34600D01*
X96440Y-34400D02*
X96240Y-34600D01*
X96020Y-34600D02*
X96020Y-35350D01*
X96020Y-35350D02*
X96020Y-35740D01*
X96202Y-35922D02*
X96202Y-36850D01*
X96020Y-35740D02*
X96202Y-35922D01*
X79277Y-38942D02*
X79277Y-40065D01*
X80100Y-38120D02*
X79277Y-38942D01*
X84672Y-37332D02*
X85494Y-37332D01*
X83900Y-36560D02*
X84672Y-37332D01*
X83900Y-36140D02*
X83900Y-36560D01*
X84360Y-35680D02*
X83900Y-36140D01*
X79592Y-39527D02*
X79592Y-40065D01*
X80860Y-37500D02*
X80860Y-38260D01*
X80860Y-38260D02*
X79592Y-39527D01*
X85494Y-37151D02*
X85494Y-37142D01*
X84891Y-37151D02*
X85494Y-37151D01*
X84360Y-36620D02*
X84891Y-37151D01*
X84360Y-36300D02*
X84360Y-36620D01*
X87810Y-36320D02*
X87810Y-36590D01*
X87810Y-36590D02*
X87480Y-36920D01*
X87810Y-35594D02*
X87810Y-36320D01*
X90920Y-34860D02*
X91289Y-34860D01*
X90720Y-34660D02*
X90920Y-34860D01*
X90220Y-34660D02*
X90720Y-34660D01*
X90180Y-34700D02*
X90220Y-34660D01*
X91240Y-41660D02*
X90720Y-41660D01*
X93460Y-41660D02*
X91240Y-41660D01*
X98910Y-39850D02*
X99040Y-39980D01*
X99040Y-39980D02*
X99040Y-40580D01*
X99040Y-40580D02*
X98100Y-41540D01*
X94340Y-41540D02*
X94220Y-41660D01*
X94220Y-41660D02*
X93460Y-41660D01*
X98240Y-39850D02*
X98910Y-39850D01*
X88016Y-42416D02*
X88016Y-40846D01*
X88300Y-42700D02*
X88016Y-42416D01*
X89680Y-42700D02*
X88300Y-42700D01*
X90720Y-41660D02*
X89680Y-42700D01*
X99480Y-35120D02*
X99680Y-35120D01*
X98120Y-35320D02*
X98320Y-35120D01*
X98320Y-35120D02*
X99480Y-35120D01*
X98120Y-35340D02*
X98120Y-35320D01*
X99700Y-35100D02*
X101500Y-35100D01*
X99680Y-35120D02*
X99700Y-35100D01*
X96720Y-35650D02*
X96720Y-35420D01*
X98285Y-35445D02*
X98285Y-35780D01*
X98180Y-35340D02*
X98285Y-35445D01*
X96800Y-35340D02*
X98120Y-35340D01*
X98120Y-35340D02*
X98180Y-35340D01*
X96720Y-35420D02*
X96800Y-35340D01*
X96518Y-36850D02*
X96518Y-36202D01*
X96720Y-36000D02*
X96720Y-35650D01*
X96518Y-36202D02*
X96720Y-36000D01*
X101500Y-36100D02*
X100840Y-36100D01*
X100520Y-35780D02*
X99035Y-35780D01*
X100840Y-36100D02*
X100520Y-35780D01*
X97470Y-35650D02*
X97750Y-35650D01*
X99035Y-36145D02*
X99035Y-35780D01*
X98940Y-36240D02*
X99035Y-36145D01*
X98060Y-36240D02*
X98940Y-36240D01*
X97980Y-36160D02*
X98060Y-36240D01*
X97980Y-35880D02*
X97980Y-36160D01*
X97750Y-35650D02*
X97980Y-35880D01*
X96832Y-36850D02*
X96832Y-36188D01*
X97170Y-35650D02*
X97470Y-35650D01*
X97100Y-35720D02*
X97170Y-35650D01*
X97100Y-35920D02*
X97100Y-35720D01*
X96832Y-36188D02*
X97100Y-35920D01*
X89680Y-37040D02*
X89680Y-37780D01*
X89680Y-37780D02*
X89560Y-37900D01*
X89560Y-37900D02*
X89560Y-38280D01*
X89560Y-38280D02*
X89780Y-38500D01*
X88790Y-36150D02*
X89680Y-37040D01*
X88790Y-36150D02*
X88790Y-35594D01*
X96830Y-41470D02*
X96830Y-41870D01*
X90740Y-41940D02*
X89780Y-42900D01*
X89780Y-42900D02*
X88240Y-42900D01*
X88240Y-42900D02*
X87820Y-42480D01*
X87820Y-40846D02*
X87820Y-42480D01*
X93720Y-41940D02*
X91320Y-41940D01*
X96830Y-41470D02*
X96830Y-40630D01*
X91320Y-41940D02*
X90740Y-41940D01*
X94080Y-41940D02*
X93720Y-41940D01*
X94120Y-41980D02*
X94080Y-41940D01*
X96830Y-41870D02*
X96820Y-41880D01*
X87610Y-36220D02*
X87610Y-36290D01*
X87610Y-36290D02*
X87040Y-36860D01*
X87610Y-35594D02*
X87610Y-36220D01*
X91269Y-34360D02*
X91289Y-34380D01*
X89860Y-34360D02*
X91269Y-34360D01*
X89760Y-34460D02*
X89860Y-34360D01*
X76662Y-39617D02*
X76662Y-40125D01*
X77040Y-39240D02*
X76662Y-39617D01*
X77580Y-39240D02*
X77040Y-39240D01*
X81020Y-35800D02*
X77580Y-39240D01*
X84600Y-37900D02*
X84620Y-37900D01*
X83000Y-36300D02*
X84600Y-37900D01*
X81860Y-36300D02*
X83000Y-36300D01*
X84642Y-37922D02*
X85494Y-37922D01*
X84620Y-37900D02*
X84642Y-37922D01*
X76977Y-40125D02*
X76977Y-39782D01*
X77920Y-39640D02*
X80860Y-36700D01*
X77120Y-39640D02*
X77920Y-39640D01*
X76977Y-39782D02*
X77120Y-39640D01*
X83140Y-36100D02*
X83140Y-36185D01*
X84686Y-37732D02*
X85494Y-37732D01*
X83140Y-36185D02*
X84686Y-37732D01*
X80860Y-36700D02*
X80860Y-36500D01*
X82420Y-36100D02*
X83140Y-36100D01*
X82160Y-35840D02*
X82420Y-36100D01*
X81520Y-35840D02*
X81860Y-35840D01*
X81860Y-35840D02*
X82160Y-35840D01*
X80860Y-36500D02*
X81520Y-35840D01*
X77452Y-29029D02*
X77452Y-28552D01*
X77960Y-27300D02*
X78220Y-27300D01*
X77320Y-27940D02*
X77960Y-27300D01*
X77320Y-28420D02*
X77320Y-27940D01*
X77452Y-28552D02*
X77320Y-28420D01*
X78784Y-27477D02*
X78397Y-27477D01*
X76547Y-26012D02*
X76547Y-26590D01*
X76560Y-26000D02*
X76547Y-26012D01*
X78397Y-27477D02*
X78220Y-27300D01*
X75934Y-27307D02*
X76312Y-27307D01*
X76547Y-27072D02*
X76547Y-26590D01*
X76312Y-27307D02*
X76547Y-27072D01*
G54D43*
X78060Y-33300D02*
X77140Y-33300D01*
X74632Y-27307D02*
X75305Y-27307D01*
X74040Y-27900D02*
X74632Y-27307D01*
X74040Y-30200D02*
X74040Y-27900D01*
X77140Y-33300D02*
X74040Y-30200D01*
G54D42*
X77137Y-29029D02*
X77137Y-28617D01*
X77060Y-28120D02*
X76460Y-27520D01*
X77060Y-28540D02*
X77060Y-28120D01*
X77137Y-28617D02*
X77060Y-28540D01*
X78922Y-27034D02*
X78922Y-26802D01*
X76862Y-26277D02*
X76862Y-26590D01*
X76960Y-26180D02*
X76862Y-26277D01*
X78300Y-26180D02*
X76960Y-26180D01*
X78922Y-26802D02*
X78300Y-26180D01*
X75934Y-27622D02*
X76357Y-27622D01*
X76357Y-27622D02*
X76460Y-27520D01*
X76460Y-27520D02*
X76540Y-27440D01*
X76540Y-27440D02*
X76862Y-27117D01*
X76862Y-27117D02*
X76862Y-26590D01*
G54D43*
X80860Y-33500D02*
X80860Y-32820D01*
X74717Y-27622D02*
X75305Y-27622D01*
X74340Y-28000D02*
X74717Y-27622D01*
X74340Y-30100D02*
X74340Y-28000D01*
X75720Y-31480D02*
X74340Y-30100D01*
X79520Y-31480D02*
X75720Y-31480D01*
X80860Y-32820D02*
X79520Y-31480D01*
G54D42*
X78260Y-29740D02*
X76940Y-29740D01*
X76940Y-29740D02*
X76860Y-29820D01*
X77177Y-26590D02*
X77177Y-27422D01*
X76160Y-29860D02*
X76160Y-29960D01*
X75840Y-29540D02*
X76160Y-29860D01*
X77177Y-27422D02*
X77060Y-27540D01*
X78784Y-28442D02*
X78557Y-28442D01*
X76822Y-29422D02*
X76822Y-29029D01*
X76860Y-29820D02*
X76860Y-29460D01*
X76860Y-29460D02*
X76822Y-29422D01*
X76860Y-29880D02*
X76860Y-29820D01*
X76160Y-29960D02*
X76780Y-29960D01*
X76780Y-29960D02*
X76860Y-29880D01*
X78260Y-29440D02*
X78260Y-29740D01*
X78460Y-29240D02*
X78260Y-29440D01*
X78460Y-28540D02*
X78460Y-29240D01*
X78557Y-28442D02*
X78460Y-28540D01*
X75934Y-27937D02*
X76457Y-27937D01*
X76822Y-28302D02*
X76822Y-29029D01*
X76457Y-27937D02*
X76822Y-28302D01*
X80860Y-34300D02*
X80880Y-34300D01*
G54D43*
X74842Y-27937D02*
X75305Y-27937D01*
X74620Y-28160D02*
X74842Y-27937D01*
X74620Y-29940D02*
X74620Y-28160D01*
X75820Y-31140D02*
X74620Y-29940D01*
X79800Y-31140D02*
X75820Y-31140D01*
X81500Y-32840D02*
X79800Y-31140D01*
X81500Y-33680D02*
X81500Y-32840D01*
X80880Y-34300D02*
X81500Y-33680D01*
G54D42*
X77492Y-26590D02*
X77492Y-27132D01*
X77492Y-27132D02*
X77560Y-27200D01*
X78784Y-28127D02*
X78352Y-28127D01*
X76507Y-29612D02*
X76507Y-29029D01*
X76500Y-29620D02*
X76507Y-29612D01*
X78260Y-28220D02*
X77700Y-28220D01*
X78352Y-28127D02*
X78260Y-28220D01*
X75934Y-28252D02*
X76352Y-28252D01*
X76507Y-28407D02*
X76507Y-29029D01*
X76352Y-28252D02*
X76507Y-28407D01*
G54D43*
X74947Y-28252D02*
X75305Y-28252D01*
X74860Y-28340D02*
X74947Y-28252D01*
X74860Y-28700D02*
X74860Y-28340D01*
X75120Y-28960D02*
X74860Y-28700D01*
G54D42*
X82960Y-29685D02*
X82960Y-30135D01*
X83910Y-27310D02*
X83166Y-27310D01*
X84035Y-27435D02*
X83910Y-27310D01*
X84035Y-29960D02*
X84035Y-27435D01*
X83810Y-30185D02*
X84035Y-29960D01*
X83010Y-30185D02*
X83810Y-30185D01*
X82960Y-30135D02*
X83010Y-30185D01*
X80910Y-30460D02*
X80910Y-30410D01*
X78922Y-29072D02*
X78485Y-29510D01*
X78485Y-29510D02*
X78485Y-29885D01*
X78485Y-29885D02*
X79310Y-30610D01*
X79310Y-30610D02*
X80560Y-30610D01*
X80560Y-30610D02*
X80910Y-30460D01*
X78922Y-28885D02*
X78922Y-29072D01*
X80910Y-30410D02*
X82235Y-29085D01*
X82235Y-29085D02*
X82885Y-29085D01*
X82885Y-29085D02*
X82960Y-29160D01*
X82960Y-29160D02*
X82960Y-29685D01*
X76507Y-30250D02*
X76822Y-30250D01*
X76822Y-30250D02*
X77137Y-30250D01*
X77137Y-30250D02*
X77452Y-30250D01*
X77452Y-30250D02*
X77782Y-30580D01*
X77782Y-30580D02*
X78580Y-30580D01*
X78720Y-26020D02*
X78740Y-26000D01*
X78740Y-26000D02*
X79110Y-26000D01*
X82985Y-24510D02*
X80060Y-24510D01*
X79960Y-24610D02*
X79960Y-25060D01*
X80060Y-24510D02*
X79960Y-24610D01*
X79560Y-25610D02*
X79160Y-25610D01*
X79237Y-26612D02*
X79237Y-27034D01*
X79110Y-26485D02*
X79237Y-26612D01*
X79110Y-25660D02*
X79110Y-26000D01*
X79110Y-26000D02*
X79110Y-26485D01*
X79160Y-25610D02*
X79110Y-25660D01*
X79960Y-25060D02*
X79660Y-25060D01*
X79560Y-25160D02*
X79560Y-25610D01*
X79660Y-25060D02*
X79560Y-25160D01*
G54D44*
X91380Y-29520D02*
X90380Y-29520D01*
X90380Y-29520D02*
X89900Y-30000D01*
X89900Y-30000D02*
X89900Y-30300D01*
X94740Y-26160D02*
X91380Y-29520D01*
X94740Y-24990D02*
X94740Y-26160D01*
G54D42*
X89900Y-30000D02*
X89900Y-30300D01*
X89110Y-28250D02*
X89110Y-28660D01*
X89180Y-28180D02*
X89110Y-28250D01*
X89940Y-28180D02*
X89180Y-28180D01*
X90020Y-28260D02*
X89940Y-28180D01*
X77492Y-25369D02*
X78470Y-25369D01*
X79740Y-24100D02*
X81580Y-24100D01*
X78470Y-25369D02*
X79740Y-24100D01*
X76547Y-25369D02*
X76862Y-25369D01*
X76862Y-25369D02*
X77177Y-25369D01*
X77177Y-25369D02*
X77492Y-25369D01*
X87660Y-30033D02*
X86558Y-30033D01*
X86558Y-30033D02*
X86397Y-29872D01*
X87035Y-28660D02*
X87735Y-28660D01*
X87735Y-28660D02*
X88435Y-28660D01*
X88435Y-28660D02*
X89110Y-28660D01*
X87035Y-28660D02*
X86635Y-28660D01*
X82360Y-30485D02*
X81960Y-30085D01*
X83585Y-30485D02*
X82360Y-30485D01*
X84210Y-31110D02*
X83585Y-30485D01*
X85685Y-31110D02*
X84210Y-31110D01*
X85835Y-30960D02*
X85685Y-31110D01*
X85835Y-30435D02*
X85835Y-30960D01*
X86510Y-29760D02*
X86397Y-29872D01*
X86397Y-29872D02*
X85835Y-30435D01*
X86510Y-28785D02*
X86510Y-29760D01*
X86635Y-28660D02*
X86510Y-28785D01*
X78910Y-29710D02*
X78910Y-29760D01*
X80360Y-30360D02*
X81110Y-29610D01*
X79510Y-30360D02*
X80360Y-30360D01*
X78910Y-29760D02*
X79510Y-30360D01*
X81560Y-25610D02*
X80910Y-25610D01*
X81585Y-25635D02*
X81560Y-25610D01*
X81227Y-28127D02*
X80635Y-28127D01*
X81260Y-28160D02*
X81227Y-28127D01*
X81047Y-29547D02*
X80497Y-28885D01*
X81110Y-29610D02*
X81047Y-29547D01*
X78784Y-27792D02*
X78127Y-27792D01*
X79237Y-29382D02*
X79237Y-28885D01*
X78910Y-29710D02*
X79237Y-29382D01*
X78127Y-27792D02*
X78110Y-27810D01*
X80560Y-25060D02*
X80860Y-25060D01*
X80860Y-25060D02*
X80910Y-25110D01*
X80910Y-25110D02*
X80910Y-25610D01*
G54D10*
G36*
X84057Y-40370D02*
X84050Y-40370D01*
X84050Y-40377D01*
X83950Y-40377D01*
X83950Y-40370D01*
X83950Y-40270D01*
X83950Y-40092D01*
X83950Y-39907D01*
X83950Y-39730D01*
X83950Y-39630D01*
X83950Y-39432D01*
X83950Y-39267D01*
X83950Y-39070D01*
X83687Y-39070D01*
X83625Y-39132D01*
X83624Y-39195D01*
X83625Y-39294D01*
X83647Y-39350D01*
X83625Y-39405D01*
X83624Y-39504D01*
X83625Y-39567D01*
X83687Y-39630D01*
X83950Y-39630D01*
X83950Y-39730D01*
X83687Y-39730D01*
X83625Y-39792D01*
X83624Y-39855D01*
X83625Y-39954D01*
X83643Y-40000D01*
X83625Y-40045D01*
X83624Y-40144D01*
X83625Y-40207D01*
X83687Y-40270D01*
X83950Y-40270D01*
X83950Y-40370D01*
X83687Y-40370D01*
X83625Y-40432D01*
X83624Y-40495D01*
X83625Y-40570D01*
X83563Y-40570D01*
X83076Y-40083D01*
X82995Y-40029D01*
X82969Y-40023D01*
X82974Y-40018D01*
X83004Y-39944D01*
X83005Y-39865D01*
X83005Y-39415D01*
X82974Y-39341D01*
X82930Y-39297D01*
X82930Y-39283D01*
X83003Y-39210D01*
X83550Y-39210D01*
X83550Y-37203D01*
X83762Y-37415D01*
X83747Y-37421D01*
X83642Y-37527D01*
X83585Y-37665D01*
X83584Y-37814D01*
X83641Y-37952D01*
X83708Y-38018D01*
X83705Y-38021D01*
X83675Y-38095D01*
X83674Y-38174D01*
X83674Y-38624D01*
X83679Y-38636D01*
X83663Y-38653D01*
X83625Y-38745D01*
X83624Y-38844D01*
X83625Y-38907D01*
X83687Y-38970D01*
X83950Y-38970D01*
X83950Y-38962D01*
X84050Y-38962D01*
X84050Y-38970D01*
X84057Y-38970D01*
X84057Y-39060D01*
X84055Y-39070D01*
X84050Y-39070D01*
X84050Y-39100D01*
X84050Y-39267D01*
X84050Y-39432D01*
X84050Y-39630D01*
X84050Y-39730D01*
X84050Y-39907D01*
X84050Y-40092D01*
X84050Y-40270D01*
X84050Y-40280D01*
X84057Y-40319D01*
X84057Y-40370D01*
X84057Y-40370D01*
G37*
G54D42*
X84057Y-40370D02*
X84050Y-40370D01*
X84050Y-40377D01*
X83950Y-40377D01*
X83950Y-40370D01*
X83950Y-40270D01*
X83950Y-40092D01*
X83950Y-39907D01*
X83950Y-39730D01*
X83950Y-39630D01*
X83950Y-39432D01*
X83950Y-39267D01*
X83950Y-39070D01*
X83687Y-39070D01*
X83625Y-39132D01*
X83624Y-39195D01*
X83625Y-39294D01*
X83647Y-39350D01*
X83625Y-39405D01*
X83624Y-39504D01*
X83625Y-39567D01*
X83687Y-39630D01*
X83950Y-39630D01*
X83950Y-39730D01*
X83687Y-39730D01*
X83625Y-39792D01*
X83624Y-39855D01*
X83625Y-39954D01*
X83643Y-40000D01*
X83625Y-40045D01*
X83624Y-40144D01*
X83625Y-40207D01*
X83687Y-40270D01*
X83950Y-40270D01*
X83950Y-40370D01*
X83687Y-40370D01*
X83625Y-40432D01*
X83624Y-40495D01*
X83625Y-40570D01*
X83563Y-40570D01*
X83076Y-40083D01*
X82995Y-40029D01*
X82969Y-40023D01*
X82974Y-40018D01*
X83004Y-39944D01*
X83005Y-39865D01*
X83005Y-39415D01*
X82974Y-39341D01*
X82930Y-39297D01*
X82930Y-39283D01*
X83003Y-39210D01*
X83550Y-39210D01*
X83550Y-37203D01*
X83762Y-37415D01*
X83747Y-37421D01*
X83642Y-37527D01*
X83585Y-37665D01*
X83584Y-37814D01*
X83641Y-37952D01*
X83708Y-38018D01*
X83705Y-38021D01*
X83675Y-38095D01*
X83674Y-38174D01*
X83674Y-38624D01*
X83679Y-38636D01*
X83663Y-38653D01*
X83625Y-38745D01*
X83624Y-38844D01*
X83625Y-38907D01*
X83687Y-38970D01*
X83950Y-38970D01*
X83950Y-38962D01*
X84050Y-38962D01*
X84050Y-38970D01*
X84057Y-38970D01*
X84057Y-39060D01*
X84055Y-39070D01*
X84050Y-39070D01*
X84050Y-39100D01*
X84050Y-39267D01*
X84050Y-39432D01*
X84050Y-39630D01*
X84050Y-39730D01*
X84050Y-39907D01*
X84050Y-40092D01*
X84050Y-40270D01*
X84050Y-40280D01*
X84057Y-40319D01*
X84057Y-40370D01*
G54D10*
G36*
X85544Y-40142D02*
X85444Y-40142D01*
X85444Y-40129D01*
X85444Y-40117D01*
X85444Y-40067D01*
X85444Y-40042D01*
X85544Y-40042D01*
X85544Y-40067D01*
X85544Y-40117D01*
X85544Y-40129D01*
X85544Y-40142D01*
X85544Y-40142D01*
G37*
G54D42*
X85544Y-40142D02*
X85444Y-40142D01*
X85444Y-40129D01*
X85444Y-40117D01*
X85444Y-40067D01*
X85444Y-40042D01*
X85544Y-40042D01*
X85544Y-40067D01*
X85544Y-40117D01*
X85544Y-40129D01*
X85544Y-40142D01*
G54D10*
G36*
X86315Y-33713D02*
X86294Y-33705D01*
X86195Y-33704D01*
X86132Y-33705D01*
X86070Y-33767D01*
X86070Y-34030D01*
X86077Y-34030D01*
X86077Y-34130D01*
X86070Y-34130D01*
X86070Y-34137D01*
X85970Y-34137D01*
X85970Y-34130D01*
X85962Y-34130D01*
X85962Y-34030D01*
X85970Y-34030D01*
X85970Y-33767D01*
X85907Y-33705D01*
X85844Y-33704D01*
X85817Y-33704D01*
X85816Y-33703D01*
X85716Y-33603D01*
X85685Y-33582D01*
X85685Y-33565D01*
X85685Y-33437D01*
X85701Y-33454D01*
X85775Y-33484D01*
X85854Y-33485D01*
X86294Y-33485D01*
X86294Y-33664D01*
X86315Y-33713D01*
X86315Y-33713D01*
G37*
G54D42*
X86315Y-33713D02*
X86294Y-33705D01*
X86195Y-33704D01*
X86132Y-33705D01*
X86070Y-33767D01*
X86070Y-34030D01*
X86077Y-34030D01*
X86077Y-34130D01*
X86070Y-34130D01*
X86070Y-34137D01*
X85970Y-34137D01*
X85970Y-34130D01*
X85962Y-34130D01*
X85962Y-34030D01*
X85970Y-34030D01*
X85970Y-33767D01*
X85907Y-33705D01*
X85844Y-33704D01*
X85817Y-33704D01*
X85816Y-33703D01*
X85716Y-33603D01*
X85685Y-33582D01*
X85685Y-33565D01*
X85685Y-33437D01*
X85701Y-33454D01*
X85775Y-33484D01*
X85854Y-33485D01*
X86294Y-33485D01*
X86294Y-33664D01*
X86315Y-33713D01*
G54D10*
G36*
X87056Y-36030D02*
X85963Y-37123D01*
X85963Y-37123D01*
X85930Y-37156D01*
X85930Y-37152D01*
X85930Y-37145D01*
X85942Y-37133D01*
X85980Y-37041D01*
X85980Y-37029D01*
X85917Y-36967D01*
X85887Y-36967D01*
X85862Y-36941D01*
X85887Y-36917D01*
X85917Y-36917D01*
X85980Y-36854D01*
X85980Y-36842D01*
X85942Y-36750D01*
X85930Y-36738D01*
X85930Y-36652D01*
X85927Y-36647D01*
X85929Y-36641D01*
X85930Y-36562D01*
X85930Y-36462D01*
X85925Y-36452D01*
X85929Y-36441D01*
X85930Y-36362D01*
X85930Y-36262D01*
X85899Y-36188D01*
X85843Y-36132D01*
X85769Y-36102D01*
X85690Y-36101D01*
X85218Y-36101D01*
X85218Y-36102D01*
X85210Y-36102D01*
X85210Y-35303D01*
X85243Y-35270D01*
X86009Y-35270D01*
X85990Y-35318D01*
X85989Y-35397D01*
X85989Y-35869D01*
X86020Y-35943D01*
X86076Y-35999D01*
X86150Y-36029D01*
X86229Y-36030D01*
X86329Y-36030D01*
X86334Y-36027D01*
X86340Y-36029D01*
X86419Y-36030D01*
X86519Y-36030D01*
X86529Y-36025D01*
X86540Y-36029D01*
X86619Y-36030D01*
X86626Y-36030D01*
X86638Y-36042D01*
X86730Y-36080D01*
X86742Y-36080D01*
X86805Y-36017D01*
X86805Y-35987D01*
X86825Y-35967D01*
X86855Y-35997D01*
X86855Y-36017D01*
X86917Y-36080D01*
X86929Y-36080D01*
X87021Y-36042D01*
X87033Y-36030D01*
X87056Y-36030D01*
X87056Y-36030D01*
G37*
G54D42*
X87056Y-36030D02*
X85963Y-37123D01*
X85963Y-37123D01*
X85930Y-37156D01*
X85930Y-37152D01*
X85930Y-37145D01*
X85942Y-37133D01*
X85980Y-37041D01*
X85980Y-37029D01*
X85917Y-36967D01*
X85887Y-36967D01*
X85862Y-36941D01*
X85887Y-36917D01*
X85917Y-36917D01*
X85980Y-36854D01*
X85980Y-36842D01*
X85942Y-36750D01*
X85930Y-36738D01*
X85930Y-36652D01*
X85927Y-36647D01*
X85929Y-36641D01*
X85930Y-36562D01*
X85930Y-36462D01*
X85925Y-36452D01*
X85929Y-36441D01*
X85930Y-36362D01*
X85930Y-36262D01*
X85899Y-36188D01*
X85843Y-36132D01*
X85769Y-36102D01*
X85690Y-36101D01*
X85218Y-36101D01*
X85218Y-36102D01*
X85210Y-36102D01*
X85210Y-35303D01*
X85243Y-35270D01*
X86009Y-35270D01*
X85990Y-35318D01*
X85989Y-35397D01*
X85989Y-35869D01*
X86020Y-35943D01*
X86076Y-35999D01*
X86150Y-36029D01*
X86229Y-36030D01*
X86329Y-36030D01*
X86334Y-36027D01*
X86340Y-36029D01*
X86419Y-36030D01*
X86519Y-36030D01*
X86529Y-36025D01*
X86540Y-36029D01*
X86619Y-36030D01*
X86626Y-36030D01*
X86638Y-36042D01*
X86730Y-36080D01*
X86742Y-36080D01*
X86805Y-36017D01*
X86805Y-35987D01*
X86825Y-35967D01*
X86855Y-35997D01*
X86855Y-36017D01*
X86917Y-36080D01*
X86929Y-36080D01*
X87021Y-36042D01*
X87033Y-36030D01*
X87056Y-36030D01*
G54D10*
G36*
X87106Y-38719D02*
X86964Y-38862D01*
X85980Y-38862D01*
X85980Y-38861D01*
X85959Y-38861D01*
X85970Y-38833D01*
X85980Y-38824D01*
X85980Y-38812D01*
X85979Y-38812D01*
X85980Y-38811D01*
X85980Y-38799D01*
X85970Y-38790D01*
X85942Y-38720D01*
X85908Y-38687D01*
X85917Y-38687D01*
X85980Y-38624D01*
X85980Y-38612D01*
X85963Y-38572D01*
X86958Y-38572D01*
X87106Y-38719D01*
X87106Y-38719D01*
G37*
G54D42*
X87106Y-38719D02*
X86964Y-38862D01*
X85980Y-38862D01*
X85980Y-38861D01*
X85959Y-38861D01*
X85970Y-38833D01*
X85980Y-38824D01*
X85980Y-38812D01*
X85979Y-38812D01*
X85980Y-38811D01*
X85980Y-38799D01*
X85970Y-38790D01*
X85942Y-38720D01*
X85908Y-38687D01*
X85917Y-38687D01*
X85980Y-38624D01*
X85980Y-38612D01*
X85963Y-38572D01*
X86958Y-38572D01*
X87106Y-38719D01*
G54D10*
G36*
X87661Y-39274D02*
X87547Y-39321D01*
X87442Y-39427D01*
X87385Y-39565D01*
X87384Y-39661D01*
X87176Y-39870D01*
X86240Y-39870D01*
X86144Y-39889D01*
X86063Y-39943D01*
X85964Y-40041D01*
X85959Y-40041D01*
X85970Y-40013D01*
X85980Y-40004D01*
X85980Y-39992D01*
X85979Y-39992D01*
X85980Y-39991D01*
X85980Y-39979D01*
X85970Y-39970D01*
X85942Y-39900D01*
X85908Y-39867D01*
X85917Y-39867D01*
X85980Y-39804D01*
X85980Y-39792D01*
X85942Y-39700D01*
X85938Y-39697D01*
X85942Y-39693D01*
X85980Y-39601D01*
X85980Y-39589D01*
X85917Y-39527D01*
X85887Y-39527D01*
X85862Y-39501D01*
X85887Y-39477D01*
X85917Y-39477D01*
X85980Y-39414D01*
X85980Y-39402D01*
X85963Y-39362D01*
X87068Y-39362D01*
X87163Y-39342D01*
X87244Y-39288D01*
X87460Y-39073D01*
X87661Y-39274D01*
X87661Y-39274D01*
G37*
G54D42*
X87661Y-39274D02*
X87547Y-39321D01*
X87442Y-39427D01*
X87385Y-39565D01*
X87384Y-39661D01*
X87176Y-39870D01*
X86240Y-39870D01*
X86144Y-39889D01*
X86063Y-39943D01*
X85964Y-40041D01*
X85959Y-40041D01*
X85970Y-40013D01*
X85980Y-40004D01*
X85980Y-39992D01*
X85979Y-39992D01*
X85980Y-39991D01*
X85980Y-39979D01*
X85970Y-39970D01*
X85942Y-39900D01*
X85908Y-39867D01*
X85917Y-39867D01*
X85980Y-39804D01*
X85980Y-39792D01*
X85942Y-39700D01*
X85938Y-39697D01*
X85942Y-39693D01*
X85980Y-39601D01*
X85980Y-39589D01*
X85917Y-39527D01*
X85887Y-39527D01*
X85862Y-39501D01*
X85887Y-39477D01*
X85917Y-39477D01*
X85980Y-39414D01*
X85980Y-39402D01*
X85963Y-39362D01*
X87068Y-39362D01*
X87163Y-39342D01*
X87244Y-39288D01*
X87460Y-39073D01*
X87661Y-39274D01*
G54D10*
G36*
X88356Y-40393D02*
X88322Y-40360D01*
X88310Y-40359D01*
X88218Y-40397D01*
X88206Y-40409D01*
X88122Y-40409D01*
X88114Y-40413D01*
X88105Y-40410D01*
X88026Y-40409D01*
X87926Y-40409D01*
X87918Y-40413D01*
X87909Y-40410D01*
X87830Y-40409D01*
X87730Y-40409D01*
X87720Y-40414D01*
X87709Y-40410D01*
X87630Y-40409D01*
X87530Y-40409D01*
X87522Y-40413D01*
X87513Y-40410D01*
X87434Y-40409D01*
X87431Y-40409D01*
X87419Y-40397D01*
X87328Y-40360D01*
X87375Y-40350D01*
X87456Y-40296D01*
X87738Y-40014D01*
X87834Y-40015D01*
X87972Y-39958D01*
X88077Y-39852D01*
X88125Y-39738D01*
X88356Y-39969D01*
X88356Y-40180D01*
X88356Y-40393D01*
X88356Y-40393D01*
G37*
G54D42*
X88356Y-40393D02*
X88322Y-40360D01*
X88310Y-40359D01*
X88218Y-40397D01*
X88206Y-40409D01*
X88122Y-40409D01*
X88114Y-40413D01*
X88105Y-40410D01*
X88026Y-40409D01*
X87926Y-40409D01*
X87918Y-40413D01*
X87909Y-40410D01*
X87830Y-40409D01*
X87730Y-40409D01*
X87720Y-40414D01*
X87709Y-40410D01*
X87630Y-40409D01*
X87530Y-40409D01*
X87522Y-40413D01*
X87513Y-40410D01*
X87434Y-40409D01*
X87431Y-40409D01*
X87419Y-40397D01*
X87328Y-40360D01*
X87375Y-40350D01*
X87456Y-40296D01*
X87738Y-40014D01*
X87834Y-40015D01*
X87972Y-39958D01*
X88077Y-39852D01*
X88125Y-39738D01*
X88356Y-39969D01*
X88356Y-40180D01*
X88356Y-40393D01*
G54D10*
G36*
X88510Y-39219D02*
X88442Y-39287D01*
X88424Y-39330D01*
X87636Y-38543D01*
X87636Y-38543D01*
X87238Y-38145D01*
X87157Y-38091D01*
X87062Y-38072D01*
X85980Y-38072D01*
X85980Y-38071D01*
X85942Y-38071D01*
X85980Y-38034D01*
X85980Y-38022D01*
X85942Y-37930D01*
X85930Y-37918D01*
X85930Y-37832D01*
X85927Y-37827D01*
X85929Y-37821D01*
X85930Y-37777D01*
X85972Y-37769D01*
X85981Y-37792D01*
X86087Y-37897D01*
X86225Y-37954D01*
X86374Y-37955D01*
X86512Y-37898D01*
X86617Y-37792D01*
X86674Y-37654D01*
X86675Y-37505D01*
X86618Y-37367D01*
X86521Y-37271D01*
X86721Y-37071D01*
X86721Y-37072D01*
X86827Y-37177D01*
X86844Y-37184D01*
X86782Y-37247D01*
X86725Y-37385D01*
X86724Y-37534D01*
X86781Y-37672D01*
X86887Y-37777D01*
X87025Y-37834D01*
X87121Y-37835D01*
X87443Y-38156D01*
X87524Y-38210D01*
X87524Y-38210D01*
X87620Y-38230D01*
X88096Y-38230D01*
X88510Y-38643D01*
X88510Y-39120D01*
X88510Y-39219D01*
X88510Y-39219D01*
G37*
G54D42*
X88510Y-39219D02*
X88442Y-39287D01*
X88424Y-39330D01*
X87636Y-38543D01*
X87636Y-38543D01*
X87238Y-38145D01*
X87157Y-38091D01*
X87062Y-38072D01*
X85980Y-38072D01*
X85980Y-38071D01*
X85942Y-38071D01*
X85980Y-38034D01*
X85980Y-38022D01*
X85942Y-37930D01*
X85930Y-37918D01*
X85930Y-37832D01*
X85927Y-37827D01*
X85929Y-37821D01*
X85930Y-37777D01*
X85972Y-37769D01*
X85981Y-37792D01*
X86087Y-37897D01*
X86225Y-37954D01*
X86374Y-37955D01*
X86512Y-37898D01*
X86617Y-37792D01*
X86674Y-37654D01*
X86675Y-37505D01*
X86618Y-37367D01*
X86521Y-37271D01*
X86721Y-37071D01*
X86721Y-37072D01*
X86827Y-37177D01*
X86844Y-37184D01*
X86782Y-37247D01*
X86725Y-37385D01*
X86724Y-37534D01*
X86781Y-37672D01*
X86887Y-37777D01*
X87025Y-37834D01*
X87121Y-37835D01*
X87443Y-38156D01*
X87524Y-38210D01*
X87524Y-38210D01*
X87620Y-38230D01*
X88096Y-38230D01*
X88510Y-38643D01*
X88510Y-39120D01*
X88510Y-39219D01*
G54D10*
G36*
X89157Y-34390D02*
X89150Y-34390D01*
X89150Y-34397D01*
X89050Y-34397D01*
X89050Y-34390D01*
X88687Y-34390D01*
X88667Y-34410D01*
X88410Y-34410D01*
X88410Y-34417D01*
X88310Y-34417D01*
X88310Y-34410D01*
X88302Y-34410D01*
X88302Y-34310D01*
X88310Y-34310D01*
X88310Y-34302D01*
X88410Y-34302D01*
X88410Y-34310D01*
X88772Y-34310D01*
X88792Y-34290D01*
X89050Y-34290D01*
X89050Y-34282D01*
X89150Y-34282D01*
X89150Y-34290D01*
X89157Y-34290D01*
X89157Y-34390D01*
X89157Y-34390D01*
G37*
G54D42*
X89157Y-34390D02*
X89150Y-34390D01*
X89150Y-34397D01*
X89050Y-34397D01*
X89050Y-34390D01*
X88687Y-34390D01*
X88667Y-34410D01*
X88410Y-34410D01*
X88410Y-34417D01*
X88310Y-34417D01*
X88310Y-34410D01*
X88302Y-34410D01*
X88302Y-34310D01*
X88310Y-34310D01*
X88310Y-34302D01*
X88410Y-34302D01*
X88410Y-34310D01*
X88772Y-34310D01*
X88792Y-34290D01*
X89050Y-34290D01*
X89050Y-34282D01*
X89150Y-34282D01*
X89150Y-34290D01*
X89157Y-34290D01*
X89157Y-34390D01*
G54D10*
G36*
X89430Y-37676D02*
X89383Y-37723D01*
X89350Y-37772D01*
X89350Y-37500D01*
X89349Y-37499D01*
X89350Y-37499D01*
X89346Y-37480D01*
X89330Y-37404D01*
X89330Y-37404D01*
X89276Y-37323D01*
X89276Y-37323D01*
X88650Y-36696D01*
X88650Y-36363D01*
X89430Y-37143D01*
X89430Y-37676D01*
X89430Y-37676D01*
G37*
G54D42*
X89430Y-37676D02*
X89383Y-37723D01*
X89350Y-37772D01*
X89350Y-37500D01*
X89349Y-37499D01*
X89350Y-37499D01*
X89346Y-37480D01*
X89330Y-37404D01*
X89330Y-37404D01*
X89276Y-37323D01*
X89276Y-37323D01*
X88650Y-36696D01*
X88650Y-36363D01*
X89430Y-37143D01*
X89430Y-37676D01*
G54D10*
G36*
X89440Y-35644D02*
X89427Y-35644D01*
X89415Y-35644D01*
X89365Y-35644D01*
X89342Y-35644D01*
X89340Y-35644D01*
X89340Y-35544D01*
X89342Y-35544D01*
X89365Y-35544D01*
X89415Y-35544D01*
X89427Y-35544D01*
X89440Y-35544D01*
X89440Y-35644D01*
X89440Y-35644D01*
G37*
G54D42*
X89440Y-35644D02*
X89427Y-35644D01*
X89415Y-35644D01*
X89365Y-35644D01*
X89342Y-35644D01*
X89340Y-35644D01*
X89340Y-35544D01*
X89342Y-35544D01*
X89365Y-35544D01*
X89415Y-35544D01*
X89427Y-35544D01*
X89440Y-35544D01*
X89440Y-35644D01*
G54D10*
G36*
X89837Y-41610D02*
X89830Y-41610D01*
X89830Y-41617D01*
X89730Y-41617D01*
X89730Y-41610D01*
X89722Y-41610D01*
X89722Y-41510D01*
X89730Y-41510D01*
X89730Y-41502D01*
X89830Y-41502D01*
X89830Y-41510D01*
X89837Y-41510D01*
X89837Y-41610D01*
X89837Y-41610D01*
G37*
G54D42*
X89837Y-41610D02*
X89830Y-41610D01*
X89830Y-41617D01*
X89730Y-41617D01*
X89730Y-41610D01*
X89722Y-41610D01*
X89722Y-41510D01*
X89730Y-41510D01*
X89730Y-41502D01*
X89830Y-41502D01*
X89830Y-41510D01*
X89837Y-41510D01*
X89837Y-41610D01*
G54D10*
G36*
X90229Y-35259D02*
X90212Y-35276D01*
X90199Y-35244D01*
X90143Y-35188D01*
X90069Y-35158D01*
X89990Y-35157D01*
X89890Y-35157D01*
X89880Y-35162D01*
X89869Y-35158D01*
X89790Y-35157D01*
X89783Y-35157D01*
X89771Y-35145D01*
X89679Y-35107D01*
X89667Y-35108D01*
X89605Y-35169D01*
X89581Y-35145D01*
X89518Y-35120D01*
X89524Y-35104D01*
X89525Y-35025D01*
X89525Y-34775D01*
X89510Y-34741D01*
X89547Y-34777D01*
X89685Y-34834D01*
X89830Y-34835D01*
X89861Y-34912D01*
X89967Y-35017D01*
X90105Y-35074D01*
X90144Y-35074D01*
X90144Y-35094D01*
X90201Y-35232D01*
X90229Y-35259D01*
X90229Y-35259D01*
G37*
G54D42*
X90229Y-35259D02*
X90212Y-35276D01*
X90199Y-35244D01*
X90143Y-35188D01*
X90069Y-35158D01*
X89990Y-35157D01*
X89890Y-35157D01*
X89880Y-35162D01*
X89869Y-35158D01*
X89790Y-35157D01*
X89783Y-35157D01*
X89771Y-35145D01*
X89679Y-35107D01*
X89667Y-35108D01*
X89605Y-35169D01*
X89581Y-35145D01*
X89518Y-35120D01*
X89524Y-35104D01*
X89525Y-35025D01*
X89525Y-34775D01*
X89510Y-34741D01*
X89547Y-34777D01*
X89685Y-34834D01*
X89830Y-34835D01*
X89861Y-34912D01*
X89967Y-35017D01*
X90105Y-35074D01*
X90144Y-35074D01*
X90144Y-35094D01*
X90201Y-35232D01*
X90229Y-35259D01*
G54D10*
G36*
X90782Y-39160D02*
X90682Y-39160D01*
X90682Y-39151D01*
X90682Y-39135D01*
X90682Y-39085D01*
X90682Y-39068D01*
X90682Y-38953D01*
X90682Y-38939D01*
X90682Y-38889D01*
X90682Y-38872D01*
X90682Y-38757D01*
X90682Y-38741D01*
X90682Y-38691D01*
X90682Y-38676D01*
X90682Y-38559D01*
X90682Y-38545D01*
X90682Y-38495D01*
X90682Y-38478D01*
X90682Y-38363D01*
X90682Y-38347D01*
X90682Y-38297D01*
X90682Y-38282D01*
X90682Y-38165D01*
X90682Y-38151D01*
X90682Y-38101D01*
X90682Y-38084D01*
X90682Y-37969D01*
X90682Y-37953D01*
X90682Y-37903D01*
X90682Y-37888D01*
X90682Y-37773D01*
X90682Y-37757D01*
X90682Y-37707D01*
X90682Y-37690D01*
X90682Y-37682D01*
X90782Y-37682D01*
X90782Y-37690D01*
X90782Y-37707D01*
X90782Y-37757D01*
X90782Y-37773D01*
X90782Y-37888D01*
X90782Y-37903D01*
X90782Y-37953D01*
X90782Y-37969D01*
X90782Y-38084D01*
X90782Y-38101D01*
X90782Y-38151D01*
X90782Y-38165D01*
X90782Y-38282D01*
X90782Y-38297D01*
X90782Y-38347D01*
X90782Y-38363D01*
X90782Y-38478D01*
X90782Y-38495D01*
X90782Y-38545D01*
X90782Y-38559D01*
X90782Y-38676D01*
X90782Y-38691D01*
X90782Y-38741D01*
X90782Y-38757D01*
X90782Y-38872D01*
X90782Y-38889D01*
X90782Y-38939D01*
X90782Y-38953D01*
X90782Y-39068D01*
X90782Y-39085D01*
X90782Y-39135D01*
X90782Y-39151D01*
X90782Y-39160D01*
X90782Y-39160D01*
G37*
G54D42*
X90782Y-39160D02*
X90682Y-39160D01*
X90682Y-39151D01*
X90682Y-39135D01*
X90682Y-39085D01*
X90682Y-39068D01*
X90682Y-38953D01*
X90682Y-38939D01*
X90682Y-38889D01*
X90682Y-38872D01*
X90682Y-38757D01*
X90682Y-38741D01*
X90682Y-38691D01*
X90682Y-38676D01*
X90682Y-38559D01*
X90682Y-38545D01*
X90682Y-38495D01*
X90682Y-38478D01*
X90682Y-38363D01*
X90682Y-38347D01*
X90682Y-38297D01*
X90682Y-38282D01*
X90682Y-38165D01*
X90682Y-38151D01*
X90682Y-38101D01*
X90682Y-38084D01*
X90682Y-37969D01*
X90682Y-37953D01*
X90682Y-37903D01*
X90682Y-37888D01*
X90682Y-37773D01*
X90682Y-37757D01*
X90682Y-37707D01*
X90682Y-37690D01*
X90682Y-37682D01*
X90782Y-37682D01*
X90782Y-37690D01*
X90782Y-37707D01*
X90782Y-37757D01*
X90782Y-37773D01*
X90782Y-37888D01*
X90782Y-37903D01*
X90782Y-37953D01*
X90782Y-37969D01*
X90782Y-38084D01*
X90782Y-38101D01*
X90782Y-38151D01*
X90782Y-38165D01*
X90782Y-38282D01*
X90782Y-38297D01*
X90782Y-38347D01*
X90782Y-38363D01*
X90782Y-38478D01*
X90782Y-38495D01*
X90782Y-38545D01*
X90782Y-38559D01*
X90782Y-38676D01*
X90782Y-38691D01*
X90782Y-38741D01*
X90782Y-38757D01*
X90782Y-38872D01*
X90782Y-38889D01*
X90782Y-38939D01*
X90782Y-38953D01*
X90782Y-39068D01*
X90782Y-39085D01*
X90782Y-39135D01*
X90782Y-39151D01*
X90782Y-39160D01*
G54D10*
G36*
X90975Y-36104D02*
X90928Y-36103D01*
X90456Y-36103D01*
X90382Y-36134D01*
X90326Y-36190D01*
X90296Y-36264D01*
X90295Y-36343D01*
X90295Y-36443D01*
X90299Y-36451D01*
X90296Y-36460D01*
X90295Y-36539D01*
X90295Y-36639D01*
X90299Y-36648D01*
X90296Y-36658D01*
X90295Y-36705D01*
X90260Y-36713D01*
X90179Y-36767D01*
X90179Y-36767D01*
X90119Y-36827D01*
X90076Y-36763D01*
X89656Y-36343D01*
X89393Y-36080D01*
X89440Y-36080D01*
X89440Y-36063D01*
X89475Y-36077D01*
X89477Y-36080D01*
X89480Y-36080D01*
X89480Y-36080D01*
X89485Y-36080D01*
X89489Y-36080D01*
X89489Y-36080D01*
X89492Y-36080D01*
X89494Y-36077D01*
X89581Y-36042D01*
X89605Y-36018D01*
X89667Y-36080D01*
X89679Y-36080D01*
X89771Y-36042D01*
X89783Y-36030D01*
X89869Y-36030D01*
X89879Y-36025D01*
X89890Y-36029D01*
X89969Y-36030D01*
X90069Y-36030D01*
X90143Y-35999D01*
X90199Y-35943D01*
X90229Y-35869D01*
X90230Y-35820D01*
X90267Y-35857D01*
X90405Y-35914D01*
X90501Y-35915D01*
X90583Y-35996D01*
X90583Y-35996D01*
X90664Y-36050D01*
X90664Y-36050D01*
X90760Y-36070D01*
X90954Y-36070D01*
X90962Y-36090D01*
X90975Y-36104D01*
X90975Y-36104D01*
G37*
G54D42*
X90975Y-36104D02*
X90928Y-36103D01*
X90456Y-36103D01*
X90382Y-36134D01*
X90326Y-36190D01*
X90296Y-36264D01*
X90295Y-36343D01*
X90295Y-36443D01*
X90299Y-36451D01*
X90296Y-36460D01*
X90295Y-36539D01*
X90295Y-36639D01*
X90299Y-36648D01*
X90296Y-36658D01*
X90295Y-36705D01*
X90260Y-36713D01*
X90179Y-36767D01*
X90179Y-36767D01*
X90119Y-36827D01*
X90076Y-36763D01*
X89656Y-36343D01*
X89393Y-36080D01*
X89440Y-36080D01*
X89440Y-36063D01*
X89475Y-36077D01*
X89477Y-36080D01*
X89480Y-36080D01*
X89480Y-36080D01*
X89485Y-36080D01*
X89489Y-36080D01*
X89489Y-36080D01*
X89492Y-36080D01*
X89494Y-36077D01*
X89581Y-36042D01*
X89605Y-36018D01*
X89667Y-36080D01*
X89679Y-36080D01*
X89771Y-36042D01*
X89783Y-36030D01*
X89869Y-36030D01*
X89879Y-36025D01*
X89890Y-36029D01*
X89969Y-36030D01*
X90069Y-36030D01*
X90143Y-35999D01*
X90199Y-35943D01*
X90229Y-35869D01*
X90230Y-35820D01*
X90267Y-35857D01*
X90405Y-35914D01*
X90501Y-35915D01*
X90583Y-35996D01*
X90583Y-35996D01*
X90664Y-36050D01*
X90664Y-36050D01*
X90760Y-36070D01*
X90954Y-36070D01*
X90962Y-36090D01*
X90975Y-36104D01*
G54D10*
G36*
X91225Y-40446D02*
X90155Y-41516D01*
X90155Y-41509D01*
X90092Y-41509D01*
X90155Y-41447D01*
X90155Y-41384D01*
X90154Y-41302D01*
X90175Y-41294D01*
X90245Y-41223D01*
X90283Y-41131D01*
X90284Y-41032D01*
X90284Y-40958D01*
X90221Y-40896D01*
X90025Y-40896D01*
X90009Y-40896D01*
X89959Y-40896D01*
X89827Y-40896D01*
X89813Y-40896D01*
X89763Y-40896D01*
X89746Y-40896D01*
X89631Y-40896D01*
X89615Y-40896D01*
X89565Y-40896D01*
X89550Y-40896D01*
X89433Y-40896D01*
X89419Y-40896D01*
X89369Y-40896D01*
X89352Y-40896D01*
X89237Y-40896D01*
X89221Y-40896D01*
X89171Y-40896D01*
X89156Y-40896D01*
X89041Y-40896D01*
X89025Y-40896D01*
X88975Y-40896D01*
X88958Y-40896D01*
X88950Y-40896D01*
X88950Y-40796D01*
X88958Y-40796D01*
X88975Y-40796D01*
X89025Y-40796D01*
X89041Y-40796D01*
X89156Y-40796D01*
X89171Y-40796D01*
X89221Y-40796D01*
X89237Y-40796D01*
X89352Y-40796D01*
X89369Y-40796D01*
X89419Y-40796D01*
X89433Y-40796D01*
X89550Y-40796D01*
X89565Y-40796D01*
X89615Y-40796D01*
X89631Y-40796D01*
X89746Y-40796D01*
X89763Y-40796D01*
X89813Y-40796D01*
X89827Y-40796D01*
X89959Y-40796D01*
X90009Y-40796D01*
X90025Y-40796D01*
X90221Y-40796D01*
X90284Y-40733D01*
X90284Y-40659D01*
X90283Y-40560D01*
X90245Y-40468D01*
X90175Y-40397D01*
X90083Y-40359D01*
X90071Y-40360D01*
X90009Y-40422D01*
X90009Y-40427D01*
X89979Y-40397D01*
X89902Y-40366D01*
X89896Y-40360D01*
X89887Y-40359D01*
X89887Y-40359D01*
X89886Y-40359D01*
X89884Y-40359D01*
X89884Y-40359D01*
X89875Y-40360D01*
X89869Y-40366D01*
X89792Y-40397D01*
X89787Y-40403D01*
X89781Y-40397D01*
X89708Y-40367D01*
X89700Y-40360D01*
X89689Y-40359D01*
X89689Y-40359D01*
X89689Y-40359D01*
X89688Y-40359D01*
X89688Y-40359D01*
X89677Y-40360D01*
X89669Y-40367D01*
X89596Y-40397D01*
X89591Y-40403D01*
X89585Y-40397D01*
X89508Y-40366D01*
X89502Y-40360D01*
X89493Y-40359D01*
X89493Y-40359D01*
X89492Y-40359D01*
X89490Y-40359D01*
X89490Y-40359D01*
X89481Y-40360D01*
X89475Y-40366D01*
X89398Y-40397D01*
X89393Y-40403D01*
X89387Y-40397D01*
X89314Y-40367D01*
X89306Y-40360D01*
X89295Y-40359D01*
X89295Y-40359D01*
X89295Y-40359D01*
X89294Y-40359D01*
X89294Y-40359D01*
X89283Y-40360D01*
X89275Y-40367D01*
X89202Y-40397D01*
X89197Y-40403D01*
X89191Y-40397D01*
X89114Y-40366D01*
X89108Y-40360D01*
X89099Y-40359D01*
X89099Y-40359D01*
X89098Y-40359D01*
X89096Y-40359D01*
X89096Y-40359D01*
X89087Y-40360D01*
X89081Y-40366D01*
X89050Y-40379D01*
X89050Y-40360D01*
X89031Y-40360D01*
X89036Y-40356D01*
X89078Y-40314D01*
X89174Y-40315D01*
X89312Y-40258D01*
X89417Y-40152D01*
X89474Y-40014D01*
X89475Y-39865D01*
X89428Y-39754D01*
X90264Y-39754D01*
X90253Y-39779D01*
X90246Y-39787D01*
X90245Y-39798D01*
X90245Y-39798D01*
X90245Y-39799D01*
X90245Y-39799D01*
X90245Y-39799D01*
X90246Y-39810D01*
X90253Y-39818D01*
X90283Y-39891D01*
X90289Y-39897D01*
X90283Y-39902D01*
X90252Y-39979D01*
X90246Y-39985D01*
X90245Y-39994D01*
X90245Y-39994D01*
X90245Y-39996D01*
X90245Y-39997D01*
X90245Y-39997D01*
X90246Y-40006D01*
X90252Y-40012D01*
X90283Y-40089D01*
X90313Y-40119D01*
X90308Y-40119D01*
X90246Y-40181D01*
X90245Y-40193D01*
X90283Y-40285D01*
X90354Y-40355D01*
X90446Y-40393D01*
X90545Y-40394D01*
X90619Y-40394D01*
X90682Y-40331D01*
X90682Y-40135D01*
X90682Y-40119D01*
X90682Y-40069D01*
X90682Y-39937D01*
X90682Y-39923D01*
X90682Y-39873D01*
X90682Y-39856D01*
X90682Y-39848D01*
X90782Y-39848D01*
X90782Y-39856D01*
X90782Y-39873D01*
X90782Y-39923D01*
X90782Y-39937D01*
X90782Y-40069D01*
X90782Y-40119D01*
X90782Y-40135D01*
X90782Y-40331D01*
X90844Y-40394D01*
X90918Y-40394D01*
X91017Y-40393D01*
X91109Y-40355D01*
X91180Y-40285D01*
X91218Y-40193D01*
X91218Y-40181D01*
X91155Y-40119D01*
X91150Y-40119D01*
X91180Y-40089D01*
X91211Y-40012D01*
X91218Y-40006D01*
X91218Y-39997D01*
X91218Y-39997D01*
X91218Y-39996D01*
X91218Y-39994D01*
X91218Y-39994D01*
X91218Y-39985D01*
X91211Y-39979D01*
X91180Y-39902D01*
X91174Y-39897D01*
X91180Y-39891D01*
X91199Y-39844D01*
X91205Y-39858D01*
X91225Y-39877D01*
X91225Y-40446D01*
X91225Y-40446D01*
G37*
G54D42*
X91225Y-40446D02*
X90155Y-41516D01*
X90155Y-41509D01*
X90092Y-41509D01*
X90155Y-41447D01*
X90155Y-41384D01*
X90154Y-41302D01*
X90175Y-41294D01*
X90245Y-41223D01*
X90283Y-41131D01*
X90284Y-41032D01*
X90284Y-40958D01*
X90221Y-40896D01*
X90025Y-40896D01*
X90009Y-40896D01*
X89959Y-40896D01*
X89827Y-40896D01*
X89813Y-40896D01*
X89763Y-40896D01*
X89746Y-40896D01*
X89631Y-40896D01*
X89615Y-40896D01*
X89565Y-40896D01*
X89550Y-40896D01*
X89433Y-40896D01*
X89419Y-40896D01*
X89369Y-40896D01*
X89352Y-40896D01*
X89237Y-40896D01*
X89221Y-40896D01*
X89171Y-40896D01*
X89156Y-40896D01*
X89041Y-40896D01*
X89025Y-40896D01*
X88975Y-40896D01*
X88958Y-40896D01*
X88950Y-40896D01*
X88950Y-40796D01*
X88958Y-40796D01*
X88975Y-40796D01*
X89025Y-40796D01*
X89041Y-40796D01*
X89156Y-40796D01*
X89171Y-40796D01*
X89221Y-40796D01*
X89237Y-40796D01*
X89352Y-40796D01*
X89369Y-40796D01*
X89419Y-40796D01*
X89433Y-40796D01*
X89550Y-40796D01*
X89565Y-40796D01*
X89615Y-40796D01*
X89631Y-40796D01*
X89746Y-40796D01*
X89763Y-40796D01*
X89813Y-40796D01*
X89827Y-40796D01*
X89959Y-40796D01*
X90009Y-40796D01*
X90025Y-40796D01*
X90221Y-40796D01*
X90284Y-40733D01*
X90284Y-40659D01*
X90283Y-40560D01*
X90245Y-40468D01*
X90175Y-40397D01*
X90083Y-40359D01*
X90071Y-40360D01*
X90009Y-40422D01*
X90009Y-40427D01*
X89979Y-40397D01*
X89902Y-40366D01*
X89896Y-40360D01*
X89887Y-40359D01*
X89887Y-40359D01*
X89886Y-40359D01*
X89884Y-40359D01*
X89884Y-40359D01*
X89875Y-40360D01*
X89869Y-40366D01*
X89792Y-40397D01*
X89787Y-40403D01*
X89781Y-40397D01*
X89708Y-40367D01*
X89700Y-40360D01*
X89689Y-40359D01*
X89689Y-40359D01*
X89689Y-40359D01*
X89688Y-40359D01*
X89688Y-40359D01*
X89677Y-40360D01*
X89669Y-40367D01*
X89596Y-40397D01*
X89591Y-40403D01*
X89585Y-40397D01*
X89508Y-40366D01*
X89502Y-40360D01*
X89493Y-40359D01*
X89493Y-40359D01*
X89492Y-40359D01*
X89490Y-40359D01*
X89490Y-40359D01*
X89481Y-40360D01*
X89475Y-40366D01*
X89398Y-40397D01*
X89393Y-40403D01*
X89387Y-40397D01*
X89314Y-40367D01*
X89306Y-40360D01*
X89295Y-40359D01*
X89295Y-40359D01*
X89295Y-40359D01*
X89294Y-40359D01*
X89294Y-40359D01*
X89283Y-40360D01*
X89275Y-40367D01*
X89202Y-40397D01*
X89197Y-40403D01*
X89191Y-40397D01*
X89114Y-40366D01*
X89108Y-40360D01*
X89099Y-40359D01*
X89099Y-40359D01*
X89098Y-40359D01*
X89096Y-40359D01*
X89096Y-40359D01*
X89087Y-40360D01*
X89081Y-40366D01*
X89050Y-40379D01*
X89050Y-40360D01*
X89031Y-40360D01*
X89036Y-40356D01*
X89078Y-40314D01*
X89174Y-40315D01*
X89312Y-40258D01*
X89417Y-40152D01*
X89474Y-40014D01*
X89475Y-39865D01*
X89428Y-39754D01*
X90264Y-39754D01*
X90253Y-39779D01*
X90246Y-39787D01*
X90245Y-39798D01*
X90245Y-39798D01*
X90245Y-39799D01*
X90245Y-39799D01*
X90245Y-39799D01*
X90246Y-39810D01*
X90253Y-39818D01*
X90283Y-39891D01*
X90289Y-39897D01*
X90283Y-39902D01*
X90252Y-39979D01*
X90246Y-39985D01*
X90245Y-39994D01*
X90245Y-39994D01*
X90245Y-39996D01*
X90245Y-39997D01*
X90245Y-39997D01*
X90246Y-40006D01*
X90252Y-40012D01*
X90283Y-40089D01*
X90313Y-40119D01*
X90308Y-40119D01*
X90246Y-40181D01*
X90245Y-40193D01*
X90283Y-40285D01*
X90354Y-40355D01*
X90446Y-40393D01*
X90545Y-40394D01*
X90619Y-40394D01*
X90682Y-40331D01*
X90682Y-40135D01*
X90682Y-40119D01*
X90682Y-40069D01*
X90682Y-39937D01*
X90682Y-39923D01*
X90682Y-39873D01*
X90682Y-39856D01*
X90682Y-39848D01*
X90782Y-39848D01*
X90782Y-39856D01*
X90782Y-39873D01*
X90782Y-39923D01*
X90782Y-39937D01*
X90782Y-40069D01*
X90782Y-40119D01*
X90782Y-40135D01*
X90782Y-40331D01*
X90844Y-40394D01*
X90918Y-40394D01*
X91017Y-40393D01*
X91109Y-40355D01*
X91180Y-40285D01*
X91218Y-40193D01*
X91218Y-40181D01*
X91155Y-40119D01*
X91150Y-40119D01*
X91180Y-40089D01*
X91211Y-40012D01*
X91218Y-40006D01*
X91218Y-39997D01*
X91218Y-39997D01*
X91218Y-39996D01*
X91218Y-39994D01*
X91218Y-39994D01*
X91218Y-39985D01*
X91211Y-39979D01*
X91180Y-39902D01*
X91174Y-39897D01*
X91180Y-39891D01*
X91199Y-39844D01*
X91205Y-39858D01*
X91225Y-39877D01*
X91225Y-40446D01*
G54D10*
G36*
X92945Y-38171D02*
X92936Y-38162D01*
X92844Y-38124D01*
X92782Y-38125D01*
X92720Y-38187D01*
X92720Y-38550D01*
X92727Y-38550D01*
X92727Y-38650D01*
X92720Y-38650D01*
X92720Y-38657D01*
X92620Y-38657D01*
X92620Y-38650D01*
X92620Y-38550D01*
X92620Y-38187D01*
X92557Y-38125D01*
X92495Y-38124D01*
X92403Y-38162D01*
X92333Y-38233D01*
X92295Y-38325D01*
X92294Y-38424D01*
X92295Y-38487D01*
X92357Y-38550D01*
X92620Y-38550D01*
X92620Y-38650D01*
X92357Y-38650D01*
X92295Y-38712D01*
X92294Y-38761D01*
X91564Y-38761D01*
X91458Y-38781D01*
X91369Y-38841D01*
X91305Y-38905D01*
X91245Y-38994D01*
X91225Y-39100D01*
X91225Y-39162D01*
X91207Y-39180D01*
X91180Y-39114D01*
X91175Y-39110D01*
X91180Y-39105D01*
X91211Y-39028D01*
X91218Y-39022D01*
X91218Y-39013D01*
X91218Y-39013D01*
X91218Y-39012D01*
X91218Y-39010D01*
X91218Y-39010D01*
X91218Y-39001D01*
X91211Y-38995D01*
X91180Y-38918D01*
X91174Y-38913D01*
X91180Y-38907D01*
X91210Y-38834D01*
X91218Y-38826D01*
X91218Y-38815D01*
X91218Y-38815D01*
X91218Y-38815D01*
X91218Y-38814D01*
X91218Y-38814D01*
X91218Y-38803D01*
X91210Y-38795D01*
X91180Y-38722D01*
X91174Y-38717D01*
X91180Y-38711D01*
X91211Y-38634D01*
X91218Y-38628D01*
X91218Y-38619D01*
X91218Y-38619D01*
X91218Y-38618D01*
X91218Y-38616D01*
X91218Y-38616D01*
X91218Y-38607D01*
X91211Y-38601D01*
X91180Y-38524D01*
X91174Y-38519D01*
X91180Y-38513D01*
X91210Y-38440D01*
X91218Y-38432D01*
X91218Y-38421D01*
X91218Y-38421D01*
X91218Y-38421D01*
X91218Y-38420D01*
X91218Y-38420D01*
X91218Y-38409D01*
X91210Y-38401D01*
X91180Y-38328D01*
X91174Y-38323D01*
X91180Y-38317D01*
X91211Y-38240D01*
X91218Y-38234D01*
X91218Y-38225D01*
X91218Y-38225D01*
X91218Y-38224D01*
X91218Y-38222D01*
X91218Y-38222D01*
X91218Y-38213D01*
X91211Y-38207D01*
X91180Y-38130D01*
X91174Y-38125D01*
X91180Y-38119D01*
X91210Y-38046D01*
X91218Y-38038D01*
X91218Y-38027D01*
X91218Y-38027D01*
X91218Y-38027D01*
X91218Y-38026D01*
X91218Y-38026D01*
X91218Y-38015D01*
X91210Y-38007D01*
X91180Y-37934D01*
X91174Y-37929D01*
X91180Y-37923D01*
X91211Y-37846D01*
X91218Y-37840D01*
X91218Y-37831D01*
X91218Y-37831D01*
X91218Y-37830D01*
X91218Y-37828D01*
X91218Y-37828D01*
X91218Y-37819D01*
X91211Y-37813D01*
X91180Y-37736D01*
X91175Y-37732D01*
X91180Y-37727D01*
X91211Y-37650D01*
X91218Y-37644D01*
X91218Y-37635D01*
X91218Y-37635D01*
X91218Y-37634D01*
X91218Y-37632D01*
X91218Y-37632D01*
X91218Y-37623D01*
X91211Y-37617D01*
X91199Y-37588D01*
X91236Y-37588D01*
X91265Y-37658D01*
X91321Y-37714D01*
X91395Y-37744D01*
X91474Y-37745D01*
X91724Y-37745D01*
X91798Y-37714D01*
X91854Y-37658D01*
X91859Y-37645D01*
X91865Y-37658D01*
X91921Y-37714D01*
X91995Y-37744D01*
X92074Y-37745D01*
X92324Y-37745D01*
X92398Y-37714D01*
X92454Y-37658D01*
X92460Y-37645D01*
X92780Y-37645D01*
X92865Y-37645D01*
X92920Y-37699D01*
X92920Y-37699D01*
X92945Y-37716D01*
X92945Y-38171D01*
X92945Y-38171D01*
G37*
G54D42*
X92945Y-38171D02*
X92936Y-38162D01*
X92844Y-38124D01*
X92782Y-38125D01*
X92720Y-38187D01*
X92720Y-38550D01*
X92727Y-38550D01*
X92727Y-38650D01*
X92720Y-38650D01*
X92720Y-38657D01*
X92620Y-38657D01*
X92620Y-38650D01*
X92620Y-38550D01*
X92620Y-38187D01*
X92557Y-38125D01*
X92495Y-38124D01*
X92403Y-38162D01*
X92333Y-38233D01*
X92295Y-38325D01*
X92294Y-38424D01*
X92295Y-38487D01*
X92357Y-38550D01*
X92620Y-38550D01*
X92620Y-38650D01*
X92357Y-38650D01*
X92295Y-38712D01*
X92294Y-38761D01*
X91564Y-38761D01*
X91458Y-38781D01*
X91369Y-38841D01*
X91305Y-38905D01*
X91245Y-38994D01*
X91225Y-39100D01*
X91225Y-39162D01*
X91207Y-39180D01*
X91180Y-39114D01*
X91175Y-39110D01*
X91180Y-39105D01*
X91211Y-39028D01*
X91218Y-39022D01*
X91218Y-39013D01*
X91218Y-39013D01*
X91218Y-39012D01*
X91218Y-39010D01*
X91218Y-39010D01*
X91218Y-39001D01*
X91211Y-38995D01*
X91180Y-38918D01*
X91174Y-38913D01*
X91180Y-38907D01*
X91210Y-38834D01*
X91218Y-38826D01*
X91218Y-38815D01*
X91218Y-38815D01*
X91218Y-38815D01*
X91218Y-38814D01*
X91218Y-38814D01*
X91218Y-38803D01*
X91210Y-38795D01*
X91180Y-38722D01*
X91174Y-38717D01*
X91180Y-38711D01*
X91211Y-38634D01*
X91218Y-38628D01*
X91218Y-38619D01*
X91218Y-38619D01*
X91218Y-38618D01*
X91218Y-38616D01*
X91218Y-38616D01*
X91218Y-38607D01*
X91211Y-38601D01*
X91180Y-38524D01*
X91174Y-38519D01*
X91180Y-38513D01*
X91210Y-38440D01*
X91218Y-38432D01*
X91218Y-38421D01*
X91218Y-38421D01*
X91218Y-38421D01*
X91218Y-38420D01*
X91218Y-38420D01*
X91218Y-38409D01*
X91210Y-38401D01*
X91180Y-38328D01*
X91174Y-38323D01*
X91180Y-38317D01*
X91211Y-38240D01*
X91218Y-38234D01*
X91218Y-38225D01*
X91218Y-38225D01*
X91218Y-38224D01*
X91218Y-38222D01*
X91218Y-38222D01*
X91218Y-38213D01*
X91211Y-38207D01*
X91180Y-38130D01*
X91174Y-38125D01*
X91180Y-38119D01*
X91210Y-38046D01*
X91218Y-38038D01*
X91218Y-38027D01*
X91218Y-38027D01*
X91218Y-38027D01*
X91218Y-38026D01*
X91218Y-38026D01*
X91218Y-38015D01*
X91210Y-38007D01*
X91180Y-37934D01*
X91174Y-37929D01*
X91180Y-37923D01*
X91211Y-37846D01*
X91218Y-37840D01*
X91218Y-37831D01*
X91218Y-37831D01*
X91218Y-37830D01*
X91218Y-37828D01*
X91218Y-37828D01*
X91218Y-37819D01*
X91211Y-37813D01*
X91180Y-37736D01*
X91175Y-37732D01*
X91180Y-37727D01*
X91211Y-37650D01*
X91218Y-37644D01*
X91218Y-37635D01*
X91218Y-37635D01*
X91218Y-37634D01*
X91218Y-37632D01*
X91218Y-37632D01*
X91218Y-37623D01*
X91211Y-37617D01*
X91199Y-37588D01*
X91236Y-37588D01*
X91265Y-37658D01*
X91321Y-37714D01*
X91395Y-37744D01*
X91474Y-37745D01*
X91724Y-37745D01*
X91798Y-37714D01*
X91854Y-37658D01*
X91859Y-37645D01*
X91865Y-37658D01*
X91921Y-37714D01*
X91995Y-37744D01*
X92074Y-37745D01*
X92324Y-37745D01*
X92398Y-37714D01*
X92454Y-37658D01*
X92460Y-37645D01*
X92780Y-37645D01*
X92865Y-37645D01*
X92920Y-37699D01*
X92920Y-37699D01*
X92945Y-37716D01*
X92945Y-38171D01*
G54D10*
G36*
X93666Y-31990D02*
X93595Y-32019D01*
X93576Y-32037D01*
X92872Y-32037D01*
X92776Y-32056D01*
X92744Y-32078D01*
X92695Y-32110D01*
X92695Y-32110D01*
X92333Y-32472D01*
X92279Y-32554D01*
X92260Y-32649D01*
X92260Y-34044D01*
X92239Y-34052D01*
X92183Y-34109D01*
X92152Y-34182D01*
X92152Y-34262D01*
X92152Y-34577D01*
X92170Y-34620D01*
X92152Y-34662D01*
X92152Y-34742D01*
X92152Y-35057D01*
X92170Y-35100D01*
X92152Y-35142D01*
X92152Y-35222D01*
X92152Y-35537D01*
X92170Y-35580D01*
X92152Y-35622D01*
X92152Y-35702D01*
X92152Y-36017D01*
X92183Y-36090D01*
X92239Y-36146D01*
X92312Y-36177D01*
X92392Y-36177D01*
X92653Y-36177D01*
X92585Y-36245D01*
X92525Y-36334D01*
X92505Y-36440D01*
X92505Y-36995D01*
X92460Y-36995D01*
X92454Y-36981D01*
X92398Y-36925D01*
X92324Y-36895D01*
X92245Y-36894D01*
X91995Y-36894D01*
X91921Y-36925D01*
X91865Y-36981D01*
X91860Y-36994D01*
X91854Y-36981D01*
X91798Y-36925D01*
X91724Y-36895D01*
X91645Y-36894D01*
X91395Y-36894D01*
X91321Y-36925D01*
X91265Y-36981D01*
X91235Y-37055D01*
X91235Y-37088D01*
X91168Y-37088D01*
X91168Y-37052D01*
X91164Y-37043D01*
X91167Y-37033D01*
X91168Y-36954D01*
X91168Y-36854D01*
X91164Y-36846D01*
X91167Y-36837D01*
X91168Y-36758D01*
X91168Y-36658D01*
X91164Y-36649D01*
X91167Y-36639D01*
X91168Y-36560D01*
X91168Y-36460D01*
X91164Y-36452D01*
X91167Y-36443D01*
X91168Y-36364D01*
X91168Y-36264D01*
X91137Y-36190D01*
X91124Y-36177D01*
X91171Y-36177D01*
X91486Y-36177D01*
X91560Y-36147D01*
X91616Y-36090D01*
X91647Y-36017D01*
X91647Y-35937D01*
X91647Y-35622D01*
X91629Y-35579D01*
X91647Y-35537D01*
X91647Y-35457D01*
X91647Y-35142D01*
X91629Y-35099D01*
X91647Y-35057D01*
X91647Y-34977D01*
X91647Y-34662D01*
X91629Y-34619D01*
X91647Y-34577D01*
X91647Y-34497D01*
X91647Y-34182D01*
X91616Y-34109D01*
X91560Y-34053D01*
X91487Y-34022D01*
X91407Y-34022D01*
X91218Y-34022D01*
X91254Y-33934D01*
X91255Y-33835D01*
X91255Y-33484D01*
X91254Y-33385D01*
X91216Y-33293D01*
X91213Y-33290D01*
X91216Y-33286D01*
X91254Y-33194D01*
X91255Y-33095D01*
X91255Y-32744D01*
X91254Y-32645D01*
X91216Y-32553D01*
X91146Y-32482D01*
X91054Y-32444D01*
X90992Y-32445D01*
X90930Y-32507D01*
X90930Y-32870D01*
X91192Y-32870D01*
X91255Y-32807D01*
X91255Y-32744D01*
X91255Y-33095D01*
X91255Y-33032D01*
X91192Y-32970D01*
X90930Y-32970D01*
X90930Y-33247D01*
X90930Y-33332D01*
X90930Y-33610D01*
X91192Y-33610D01*
X91255Y-33547D01*
X91255Y-33484D01*
X91255Y-33835D01*
X91255Y-33772D01*
X91192Y-33710D01*
X90930Y-33710D01*
X90930Y-33717D01*
X90830Y-33717D01*
X90830Y-33710D01*
X90822Y-33710D01*
X90822Y-33610D01*
X90830Y-33610D01*
X90830Y-33332D01*
X90830Y-33247D01*
X90830Y-32970D01*
X90822Y-32970D01*
X90822Y-32870D01*
X90830Y-32870D01*
X90830Y-32507D01*
X90767Y-32445D01*
X90705Y-32444D01*
X90613Y-32482D01*
X90544Y-32551D01*
X90518Y-32525D01*
X90444Y-32495D01*
X90365Y-32494D01*
X90115Y-32494D01*
X90082Y-32508D01*
X89976Y-32403D01*
X89895Y-32349D01*
X89800Y-32330D01*
X88980Y-32330D01*
X88979Y-32330D01*
X88960Y-32333D01*
X88884Y-32349D01*
X88803Y-32403D01*
X88803Y-32403D01*
X88327Y-32878D01*
X88327Y-32808D01*
X88297Y-32735D01*
X88240Y-32678D01*
X88167Y-32648D01*
X88087Y-32648D01*
X87339Y-32648D01*
X87266Y-32678D01*
X87210Y-32734D01*
X87179Y-32808D01*
X87179Y-32887D01*
X87179Y-33186D01*
X87109Y-33256D01*
X87058Y-33205D01*
X87045Y-33200D01*
X87058Y-33194D01*
X87114Y-33138D01*
X87144Y-33064D01*
X87145Y-32985D01*
X87145Y-32735D01*
X87114Y-32661D01*
X87058Y-32605D01*
X86984Y-32575D01*
X86905Y-32574D01*
X86515Y-32574D01*
X86515Y-32385D01*
X86477Y-32293D01*
X86406Y-32223D01*
X86314Y-32185D01*
X86215Y-32184D01*
X86152Y-32185D01*
X86090Y-32247D01*
X86090Y-32510D01*
X86452Y-32510D01*
X86515Y-32447D01*
X86515Y-32385D01*
X86515Y-32574D01*
X86455Y-32574D01*
X86381Y-32605D01*
X86377Y-32610D01*
X86090Y-32610D01*
X86090Y-32617D01*
X85990Y-32617D01*
X85990Y-32610D01*
X85982Y-32610D01*
X85982Y-32510D01*
X85990Y-32510D01*
X85990Y-32247D01*
X85927Y-32185D01*
X85864Y-32184D01*
X85765Y-32185D01*
X85673Y-32223D01*
X85602Y-32293D01*
X85564Y-32385D01*
X85565Y-32447D01*
X85627Y-32509D01*
X85565Y-32509D01*
X85565Y-32517D01*
X85534Y-32505D01*
X85435Y-32504D01*
X85372Y-32505D01*
X85310Y-32567D01*
X85310Y-32830D01*
X85317Y-32830D01*
X85317Y-32930D01*
X85310Y-32930D01*
X85310Y-32937D01*
X85210Y-32937D01*
X85210Y-32930D01*
X85210Y-32830D01*
X85210Y-32567D01*
X85147Y-32505D01*
X85084Y-32504D01*
X84985Y-32505D01*
X84893Y-32543D01*
X84822Y-32613D01*
X84784Y-32705D01*
X84785Y-32767D01*
X84847Y-32830D01*
X85210Y-32830D01*
X85210Y-32930D01*
X84847Y-32930D01*
X84785Y-32992D01*
X84784Y-33054D01*
X84805Y-33104D01*
X84795Y-33104D01*
X84732Y-33105D01*
X84670Y-33167D01*
X84670Y-33430D01*
X84677Y-33430D01*
X84677Y-33530D01*
X84670Y-33530D01*
X84670Y-33537D01*
X84570Y-33537D01*
X84570Y-33530D01*
X84562Y-33530D01*
X84562Y-33430D01*
X84570Y-33430D01*
X84570Y-33167D01*
X84507Y-33105D01*
X84444Y-33104D01*
X84345Y-33105D01*
X84253Y-33143D01*
X84230Y-33165D01*
X84204Y-33155D01*
X84125Y-33154D01*
X84048Y-33154D01*
X83816Y-32923D01*
X83735Y-32869D01*
X83640Y-32850D01*
X83550Y-32850D01*
X83550Y-31909D01*
X89710Y-31897D01*
X89723Y-31916D01*
X89804Y-31970D01*
X89900Y-31990D01*
X93666Y-31990D01*
X93666Y-31990D01*
G37*
G54D42*
X93666Y-31990D02*
X93595Y-32019D01*
X93576Y-32037D01*
X92872Y-32037D01*
X92776Y-32056D01*
X92744Y-32078D01*
X92695Y-32110D01*
X92695Y-32110D01*
X92333Y-32472D01*
X92279Y-32554D01*
X92260Y-32649D01*
X92260Y-34044D01*
X92239Y-34052D01*
X92183Y-34109D01*
X92152Y-34182D01*
X92152Y-34262D01*
X92152Y-34577D01*
X92170Y-34620D01*
X92152Y-34662D01*
X92152Y-34742D01*
X92152Y-35057D01*
X92170Y-35100D01*
X92152Y-35142D01*
X92152Y-35222D01*
X92152Y-35537D01*
X92170Y-35580D01*
X92152Y-35622D01*
X92152Y-35702D01*
X92152Y-36017D01*
X92183Y-36090D01*
X92239Y-36146D01*
X92312Y-36177D01*
X92392Y-36177D01*
X92653Y-36177D01*
X92585Y-36245D01*
X92525Y-36334D01*
X92505Y-36440D01*
X92505Y-36995D01*
X92460Y-36995D01*
X92454Y-36981D01*
X92398Y-36925D01*
X92324Y-36895D01*
X92245Y-36894D01*
X91995Y-36894D01*
X91921Y-36925D01*
X91865Y-36981D01*
X91860Y-36994D01*
X91854Y-36981D01*
X91798Y-36925D01*
X91724Y-36895D01*
X91645Y-36894D01*
X91395Y-36894D01*
X91321Y-36925D01*
X91265Y-36981D01*
X91235Y-37055D01*
X91235Y-37088D01*
X91168Y-37088D01*
X91168Y-37052D01*
X91164Y-37043D01*
X91167Y-37033D01*
X91168Y-36954D01*
X91168Y-36854D01*
X91164Y-36846D01*
X91167Y-36837D01*
X91168Y-36758D01*
X91168Y-36658D01*
X91164Y-36649D01*
X91167Y-36639D01*
X91168Y-36560D01*
X91168Y-36460D01*
X91164Y-36452D01*
X91167Y-36443D01*
X91168Y-36364D01*
X91168Y-36264D01*
X91137Y-36190D01*
X91124Y-36177D01*
X91171Y-36177D01*
X91486Y-36177D01*
X91560Y-36147D01*
X91616Y-36090D01*
X91647Y-36017D01*
X91647Y-35937D01*
X91647Y-35622D01*
X91629Y-35579D01*
X91647Y-35537D01*
X91647Y-35457D01*
X91647Y-35142D01*
X91629Y-35099D01*
X91647Y-35057D01*
X91647Y-34977D01*
X91647Y-34662D01*
X91629Y-34619D01*
X91647Y-34577D01*
X91647Y-34497D01*
X91647Y-34182D01*
X91616Y-34109D01*
X91560Y-34053D01*
X91487Y-34022D01*
X91407Y-34022D01*
X91218Y-34022D01*
X91254Y-33934D01*
X91255Y-33835D01*
X91255Y-33484D01*
X91254Y-33385D01*
X91216Y-33293D01*
X91213Y-33290D01*
X91216Y-33286D01*
X91254Y-33194D01*
X91255Y-33095D01*
X91255Y-32744D01*
X91254Y-32645D01*
X91216Y-32553D01*
X91146Y-32482D01*
X91054Y-32444D01*
X90992Y-32445D01*
X90930Y-32507D01*
X90930Y-32870D01*
X91192Y-32870D01*
X91255Y-32807D01*
X91255Y-32744D01*
X91255Y-33095D01*
X91255Y-33032D01*
X91192Y-32970D01*
X90930Y-32970D01*
X90930Y-33247D01*
X90930Y-33332D01*
X90930Y-33610D01*
X91192Y-33610D01*
X91255Y-33547D01*
X91255Y-33484D01*
X91255Y-33835D01*
X91255Y-33772D01*
X91192Y-33710D01*
X90930Y-33710D01*
X90930Y-33717D01*
X90830Y-33717D01*
X90830Y-33710D01*
X90822Y-33710D01*
X90822Y-33610D01*
X90830Y-33610D01*
X90830Y-33332D01*
X90830Y-33247D01*
X90830Y-32970D01*
X90822Y-32970D01*
X90822Y-32870D01*
X90830Y-32870D01*
X90830Y-32507D01*
X90767Y-32445D01*
X90705Y-32444D01*
X90613Y-32482D01*
X90544Y-32551D01*
X90518Y-32525D01*
X90444Y-32495D01*
X90365Y-32494D01*
X90115Y-32494D01*
X90082Y-32508D01*
X89976Y-32403D01*
X89895Y-32349D01*
X89800Y-32330D01*
X88980Y-32330D01*
X88979Y-32330D01*
X88960Y-32333D01*
X88884Y-32349D01*
X88803Y-32403D01*
X88803Y-32403D01*
X88327Y-32878D01*
X88327Y-32808D01*
X88297Y-32735D01*
X88240Y-32678D01*
X88167Y-32648D01*
X88087Y-32648D01*
X87339Y-32648D01*
X87266Y-32678D01*
X87210Y-32734D01*
X87179Y-32808D01*
X87179Y-32887D01*
X87179Y-33186D01*
X87109Y-33256D01*
X87058Y-33205D01*
X87045Y-33200D01*
X87058Y-33194D01*
X87114Y-33138D01*
X87144Y-33064D01*
X87145Y-32985D01*
X87145Y-32735D01*
X87114Y-32661D01*
X87058Y-32605D01*
X86984Y-32575D01*
X86905Y-32574D01*
X86515Y-32574D01*
X86515Y-32385D01*
X86477Y-32293D01*
X86406Y-32223D01*
X86314Y-32185D01*
X86215Y-32184D01*
X86152Y-32185D01*
X86090Y-32247D01*
X86090Y-32510D01*
X86452Y-32510D01*
X86515Y-32447D01*
X86515Y-32385D01*
X86515Y-32574D01*
X86455Y-32574D01*
X86381Y-32605D01*
X86377Y-32610D01*
X86090Y-32610D01*
X86090Y-32617D01*
X85990Y-32617D01*
X85990Y-32610D01*
X85982Y-32610D01*
X85982Y-32510D01*
X85990Y-32510D01*
X85990Y-32247D01*
X85927Y-32185D01*
X85864Y-32184D01*
X85765Y-32185D01*
X85673Y-32223D01*
X85602Y-32293D01*
X85564Y-32385D01*
X85565Y-32447D01*
X85627Y-32509D01*
X85565Y-32509D01*
X85565Y-32517D01*
X85534Y-32505D01*
X85435Y-32504D01*
X85372Y-32505D01*
X85310Y-32567D01*
X85310Y-32830D01*
X85317Y-32830D01*
X85317Y-32930D01*
X85310Y-32930D01*
X85310Y-32937D01*
X85210Y-32937D01*
X85210Y-32930D01*
X85210Y-32830D01*
X85210Y-32567D01*
X85147Y-32505D01*
X85084Y-32504D01*
X84985Y-32505D01*
X84893Y-32543D01*
X84822Y-32613D01*
X84784Y-32705D01*
X84785Y-32767D01*
X84847Y-32830D01*
X85210Y-32830D01*
X85210Y-32930D01*
X84847Y-32930D01*
X84785Y-32992D01*
X84784Y-33054D01*
X84805Y-33104D01*
X84795Y-33104D01*
X84732Y-33105D01*
X84670Y-33167D01*
X84670Y-33430D01*
X84677Y-33430D01*
X84677Y-33530D01*
X84670Y-33530D01*
X84670Y-33537D01*
X84570Y-33537D01*
X84570Y-33530D01*
X84562Y-33530D01*
X84562Y-33430D01*
X84570Y-33430D01*
X84570Y-33167D01*
X84507Y-33105D01*
X84444Y-33104D01*
X84345Y-33105D01*
X84253Y-33143D01*
X84230Y-33165D01*
X84204Y-33155D01*
X84125Y-33154D01*
X84048Y-33154D01*
X83816Y-32923D01*
X83735Y-32869D01*
X83640Y-32850D01*
X83550Y-32850D01*
X83550Y-31909D01*
X89710Y-31897D01*
X89723Y-31916D01*
X89804Y-31970D01*
X89900Y-31990D01*
X93666Y-31990D01*
G54D10*
G36*
X97456Y-31354D02*
X97346Y-31465D01*
X95168Y-31465D01*
X95201Y-31431D01*
X95239Y-31339D01*
X95240Y-31240D01*
X95240Y-30539D01*
X95239Y-30440D01*
X95201Y-30348D01*
X95131Y-30277D01*
X95039Y-30239D01*
X94852Y-30240D01*
X94790Y-30302D01*
X94790Y-30840D01*
X95177Y-30840D01*
X95240Y-30777D01*
X95240Y-30539D01*
X95240Y-31240D01*
X95240Y-31002D01*
X95177Y-30940D01*
X94790Y-30940D01*
X94790Y-30947D01*
X94690Y-30947D01*
X94690Y-30940D01*
X94690Y-30840D01*
X94690Y-30302D01*
X94627Y-30240D01*
X94440Y-30239D01*
X94348Y-30277D01*
X94278Y-30348D01*
X94250Y-30416D01*
X94221Y-30348D01*
X94151Y-30277D01*
X94059Y-30239D01*
X93872Y-30240D01*
X93810Y-30302D01*
X93810Y-30840D01*
X94197Y-30840D01*
X94250Y-30787D01*
X94302Y-30840D01*
X94690Y-30840D01*
X94690Y-30940D01*
X94302Y-30940D01*
X94250Y-30992D01*
X94197Y-30940D01*
X93810Y-30940D01*
X93810Y-30947D01*
X93710Y-30947D01*
X93710Y-30940D01*
X93702Y-30940D01*
X93702Y-30840D01*
X93710Y-30840D01*
X93710Y-30302D01*
X93647Y-30240D01*
X93460Y-30239D01*
X93368Y-30277D01*
X93310Y-30336D01*
X93310Y-30230D01*
X95890Y-30230D01*
X95890Y-27195D01*
X95951Y-27195D01*
X95977Y-27258D01*
X96024Y-27305D01*
X96010Y-27311D01*
X95954Y-27367D01*
X95923Y-27441D01*
X95923Y-27520D01*
X95923Y-29434D01*
X95953Y-29507D01*
X96010Y-29563D01*
X96083Y-29594D01*
X96163Y-29594D01*
X96460Y-29594D01*
X96460Y-29920D01*
X96484Y-30044D01*
X96555Y-30149D01*
X96805Y-30399D01*
X96805Y-30399D01*
X96910Y-30470D01*
X96910Y-30470D01*
X97035Y-30495D01*
X97402Y-30495D01*
X97365Y-30531D01*
X97335Y-30605D01*
X97334Y-30684D01*
X97334Y-30934D01*
X97365Y-31008D01*
X97421Y-31064D01*
X97435Y-31070D01*
X97435Y-31245D01*
X97456Y-31354D01*
X97456Y-31354D01*
G37*
G54D42*
X97456Y-31354D02*
X97346Y-31465D01*
X95168Y-31465D01*
X95201Y-31431D01*
X95239Y-31339D01*
X95240Y-31240D01*
X95240Y-30539D01*
X95239Y-30440D01*
X95201Y-30348D01*
X95131Y-30277D01*
X95039Y-30239D01*
X94852Y-30240D01*
X94790Y-30302D01*
X94790Y-30840D01*
X95177Y-30840D01*
X95240Y-30777D01*
X95240Y-30539D01*
X95240Y-31240D01*
X95240Y-31002D01*
X95177Y-30940D01*
X94790Y-30940D01*
X94790Y-30947D01*
X94690Y-30947D01*
X94690Y-30940D01*
X94690Y-30840D01*
X94690Y-30302D01*
X94627Y-30240D01*
X94440Y-30239D01*
X94348Y-30277D01*
X94278Y-30348D01*
X94250Y-30416D01*
X94221Y-30348D01*
X94151Y-30277D01*
X94059Y-30239D01*
X93872Y-30240D01*
X93810Y-30302D01*
X93810Y-30840D01*
X94197Y-30840D01*
X94250Y-30787D01*
X94302Y-30840D01*
X94690Y-30840D01*
X94690Y-30940D01*
X94302Y-30940D01*
X94250Y-30992D01*
X94197Y-30940D01*
X93810Y-30940D01*
X93810Y-30947D01*
X93710Y-30947D01*
X93710Y-30940D01*
X93702Y-30940D01*
X93702Y-30840D01*
X93710Y-30840D01*
X93710Y-30302D01*
X93647Y-30240D01*
X93460Y-30239D01*
X93368Y-30277D01*
X93310Y-30336D01*
X93310Y-30230D01*
X95890Y-30230D01*
X95890Y-27195D01*
X95951Y-27195D01*
X95977Y-27258D01*
X96024Y-27305D01*
X96010Y-27311D01*
X95954Y-27367D01*
X95923Y-27441D01*
X95923Y-27520D01*
X95923Y-29434D01*
X95953Y-29507D01*
X96010Y-29563D01*
X96083Y-29594D01*
X96163Y-29594D01*
X96460Y-29594D01*
X96460Y-29920D01*
X96484Y-30044D01*
X96555Y-30149D01*
X96805Y-30399D01*
X96805Y-30399D01*
X96910Y-30470D01*
X96910Y-30470D01*
X97035Y-30495D01*
X97402Y-30495D01*
X97365Y-30531D01*
X97335Y-30605D01*
X97334Y-30684D01*
X97334Y-30934D01*
X97365Y-31008D01*
X97421Y-31064D01*
X97435Y-31070D01*
X97435Y-31245D01*
X97456Y-31354D01*
G54D10*
G36*
X98065Y-33114D02*
X98030Y-33150D01*
X97959Y-33255D01*
X97935Y-33380D01*
X97935Y-33774D01*
X97934Y-33814D01*
X97934Y-34055D01*
X97838Y-34055D01*
X97814Y-34045D01*
X97665Y-34044D01*
X97527Y-34101D01*
X97516Y-34113D01*
X97494Y-34061D01*
X97483Y-34050D01*
X97518Y-34014D01*
X97614Y-34015D01*
X97752Y-33958D01*
X97857Y-33852D01*
X97914Y-33714D01*
X97915Y-33565D01*
X97858Y-33427D01*
X97752Y-33322D01*
X97614Y-33265D01*
X97465Y-33264D01*
X97327Y-33321D01*
X97222Y-33427D01*
X97165Y-33565D01*
X97164Y-33661D01*
X97023Y-33803D01*
X96969Y-33884D01*
X96950Y-33980D01*
X96950Y-34017D01*
X96905Y-34061D01*
X96900Y-34074D01*
X96894Y-34061D01*
X96838Y-34005D01*
X96764Y-33975D01*
X96685Y-33974D01*
X96435Y-33974D01*
X96361Y-34005D01*
X96305Y-34061D01*
X96275Y-34135D01*
X96274Y-34214D01*
X96274Y-34215D01*
X96270Y-34218D01*
X96270Y-34218D01*
X96270Y-34217D01*
X96270Y-34055D01*
X96312Y-34038D01*
X96417Y-33932D01*
X96474Y-33794D01*
X96475Y-33645D01*
X96418Y-33507D01*
X96312Y-33402D01*
X96174Y-33345D01*
X96025Y-33344D01*
X95887Y-33401D01*
X95782Y-33507D01*
X95725Y-33645D01*
X95724Y-33794D01*
X95770Y-33903D01*
X95770Y-34217D01*
X95755Y-34231D01*
X95686Y-34162D01*
X95594Y-34124D01*
X95532Y-34125D01*
X95470Y-34187D01*
X95470Y-34550D01*
X95477Y-34550D01*
X95477Y-34650D01*
X95470Y-34650D01*
X95470Y-34657D01*
X95370Y-34657D01*
X95370Y-34650D01*
X95370Y-34550D01*
X95370Y-34187D01*
X95307Y-34125D01*
X95245Y-34124D01*
X95153Y-34162D01*
X95083Y-34233D01*
X95045Y-34325D01*
X95044Y-34424D01*
X95045Y-34487D01*
X95107Y-34550D01*
X95370Y-34550D01*
X95370Y-34650D01*
X95107Y-34650D01*
X95045Y-34712D01*
X95044Y-34775D01*
X95045Y-34874D01*
X95083Y-34966D01*
X95126Y-35010D01*
X95125Y-35011D01*
X95095Y-35085D01*
X95095Y-35100D01*
X95070Y-35100D01*
X95012Y-35042D01*
X94874Y-34985D01*
X94725Y-34984D01*
X94630Y-35024D01*
X94630Y-34623D01*
X96263Y-32990D01*
X97819Y-32990D01*
X97887Y-33057D01*
X98025Y-33114D01*
X98065Y-33114D01*
X98065Y-33114D01*
G37*
G54D42*
X98065Y-33114D02*
X98030Y-33150D01*
X97959Y-33255D01*
X97935Y-33380D01*
X97935Y-33774D01*
X97934Y-33814D01*
X97934Y-34055D01*
X97838Y-34055D01*
X97814Y-34045D01*
X97665Y-34044D01*
X97527Y-34101D01*
X97516Y-34113D01*
X97494Y-34061D01*
X97483Y-34050D01*
X97518Y-34014D01*
X97614Y-34015D01*
X97752Y-33958D01*
X97857Y-33852D01*
X97914Y-33714D01*
X97915Y-33565D01*
X97858Y-33427D01*
X97752Y-33322D01*
X97614Y-33265D01*
X97465Y-33264D01*
X97327Y-33321D01*
X97222Y-33427D01*
X97165Y-33565D01*
X97164Y-33661D01*
X97023Y-33803D01*
X96969Y-33884D01*
X96950Y-33980D01*
X96950Y-34017D01*
X96905Y-34061D01*
X96900Y-34074D01*
X96894Y-34061D01*
X96838Y-34005D01*
X96764Y-33975D01*
X96685Y-33974D01*
X96435Y-33974D01*
X96361Y-34005D01*
X96305Y-34061D01*
X96275Y-34135D01*
X96274Y-34214D01*
X96274Y-34215D01*
X96270Y-34218D01*
X96270Y-34218D01*
X96270Y-34217D01*
X96270Y-34055D01*
X96312Y-34038D01*
X96417Y-33932D01*
X96474Y-33794D01*
X96475Y-33645D01*
X96418Y-33507D01*
X96312Y-33402D01*
X96174Y-33345D01*
X96025Y-33344D01*
X95887Y-33401D01*
X95782Y-33507D01*
X95725Y-33645D01*
X95724Y-33794D01*
X95770Y-33903D01*
X95770Y-34217D01*
X95755Y-34231D01*
X95686Y-34162D01*
X95594Y-34124D01*
X95532Y-34125D01*
X95470Y-34187D01*
X95470Y-34550D01*
X95477Y-34550D01*
X95477Y-34650D01*
X95470Y-34650D01*
X95470Y-34657D01*
X95370Y-34657D01*
X95370Y-34650D01*
X95370Y-34550D01*
X95370Y-34187D01*
X95307Y-34125D01*
X95245Y-34124D01*
X95153Y-34162D01*
X95083Y-34233D01*
X95045Y-34325D01*
X95044Y-34424D01*
X95045Y-34487D01*
X95107Y-34550D01*
X95370Y-34550D01*
X95370Y-34650D01*
X95107Y-34650D01*
X95045Y-34712D01*
X95044Y-34775D01*
X95045Y-34874D01*
X95083Y-34966D01*
X95126Y-35010D01*
X95125Y-35011D01*
X95095Y-35085D01*
X95095Y-35100D01*
X95070Y-35100D01*
X95012Y-35042D01*
X94874Y-34985D01*
X94725Y-34984D01*
X94630Y-35024D01*
X94630Y-34623D01*
X96263Y-32990D01*
X97819Y-32990D01*
X97887Y-33057D01*
X98025Y-33114D01*
X98065Y-33114D01*
G54D10*
G36*
X98696Y-35837D02*
X98623Y-35837D01*
X98623Y-35722D01*
X98696Y-35722D01*
X98696Y-35837D01*
X98696Y-35837D01*
G37*
G54D42*
X98696Y-35837D02*
X98623Y-35837D01*
X98623Y-35722D01*
X98696Y-35722D01*
X98696Y-35837D01*
G54D10*
G36*
X106030Y-43910D02*
X81250Y-43910D01*
X81250Y-40632D01*
X81250Y-40370D01*
X80887Y-40370D01*
X80825Y-40432D01*
X80824Y-40494D01*
X80862Y-40586D01*
X80933Y-40656D01*
X81025Y-40694D01*
X81124Y-40695D01*
X81187Y-40695D01*
X81250Y-40632D01*
X81250Y-43910D01*
X79015Y-43910D01*
X79015Y-41474D01*
X79015Y-41412D01*
X78952Y-41350D01*
X78590Y-41350D01*
X78590Y-41612D01*
X78652Y-41675D01*
X78715Y-41675D01*
X78814Y-41674D01*
X78906Y-41636D01*
X78977Y-41566D01*
X79015Y-41474D01*
X79015Y-43910D01*
X78490Y-43910D01*
X78490Y-41612D01*
X78490Y-41350D01*
X78127Y-41350D01*
X78065Y-41412D01*
X78064Y-41474D01*
X78102Y-41566D01*
X78173Y-41636D01*
X78265Y-41674D01*
X78364Y-41675D01*
X78427Y-41675D01*
X78490Y-41612D01*
X78490Y-43910D01*
X76495Y-43910D01*
X76495Y-41594D01*
X76495Y-41532D01*
X76432Y-41470D01*
X76070Y-41470D01*
X76070Y-41732D01*
X76132Y-41795D01*
X76195Y-41795D01*
X76294Y-41794D01*
X76386Y-41756D01*
X76457Y-41686D01*
X76495Y-41594D01*
X76495Y-43910D01*
X75970Y-43910D01*
X75970Y-41732D01*
X75970Y-41470D01*
X75607Y-41470D01*
X75545Y-41532D01*
X75544Y-41594D01*
X75582Y-41686D01*
X75653Y-41756D01*
X75745Y-41794D01*
X75844Y-41795D01*
X75907Y-41795D01*
X75970Y-41732D01*
X75970Y-43910D01*
X72430Y-43910D01*
X72430Y-39210D01*
X76716Y-39210D01*
X76485Y-39440D01*
X76431Y-39521D01*
X76412Y-39617D01*
X76412Y-39816D01*
X76394Y-39834D01*
X76364Y-39908D01*
X76364Y-39987D01*
X76364Y-40342D01*
X76394Y-40415D01*
X76438Y-40460D01*
X76394Y-40504D01*
X76377Y-40544D01*
X76358Y-40525D01*
X76284Y-40495D01*
X76205Y-40494D01*
X75755Y-40494D01*
X75681Y-40525D01*
X75625Y-40581D01*
X75595Y-40655D01*
X75594Y-40734D01*
X75594Y-40984D01*
X75625Y-41058D01*
X75651Y-41084D01*
X75582Y-41153D01*
X75544Y-41245D01*
X75545Y-41307D01*
X75607Y-41370D01*
X75970Y-41370D01*
X75970Y-41362D01*
X76070Y-41362D01*
X76070Y-41370D01*
X76432Y-41370D01*
X76495Y-41307D01*
X76495Y-41245D01*
X76457Y-41153D01*
X76388Y-41084D01*
X76392Y-41080D01*
X76394Y-41084D01*
X76450Y-41141D01*
X76524Y-41171D01*
X76603Y-41171D01*
X76800Y-41171D01*
X76819Y-41163D01*
X76839Y-41171D01*
X76918Y-41171D01*
X77115Y-41171D01*
X77189Y-41141D01*
X77245Y-41085D01*
X77275Y-41011D01*
X77275Y-40932D01*
X77275Y-40577D01*
X77245Y-40504D01*
X77201Y-40459D01*
X77245Y-40415D01*
X77275Y-40342D01*
X77275Y-40262D01*
X77275Y-39908D01*
X77268Y-39890D01*
X77920Y-39890D01*
X78015Y-39870D01*
X78096Y-39816D01*
X78703Y-39210D01*
X79027Y-39210D01*
X79027Y-39741D01*
X78994Y-39774D01*
X78964Y-39848D01*
X78964Y-39927D01*
X78964Y-40282D01*
X78994Y-40355D01*
X79038Y-40400D01*
X78994Y-40444D01*
X78992Y-40450D01*
X78922Y-40450D01*
X78878Y-40405D01*
X78804Y-40375D01*
X78725Y-40374D01*
X78275Y-40374D01*
X78201Y-40405D01*
X78145Y-40461D01*
X78115Y-40535D01*
X78114Y-40614D01*
X78114Y-40864D01*
X78145Y-40938D01*
X78171Y-40964D01*
X78102Y-41033D01*
X78064Y-41125D01*
X78065Y-41187D01*
X78127Y-41250D01*
X78490Y-41250D01*
X78490Y-41242D01*
X78590Y-41242D01*
X78590Y-41250D01*
X78952Y-41250D01*
X79015Y-41187D01*
X79015Y-41125D01*
X78977Y-41033D01*
X78908Y-40964D01*
X78922Y-40950D01*
X78964Y-40950D01*
X78964Y-40951D01*
X78994Y-41024D01*
X79050Y-41081D01*
X79124Y-41111D01*
X79203Y-41111D01*
X79400Y-41111D01*
X79419Y-41103D01*
X79439Y-41111D01*
X79518Y-41111D01*
X79715Y-41111D01*
X79789Y-41081D01*
X79845Y-41025D01*
X79875Y-40951D01*
X79875Y-40872D01*
X79875Y-40517D01*
X79845Y-40444D01*
X79801Y-40399D01*
X79845Y-40355D01*
X79875Y-40282D01*
X79875Y-40202D01*
X79875Y-39848D01*
X79845Y-39775D01*
X79842Y-39771D01*
X79842Y-39631D01*
X80263Y-39210D01*
X81830Y-39210D01*
X81830Y-39297D01*
X81785Y-39341D01*
X81755Y-39415D01*
X81754Y-39470D01*
X81682Y-39470D01*
X81638Y-39425D01*
X81564Y-39395D01*
X81485Y-39394D01*
X81035Y-39394D01*
X80961Y-39425D01*
X80905Y-39481D01*
X80875Y-39555D01*
X80874Y-39634D01*
X80874Y-39884D01*
X80905Y-39958D01*
X80931Y-39984D01*
X80862Y-40053D01*
X80824Y-40145D01*
X80825Y-40207D01*
X80887Y-40270D01*
X81250Y-40270D01*
X81250Y-40262D01*
X81350Y-40262D01*
X81350Y-40270D01*
X81712Y-40270D01*
X81775Y-40207D01*
X81775Y-40145D01*
X81737Y-40053D01*
X81668Y-39984D01*
X81682Y-39970D01*
X81765Y-39970D01*
X81785Y-40018D01*
X81830Y-40062D01*
X81830Y-40140D01*
X81849Y-40235D01*
X81903Y-40316D01*
X81950Y-40363D01*
X81950Y-41409D01*
X81931Y-41417D01*
X81797Y-41550D01*
X81775Y-41604D01*
X81775Y-40494D01*
X81775Y-40432D01*
X81712Y-40370D01*
X81350Y-40370D01*
X81350Y-40632D01*
X81412Y-40695D01*
X81475Y-40695D01*
X81574Y-40694D01*
X81666Y-40656D01*
X81737Y-40586D01*
X81775Y-40494D01*
X81775Y-41604D01*
X81725Y-41725D01*
X81724Y-41914D01*
X81797Y-42088D01*
X81930Y-42222D01*
X82105Y-42294D01*
X82294Y-42295D01*
X82468Y-42222D01*
X82602Y-42089D01*
X82674Y-41914D01*
X82675Y-41725D01*
X82602Y-41551D01*
X82469Y-41417D01*
X82450Y-41409D01*
X82450Y-40510D01*
X82796Y-40510D01*
X83283Y-40996D01*
X83364Y-41050D01*
X83364Y-41050D01*
X83460Y-41070D01*
X84480Y-41070D01*
X84575Y-41050D01*
X84656Y-40996D01*
X84776Y-40876D01*
X84830Y-40795D01*
X84830Y-40795D01*
X84849Y-40703D01*
X84889Y-40663D01*
X84943Y-40716D01*
X84943Y-40716D01*
X85024Y-40770D01*
X85024Y-40770D01*
X85120Y-40790D01*
X85820Y-40790D01*
X85915Y-40770D01*
X85952Y-40746D01*
X86002Y-40796D01*
X86202Y-40796D01*
X86215Y-40796D01*
X86265Y-40796D01*
X86400Y-40796D01*
X86415Y-40796D01*
X86465Y-40796D01*
X86477Y-40796D01*
X86598Y-40796D01*
X86613Y-40796D01*
X86663Y-40796D01*
X86677Y-40796D01*
X86794Y-40796D01*
X86811Y-40796D01*
X86861Y-40796D01*
X86875Y-40796D01*
X86990Y-40796D01*
X87007Y-40796D01*
X87057Y-40796D01*
X87073Y-40796D01*
X87082Y-40796D01*
X87082Y-40896D01*
X87073Y-40896D01*
X87057Y-40896D01*
X87007Y-40896D01*
X86990Y-40896D01*
X86875Y-40896D01*
X86861Y-40896D01*
X86811Y-40896D01*
X86794Y-40896D01*
X86677Y-40896D01*
X86663Y-40896D01*
X86613Y-40896D01*
X86598Y-40896D01*
X86477Y-40896D01*
X86465Y-40896D01*
X86415Y-40896D01*
X86400Y-40896D01*
X86265Y-40896D01*
X86215Y-40896D01*
X86202Y-40896D01*
X86002Y-40896D01*
X85940Y-40958D01*
X85939Y-41032D01*
X85940Y-41131D01*
X85978Y-41223D01*
X86048Y-41294D01*
X86140Y-41332D01*
X86152Y-41332D01*
X86215Y-41269D01*
X86215Y-41260D01*
X86248Y-41294D01*
X86318Y-41322D01*
X86327Y-41332D01*
X86339Y-41332D01*
X86340Y-41331D01*
X86340Y-41332D01*
X86352Y-41332D01*
X86361Y-41322D01*
X86431Y-41294D01*
X86439Y-41286D01*
X86446Y-41294D01*
X86519Y-41324D01*
X86527Y-41332D01*
X86538Y-41332D01*
X86538Y-41332D01*
X86539Y-41332D01*
X86539Y-41332D01*
X86539Y-41332D01*
X86550Y-41332D01*
X86558Y-41324D01*
X86631Y-41294D01*
X86638Y-41287D01*
X86644Y-41294D01*
X86717Y-41324D01*
X86725Y-41332D01*
X86736Y-41332D01*
X86736Y-41332D01*
X86737Y-41332D01*
X86737Y-41332D01*
X86737Y-41332D01*
X86748Y-41332D01*
X86756Y-41324D01*
X86829Y-41294D01*
X86835Y-41288D01*
X86840Y-41294D01*
X86917Y-41325D01*
X86923Y-41332D01*
X86932Y-41332D01*
X86932Y-41332D01*
X86934Y-41332D01*
X86935Y-41332D01*
X86935Y-41332D01*
X86944Y-41332D01*
X86950Y-41325D01*
X87027Y-41294D01*
X87032Y-41289D01*
X87036Y-41294D01*
X87113Y-41325D01*
X87119Y-41332D01*
X87128Y-41332D01*
X87128Y-41332D01*
X87130Y-41332D01*
X87131Y-41332D01*
X87131Y-41332D01*
X87140Y-41332D01*
X87146Y-41325D01*
X87174Y-41314D01*
X87174Y-41943D01*
X87132Y-41902D01*
X86994Y-41845D01*
X86845Y-41844D01*
X86707Y-41901D01*
X86639Y-41970D01*
X85380Y-41970D01*
X85284Y-41989D01*
X85251Y-42010D01*
X85203Y-42043D01*
X85203Y-42043D01*
X84729Y-42516D01*
X84729Y-41895D01*
X84718Y-41687D01*
X84660Y-41547D01*
X84567Y-41522D01*
X84497Y-41593D01*
X84497Y-41452D01*
X84472Y-41359D01*
X84275Y-41290D01*
X84067Y-41301D01*
X83927Y-41359D01*
X83902Y-41452D01*
X84200Y-41749D01*
X84497Y-41452D01*
X84497Y-41593D01*
X84270Y-41820D01*
X84567Y-42117D01*
X84660Y-42092D01*
X84729Y-41895D01*
X84729Y-42516D01*
X84676Y-42570D01*
X84610Y-42570D01*
X84602Y-42551D01*
X84469Y-42417D01*
X84294Y-42345D01*
X84214Y-42345D01*
X84332Y-42338D01*
X84472Y-42280D01*
X84497Y-42187D01*
X84200Y-41890D01*
X84129Y-41961D01*
X84129Y-41820D01*
X83832Y-41522D01*
X83739Y-41547D01*
X83675Y-41730D01*
X83675Y-41725D01*
X83602Y-41551D01*
X83469Y-41417D01*
X83294Y-41345D01*
X83105Y-41344D01*
X82931Y-41417D01*
X82797Y-41550D01*
X82725Y-41725D01*
X82724Y-41914D01*
X82797Y-42088D01*
X82930Y-42222D01*
X83105Y-42294D01*
X83294Y-42295D01*
X83468Y-42222D01*
X83602Y-42089D01*
X83674Y-41914D01*
X83674Y-41834D01*
X83681Y-41952D01*
X83739Y-42092D01*
X83832Y-42117D01*
X84129Y-41820D01*
X84129Y-41961D01*
X83902Y-42187D01*
X83927Y-42280D01*
X84110Y-42344D01*
X84105Y-42344D01*
X83931Y-42417D01*
X83797Y-42550D01*
X83725Y-42725D01*
X83724Y-42914D01*
X83764Y-43010D01*
X83635Y-43010D01*
X83674Y-42914D01*
X83675Y-42725D01*
X83602Y-42551D01*
X83469Y-42417D01*
X83294Y-42345D01*
X83105Y-42344D01*
X82931Y-42417D01*
X82797Y-42550D01*
X82725Y-42725D01*
X82724Y-42914D01*
X82764Y-43010D01*
X82675Y-43010D01*
X82675Y-42505D01*
X82644Y-42431D01*
X82588Y-42375D01*
X82514Y-42345D01*
X82435Y-42344D01*
X81885Y-42344D01*
X81811Y-42375D01*
X81755Y-42431D01*
X81725Y-42505D01*
X81724Y-42584D01*
X81724Y-43134D01*
X81755Y-43208D01*
X81811Y-43264D01*
X81885Y-43294D01*
X81964Y-43295D01*
X82141Y-43295D01*
X82283Y-43436D01*
X82283Y-43436D01*
X82364Y-43490D01*
X82364Y-43490D01*
X82460Y-43510D01*
X87680Y-43510D01*
X87775Y-43490D01*
X87856Y-43436D01*
X87860Y-43433D01*
X87903Y-43476D01*
X87903Y-43476D01*
X87984Y-43530D01*
X87984Y-43530D01*
X88080Y-43550D01*
X90000Y-43550D01*
X90095Y-43530D01*
X90176Y-43476D01*
X91023Y-42630D01*
X91480Y-42630D01*
X91500Y-42630D01*
X92887Y-42630D01*
X92921Y-42712D01*
X93027Y-42817D01*
X93165Y-42874D01*
X93314Y-42875D01*
X93452Y-42818D01*
X93557Y-42712D01*
X93578Y-42663D01*
X93605Y-42674D01*
X93754Y-42675D01*
X93892Y-42618D01*
X93997Y-42512D01*
X94054Y-42374D01*
X94054Y-42354D01*
X94194Y-42355D01*
X94332Y-42298D01*
X94437Y-42192D01*
X94494Y-42054D01*
X94495Y-41905D01*
X94486Y-41885D01*
X94552Y-41858D01*
X94657Y-41752D01*
X94714Y-41614D01*
X94715Y-41465D01*
X94658Y-41327D01*
X94552Y-41222D01*
X94414Y-41165D01*
X94265Y-41164D01*
X94127Y-41221D01*
X94022Y-41327D01*
X93987Y-41410D01*
X93695Y-41410D01*
X93695Y-40324D01*
X93695Y-40262D01*
X93632Y-40200D01*
X93270Y-40200D01*
X93270Y-40462D01*
X93332Y-40525D01*
X93395Y-40525D01*
X93494Y-40524D01*
X93586Y-40486D01*
X93657Y-40416D01*
X93695Y-40324D01*
X93695Y-41410D01*
X93460Y-41410D01*
X93170Y-41410D01*
X93170Y-40462D01*
X93170Y-40200D01*
X92807Y-40200D01*
X92745Y-40262D01*
X92744Y-40324D01*
X92782Y-40416D01*
X92853Y-40486D01*
X92945Y-40524D01*
X93044Y-40525D01*
X93107Y-40525D01*
X93170Y-40462D01*
X93170Y-41410D01*
X92475Y-41410D01*
X92475Y-39695D01*
X92475Y-39632D01*
X92412Y-39570D01*
X92150Y-39570D01*
X92150Y-39932D01*
X92212Y-39995D01*
X92274Y-39995D01*
X92366Y-39957D01*
X92436Y-39886D01*
X92474Y-39794D01*
X92475Y-39695D01*
X92475Y-41410D01*
X91240Y-41410D01*
X91038Y-41410D01*
X91694Y-40754D01*
X91754Y-40665D01*
X91754Y-40665D01*
X91775Y-40560D01*
X91775Y-39898D01*
X91833Y-39957D01*
X91925Y-39995D01*
X91987Y-39995D01*
X92050Y-39932D01*
X92050Y-39570D01*
X92042Y-39570D01*
X92042Y-39470D01*
X92050Y-39470D01*
X92050Y-39462D01*
X92150Y-39462D01*
X92150Y-39470D01*
X92412Y-39470D01*
X92475Y-39407D01*
X92475Y-39344D01*
X92475Y-39311D01*
X92826Y-39311D01*
X92825Y-39311D01*
X92795Y-39385D01*
X92794Y-39464D01*
X92794Y-39714D01*
X92825Y-39788D01*
X92851Y-39814D01*
X92782Y-39883D01*
X92744Y-39975D01*
X92745Y-40037D01*
X92807Y-40100D01*
X93170Y-40100D01*
X93170Y-40092D01*
X93270Y-40092D01*
X93270Y-40100D01*
X93632Y-40100D01*
X93695Y-40037D01*
X93695Y-39975D01*
X93657Y-39883D01*
X93588Y-39814D01*
X93614Y-39788D01*
X93644Y-39714D01*
X93645Y-39635D01*
X93645Y-39488D01*
X93880Y-39488D01*
X93880Y-39656D01*
X93892Y-39685D01*
X93880Y-39714D01*
X93880Y-39794D01*
X93880Y-39971D01*
X93910Y-40044D01*
X93967Y-40100D01*
X94040Y-40131D01*
X94120Y-40131D01*
X94907Y-40131D01*
X94980Y-40101D01*
X95036Y-40044D01*
X95067Y-39971D01*
X95067Y-39891D01*
X95067Y-39714D01*
X95055Y-39685D01*
X95067Y-39656D01*
X95067Y-39576D01*
X95067Y-39399D01*
X95055Y-39370D01*
X95067Y-39341D01*
X95067Y-39261D01*
X95067Y-39140D01*
X95079Y-39128D01*
X95117Y-39036D01*
X95117Y-39004D01*
X95055Y-38942D01*
X94950Y-38942D01*
X94907Y-38924D01*
X94827Y-38924D01*
X94040Y-38924D01*
X94008Y-38938D01*
X93830Y-38938D01*
X93830Y-39004D01*
X93830Y-39004D01*
X93830Y-38938D01*
X93595Y-38938D01*
X93595Y-38875D01*
X94457Y-38875D01*
X94474Y-38871D01*
X94907Y-38871D01*
X94939Y-38858D01*
X95117Y-38858D01*
X95117Y-38791D01*
X95117Y-38791D01*
X95117Y-38858D01*
X96229Y-38858D01*
X96465Y-39094D01*
X97095Y-39724D01*
X97184Y-39784D01*
X97184Y-39784D01*
X97290Y-39805D01*
X97646Y-39805D01*
X97646Y-39978D01*
X97676Y-40051D01*
X97733Y-40107D01*
X97806Y-40138D01*
X97886Y-40138D01*
X98673Y-40138D01*
X98746Y-40108D01*
X98754Y-40100D01*
X98790Y-40100D01*
X98790Y-40478D01*
X98117Y-41165D01*
X98025Y-41164D01*
X97887Y-41221D01*
X97782Y-41327D01*
X97725Y-41465D01*
X97725Y-41471D01*
X97720Y-41466D01*
X97720Y-41144D01*
X97727Y-41136D01*
X97758Y-41063D01*
X97758Y-40983D01*
X97758Y-40196D01*
X97728Y-40123D01*
X97671Y-40067D01*
X97598Y-40036D01*
X97518Y-40036D01*
X97341Y-40036D01*
X97310Y-40049D01*
X97278Y-40036D01*
X97198Y-40036D01*
X97021Y-40036D01*
X96990Y-40049D01*
X96958Y-40036D01*
X96878Y-40036D01*
X96701Y-40036D01*
X96670Y-40049D01*
X96638Y-40036D01*
X96558Y-40036D01*
X96381Y-40036D01*
X96355Y-40047D01*
X96328Y-40036D01*
X96248Y-40036D01*
X96071Y-40036D01*
X96045Y-40047D01*
X96018Y-40036D01*
X95938Y-40036D01*
X95761Y-40036D01*
X95730Y-40049D01*
X95698Y-40036D01*
X95618Y-40036D01*
X95441Y-40036D01*
X95415Y-40047D01*
X95388Y-40036D01*
X95308Y-40036D01*
X95131Y-40036D01*
X95058Y-40066D01*
X95002Y-40123D01*
X94971Y-40196D01*
X94971Y-40276D01*
X94971Y-41063D01*
X95001Y-41136D01*
X95010Y-41144D01*
X95010Y-42240D01*
X95029Y-42335D01*
X95083Y-42416D01*
X96123Y-43456D01*
X96123Y-43456D01*
X96204Y-43510D01*
X96204Y-43510D01*
X96300Y-43530D01*
X104500Y-43530D01*
X104595Y-43510D01*
X104676Y-43456D01*
X105096Y-43036D01*
X105150Y-42955D01*
X105170Y-42860D01*
X105170Y-39520D01*
X105150Y-39424D01*
X105150Y-39424D01*
X105129Y-39391D01*
X105096Y-39343D01*
X105096Y-39343D01*
X103967Y-38213D01*
X103974Y-38194D01*
X103975Y-38005D01*
X103975Y-37005D01*
X103975Y-36005D01*
X103975Y-35005D01*
X103902Y-34831D01*
X103769Y-34697D01*
X103594Y-34625D01*
X103405Y-34624D01*
X103231Y-34697D01*
X103097Y-34830D01*
X103025Y-35005D01*
X103024Y-35194D01*
X103097Y-35368D01*
X103230Y-35502D01*
X103405Y-35574D01*
X103594Y-35575D01*
X103768Y-35502D01*
X103902Y-35369D01*
X103974Y-35194D01*
X103975Y-35005D01*
X103975Y-36005D01*
X103902Y-35831D01*
X103769Y-35697D01*
X103594Y-35625D01*
X103405Y-35624D01*
X103231Y-35697D01*
X103097Y-35830D01*
X103025Y-36005D01*
X103024Y-36194D01*
X103097Y-36368D01*
X103230Y-36502D01*
X103405Y-36574D01*
X103594Y-36575D01*
X103768Y-36502D01*
X103902Y-36369D01*
X103974Y-36194D01*
X103975Y-36005D01*
X103975Y-37005D01*
X103902Y-36831D01*
X103769Y-36697D01*
X103594Y-36625D01*
X103405Y-36624D01*
X103231Y-36697D01*
X103097Y-36830D01*
X103025Y-37005D01*
X103024Y-37194D01*
X103097Y-37368D01*
X103230Y-37502D01*
X103405Y-37574D01*
X103594Y-37575D01*
X103768Y-37502D01*
X103902Y-37369D01*
X103974Y-37194D01*
X103975Y-37005D01*
X103975Y-38005D01*
X103902Y-37831D01*
X103769Y-37697D01*
X103594Y-37625D01*
X103405Y-37624D01*
X103231Y-37697D01*
X103097Y-37830D01*
X103025Y-38005D01*
X103024Y-38194D01*
X103097Y-38368D01*
X103230Y-38502D01*
X103405Y-38574D01*
X103594Y-38575D01*
X103613Y-38567D01*
X103725Y-38679D01*
X103594Y-38625D01*
X103405Y-38624D01*
X103231Y-38697D01*
X103097Y-38830D01*
X103025Y-39005D01*
X103024Y-39194D01*
X103097Y-39368D01*
X103230Y-39502D01*
X103405Y-39574D01*
X103594Y-39575D01*
X103613Y-39567D01*
X103725Y-39679D01*
X103594Y-39625D01*
X103405Y-39624D01*
X103231Y-39697D01*
X103097Y-39830D01*
X103025Y-40005D01*
X103024Y-40194D01*
X103097Y-40368D01*
X103230Y-40502D01*
X103405Y-40574D01*
X103594Y-40575D01*
X103613Y-40567D01*
X103725Y-40679D01*
X103594Y-40625D01*
X103405Y-40624D01*
X103231Y-40697D01*
X103097Y-40830D01*
X103025Y-41005D01*
X103024Y-41194D01*
X103097Y-41368D01*
X103230Y-41502D01*
X103405Y-41574D01*
X103594Y-41575D01*
X103613Y-41567D01*
X103725Y-41679D01*
X103594Y-41625D01*
X103405Y-41624D01*
X103231Y-41697D01*
X103097Y-41830D01*
X103089Y-41850D01*
X101820Y-41850D01*
X101724Y-41869D01*
X101691Y-41890D01*
X101643Y-41923D01*
X101643Y-41923D01*
X101516Y-42050D01*
X98115Y-42050D01*
X98154Y-41954D01*
X98154Y-41915D01*
X98174Y-41915D01*
X98312Y-41858D01*
X98417Y-41752D01*
X98474Y-41614D01*
X98475Y-41514D01*
X99218Y-40754D01*
X99248Y-40709D01*
X99270Y-40675D01*
X99271Y-40674D01*
X99272Y-40673D01*
X99281Y-40620D01*
X99290Y-40580D01*
X99290Y-40577D01*
X99290Y-40577D01*
X99290Y-40577D01*
X99290Y-39980D01*
X99270Y-39884D01*
X99270Y-39884D01*
X99216Y-39803D01*
X99086Y-39673D01*
X99005Y-39619D01*
X98910Y-39600D01*
X98833Y-39600D01*
X98833Y-39578D01*
X98833Y-39401D01*
X98820Y-39370D01*
X98833Y-39338D01*
X98833Y-39258D01*
X98833Y-39081D01*
X98822Y-39055D01*
X98833Y-39028D01*
X98833Y-38948D01*
X98833Y-38822D01*
X98845Y-38810D01*
X98883Y-38718D01*
X98883Y-38686D01*
X98821Y-38624D01*
X98704Y-38624D01*
X98673Y-38611D01*
X98593Y-38611D01*
X97806Y-38611D01*
X97775Y-38624D01*
X97659Y-38624D01*
X97658Y-38625D01*
X97596Y-38625D01*
X97596Y-38686D01*
X97596Y-38686D01*
X97596Y-38625D01*
X96773Y-38625D01*
X96537Y-38388D01*
X96448Y-38328D01*
X96343Y-38308D01*
X95117Y-38308D01*
X95117Y-38308D01*
X94939Y-38308D01*
X94907Y-38294D01*
X94827Y-38294D01*
X94040Y-38294D01*
X93997Y-38312D01*
X93893Y-38312D01*
X93880Y-38325D01*
X93830Y-38325D01*
X93830Y-38374D01*
X93830Y-38374D01*
X93830Y-38325D01*
X93595Y-38325D01*
X93595Y-37795D01*
X93810Y-37795D01*
X93886Y-37779D01*
X93892Y-37795D01*
X93880Y-37824D01*
X93880Y-37904D01*
X93880Y-38025D01*
X93868Y-38037D01*
X93830Y-38129D01*
X93830Y-38161D01*
X93893Y-38223D01*
X93997Y-38223D01*
X94040Y-38241D01*
X94120Y-38241D01*
X94907Y-38241D01*
X94950Y-38223D01*
X95055Y-38223D01*
X95075Y-38203D01*
X95117Y-38203D01*
X95117Y-38161D01*
X95117Y-38161D01*
X95117Y-38203D01*
X96584Y-38203D01*
X96584Y-38214D01*
X96641Y-38352D01*
X96747Y-38457D01*
X96885Y-38514D01*
X97034Y-38515D01*
X97172Y-38458D01*
X97277Y-38352D01*
X97326Y-38234D01*
X97474Y-38235D01*
X97612Y-38178D01*
X97646Y-38143D01*
X97646Y-38221D01*
X97646Y-38337D01*
X97634Y-38349D01*
X97596Y-38441D01*
X97596Y-38473D01*
X97659Y-38535D01*
X97751Y-38535D01*
X97806Y-38558D01*
X97886Y-38558D01*
X98673Y-38558D01*
X98728Y-38535D01*
X98821Y-38535D01*
X98883Y-38473D01*
X98883Y-38441D01*
X98845Y-38349D01*
X98833Y-38337D01*
X98833Y-38327D01*
X99770Y-39263D01*
X99770Y-39580D01*
X99789Y-39675D01*
X99843Y-39756D01*
X100363Y-40276D01*
X100444Y-40330D01*
X100444Y-40330D01*
X100540Y-40350D01*
X101024Y-40350D01*
X101024Y-40414D01*
X101055Y-40488D01*
X101111Y-40544D01*
X101185Y-40574D01*
X101264Y-40575D01*
X101814Y-40575D01*
X101888Y-40544D01*
X101944Y-40488D01*
X101974Y-40414D01*
X101975Y-40335D01*
X101975Y-39785D01*
X101944Y-39711D01*
X101888Y-39655D01*
X101814Y-39625D01*
X101735Y-39624D01*
X101185Y-39624D01*
X101111Y-39655D01*
X101055Y-39711D01*
X101025Y-39785D01*
X101024Y-39850D01*
X100643Y-39850D01*
X100270Y-39476D01*
X100270Y-39160D01*
X100269Y-39159D01*
X100270Y-39159D01*
X100266Y-39140D01*
X100260Y-39114D01*
X100423Y-39276D01*
X100423Y-39276D01*
X100504Y-39330D01*
X100504Y-39330D01*
X100600Y-39350D01*
X101089Y-39350D01*
X101097Y-39368D01*
X101230Y-39502D01*
X101405Y-39574D01*
X101594Y-39575D01*
X101768Y-39502D01*
X101902Y-39369D01*
X101974Y-39194D01*
X101975Y-39005D01*
X101902Y-38831D01*
X101769Y-38697D01*
X101594Y-38625D01*
X101405Y-38624D01*
X101231Y-38697D01*
X101097Y-38830D01*
X101089Y-38850D01*
X100703Y-38850D01*
X99363Y-37510D01*
X99536Y-37510D01*
X100303Y-38276D01*
X100384Y-38330D01*
X100480Y-38350D01*
X101089Y-38350D01*
X101097Y-38368D01*
X101230Y-38502D01*
X101405Y-38574D01*
X101594Y-38575D01*
X101768Y-38502D01*
X101902Y-38369D01*
X101974Y-38194D01*
X101975Y-38005D01*
X101902Y-37831D01*
X101769Y-37697D01*
X101594Y-37625D01*
X101405Y-37624D01*
X101231Y-37697D01*
X101097Y-37830D01*
X101089Y-37850D01*
X100583Y-37850D01*
X99883Y-37150D01*
X100476Y-37150D01*
X100603Y-37276D01*
X100603Y-37276D01*
X100651Y-37309D01*
X100684Y-37330D01*
X100684Y-37330D01*
X100780Y-37350D01*
X101089Y-37350D01*
X101097Y-37368D01*
X101230Y-37502D01*
X101405Y-37574D01*
X101594Y-37575D01*
X101768Y-37502D01*
X101902Y-37369D01*
X101974Y-37194D01*
X101975Y-37005D01*
X101902Y-36831D01*
X101769Y-36697D01*
X101594Y-36625D01*
X101405Y-36624D01*
X101231Y-36697D01*
X101097Y-36830D01*
X101089Y-36850D01*
X100883Y-36850D01*
X100756Y-36723D01*
X100675Y-36669D01*
X100580Y-36650D01*
X98503Y-36650D01*
X98343Y-36490D01*
X98940Y-36490D01*
X99035Y-36470D01*
X99116Y-36416D01*
X99211Y-36321D01*
X99211Y-36321D01*
X99211Y-36321D01*
X99265Y-36240D01*
X99265Y-36240D01*
X99281Y-36164D01*
X99284Y-36147D01*
X99286Y-36146D01*
X99342Y-36090D01*
X99367Y-36030D01*
X100416Y-36030D01*
X100663Y-36276D01*
X100663Y-36276D01*
X100744Y-36330D01*
X100744Y-36330D01*
X100820Y-36346D01*
X100839Y-36350D01*
X100839Y-36349D01*
X100840Y-36350D01*
X101089Y-36350D01*
X101097Y-36368D01*
X101230Y-36502D01*
X101405Y-36574D01*
X101594Y-36575D01*
X101768Y-36502D01*
X101902Y-36369D01*
X101974Y-36194D01*
X101975Y-36005D01*
X101902Y-35831D01*
X101769Y-35697D01*
X101594Y-35625D01*
X101405Y-35624D01*
X101231Y-35697D01*
X101097Y-35830D01*
X101089Y-35850D01*
X100943Y-35850D01*
X100696Y-35603D01*
X100615Y-35549D01*
X100520Y-35530D01*
X99367Y-35530D01*
X99342Y-35469D01*
X99286Y-35413D01*
X99212Y-35383D01*
X99133Y-35382D01*
X98951Y-35382D01*
X98939Y-35370D01*
X98937Y-35370D01*
X99480Y-35370D01*
X99680Y-35370D01*
X99775Y-35350D01*
X99777Y-35350D01*
X101089Y-35350D01*
X101097Y-35368D01*
X101230Y-35502D01*
X101405Y-35574D01*
X101594Y-35575D01*
X101768Y-35502D01*
X101902Y-35369D01*
X101974Y-35194D01*
X101975Y-35005D01*
X101902Y-34831D01*
X101769Y-34697D01*
X101594Y-34625D01*
X101405Y-34624D01*
X101231Y-34697D01*
X101097Y-34830D01*
X101089Y-34850D01*
X99700Y-34850D01*
X99604Y-34869D01*
X99602Y-34870D01*
X99480Y-34870D01*
X99400Y-34870D01*
X99360Y-34830D01*
X99085Y-34830D01*
X99085Y-34837D01*
X98993Y-34837D01*
X98985Y-34830D01*
X98985Y-34830D01*
X98710Y-34830D01*
X98709Y-34830D01*
X98701Y-34837D01*
X98623Y-34837D01*
X98623Y-34722D01*
X98701Y-34722D01*
X98709Y-34730D01*
X98710Y-34730D01*
X98985Y-34730D01*
X98985Y-34730D01*
X98993Y-34722D01*
X99085Y-34722D01*
X99085Y-34730D01*
X99360Y-34730D01*
X99423Y-34667D01*
X99423Y-34632D01*
X99422Y-34533D01*
X99384Y-34441D01*
X99314Y-34370D01*
X99222Y-34332D01*
X99210Y-34332D01*
X99234Y-34274D01*
X99235Y-34175D01*
X99235Y-33824D01*
X99234Y-33725D01*
X99196Y-33633D01*
X99126Y-33562D01*
X99034Y-33524D01*
X98972Y-33525D01*
X98910Y-33587D01*
X98910Y-33950D01*
X99172Y-33950D01*
X99235Y-33887D01*
X99235Y-33824D01*
X99235Y-34175D01*
X99235Y-34112D01*
X99172Y-34050D01*
X98910Y-34050D01*
X98910Y-34057D01*
X98810Y-34057D01*
X98810Y-34050D01*
X98802Y-34050D01*
X98802Y-33950D01*
X98810Y-33950D01*
X98810Y-33587D01*
X98747Y-33525D01*
X98685Y-33524D01*
X98593Y-33562D01*
X98585Y-33571D01*
X98585Y-33514D01*
X98789Y-33309D01*
X98789Y-33309D01*
X98789Y-33309D01*
X98860Y-33204D01*
X98860Y-33204D01*
X98880Y-33104D01*
X98885Y-33080D01*
X98884Y-33080D01*
X98885Y-33080D01*
X98885Y-33035D01*
X98927Y-33077D01*
X99065Y-33134D01*
X99204Y-33135D01*
X99204Y-33135D01*
X99280Y-33150D01*
X103024Y-33150D01*
X103024Y-33414D01*
X103055Y-33488D01*
X103111Y-33544D01*
X103185Y-33574D01*
X103264Y-33575D01*
X103814Y-33575D01*
X103850Y-33560D01*
X103850Y-33778D01*
X103769Y-33697D01*
X103594Y-33625D01*
X103405Y-33624D01*
X103231Y-33697D01*
X103097Y-33830D01*
X103025Y-34005D01*
X103024Y-34194D01*
X103097Y-34368D01*
X103230Y-34502D01*
X103405Y-34574D01*
X103594Y-34575D01*
X103768Y-34502D01*
X103902Y-34369D01*
X103910Y-34350D01*
X103920Y-34350D01*
X104015Y-34330D01*
X104096Y-34276D01*
X104276Y-34096D01*
X104276Y-34096D01*
X104276Y-34096D01*
X104309Y-34048D01*
X104330Y-34015D01*
X104330Y-34015D01*
X104350Y-33920D01*
X104350Y-32700D01*
X104330Y-32604D01*
X104330Y-32604D01*
X104309Y-32571D01*
X104276Y-32523D01*
X104276Y-32523D01*
X104253Y-32500D01*
X104376Y-32376D01*
X104376Y-32376D01*
X104376Y-32376D01*
X104430Y-32295D01*
X104430Y-32295D01*
X104446Y-32219D01*
X104450Y-32200D01*
X104449Y-32200D01*
X104450Y-32200D01*
X104450Y-30680D01*
X104430Y-30584D01*
X104430Y-30584D01*
X104376Y-30503D01*
X104029Y-30156D01*
X104029Y-26175D01*
X104018Y-25967D01*
X103960Y-25827D01*
X103867Y-25802D01*
X103797Y-25873D01*
X103797Y-25732D01*
X103772Y-25639D01*
X103575Y-25570D01*
X103367Y-25581D01*
X103227Y-25639D01*
X103202Y-25732D01*
X103500Y-26029D01*
X103797Y-25732D01*
X103797Y-25873D01*
X103570Y-26100D01*
X103867Y-26397D01*
X103960Y-26372D01*
X104029Y-26175D01*
X104029Y-30156D01*
X103974Y-30101D01*
X103975Y-30005D01*
X103975Y-29005D01*
X103902Y-28831D01*
X103769Y-28697D01*
X103594Y-28625D01*
X103405Y-28624D01*
X103231Y-28697D01*
X103097Y-28830D01*
X103025Y-29005D01*
X103024Y-29194D01*
X103097Y-29368D01*
X103230Y-29502D01*
X103405Y-29574D01*
X103594Y-29575D01*
X103768Y-29502D01*
X103902Y-29369D01*
X103974Y-29194D01*
X103975Y-29005D01*
X103975Y-30005D01*
X103902Y-29831D01*
X103769Y-29697D01*
X103594Y-29625D01*
X103405Y-29624D01*
X103231Y-29697D01*
X103097Y-29830D01*
X103025Y-30005D01*
X103024Y-30194D01*
X103097Y-30368D01*
X103230Y-30502D01*
X103405Y-30574D01*
X103594Y-30575D01*
X103698Y-30531D01*
X103791Y-30625D01*
X103735Y-30624D01*
X103185Y-30624D01*
X103111Y-30655D01*
X103055Y-30711D01*
X103025Y-30785D01*
X103024Y-30864D01*
X103024Y-31414D01*
X103055Y-31488D01*
X103111Y-31544D01*
X103185Y-31574D01*
X103264Y-31575D01*
X103814Y-31575D01*
X103888Y-31544D01*
X103944Y-31488D01*
X103950Y-31475D01*
X103950Y-32096D01*
X103900Y-32146D01*
X103836Y-32083D01*
X103755Y-32029D01*
X103660Y-32010D01*
X100644Y-32010D01*
X100651Y-32007D01*
X100721Y-31936D01*
X100759Y-31844D01*
X100760Y-31745D01*
X100760Y-31044D01*
X100759Y-30945D01*
X100721Y-30853D01*
X100651Y-30782D01*
X100559Y-30744D01*
X100322Y-30745D01*
X100260Y-30807D01*
X100260Y-31345D01*
X100697Y-31345D01*
X100760Y-31282D01*
X100760Y-31044D01*
X100760Y-31745D01*
X100760Y-31507D01*
X100697Y-31445D01*
X100260Y-31445D01*
X100260Y-31452D01*
X100160Y-31452D01*
X100160Y-31445D01*
X100160Y-31345D01*
X100160Y-30807D01*
X100097Y-30745D01*
X99860Y-30744D01*
X99768Y-30782D01*
X99698Y-30853D01*
X99660Y-30945D01*
X99659Y-31044D01*
X99660Y-31282D01*
X99722Y-31345D01*
X100160Y-31345D01*
X100160Y-31445D01*
X99722Y-31445D01*
X99660Y-31507D01*
X99659Y-31745D01*
X99660Y-31844D01*
X99698Y-31936D01*
X99768Y-32007D01*
X99775Y-32010D01*
X99680Y-32010D01*
X99632Y-31962D01*
X99494Y-31905D01*
X99380Y-31904D01*
X99409Y-31834D01*
X99410Y-31755D01*
X99410Y-30955D01*
X99379Y-30881D01*
X99323Y-30825D01*
X99249Y-30795D01*
X99185Y-30794D01*
X99185Y-30723D01*
X99333Y-30575D01*
X99460Y-30575D01*
X99565Y-30554D01*
X99565Y-30554D01*
X99654Y-30494D01*
X100634Y-29514D01*
X101773Y-28375D01*
X103103Y-28375D01*
X103230Y-28502D01*
X103405Y-28574D01*
X103594Y-28575D01*
X103768Y-28502D01*
X103902Y-28369D01*
X103974Y-28194D01*
X103975Y-28005D01*
X103975Y-27005D01*
X103902Y-26831D01*
X103769Y-26697D01*
X103594Y-26625D01*
X103514Y-26625D01*
X103632Y-26618D01*
X103772Y-26560D01*
X103797Y-26467D01*
X103500Y-26170D01*
X103429Y-26241D01*
X103429Y-26100D01*
X103132Y-25802D01*
X103039Y-25827D01*
X102970Y-26024D01*
X102981Y-26232D01*
X103039Y-26372D01*
X103132Y-26397D01*
X103429Y-26100D01*
X103429Y-26241D01*
X103202Y-26467D01*
X103227Y-26560D01*
X103410Y-26624D01*
X103405Y-26624D01*
X103231Y-26697D01*
X103097Y-26830D01*
X103025Y-27005D01*
X103024Y-27194D01*
X103097Y-27368D01*
X103230Y-27502D01*
X103405Y-27574D01*
X103594Y-27575D01*
X103768Y-27502D01*
X103902Y-27369D01*
X103974Y-27194D01*
X103975Y-27005D01*
X103975Y-28005D01*
X103902Y-27831D01*
X103769Y-27697D01*
X103594Y-27625D01*
X103405Y-27624D01*
X103231Y-27697D01*
X103103Y-27825D01*
X101660Y-27825D01*
X101554Y-27845D01*
X101465Y-27905D01*
X101465Y-27905D01*
X101465Y-27905D01*
X100245Y-29125D01*
X100235Y-29136D01*
X100235Y-28819D01*
X100234Y-28720D01*
X100196Y-28628D01*
X100126Y-28557D01*
X100034Y-28519D01*
X99972Y-28520D01*
X99910Y-28582D01*
X99910Y-28945D01*
X100172Y-28945D01*
X100235Y-28882D01*
X100235Y-28819D01*
X100235Y-29136D01*
X100235Y-29136D01*
X100235Y-29107D01*
X100172Y-29045D01*
X99910Y-29045D01*
X99910Y-29407D01*
X99936Y-29434D01*
X99346Y-30025D01*
X99220Y-30025D01*
X99114Y-30045D01*
X99085Y-30065D01*
X99025Y-30105D01*
X98715Y-30415D01*
X98655Y-30504D01*
X98635Y-30610D01*
X98635Y-30794D01*
X98570Y-30794D01*
X98496Y-30825D01*
X98440Y-30881D01*
X98410Y-30955D01*
X98409Y-31034D01*
X98409Y-31070D01*
X98085Y-31070D01*
X98098Y-31064D01*
X98154Y-31008D01*
X98184Y-30934D01*
X98185Y-30855D01*
X98185Y-30605D01*
X98154Y-30531D01*
X98098Y-30475D01*
X98085Y-30470D01*
X98098Y-30464D01*
X98154Y-30408D01*
X98184Y-30334D01*
X98185Y-30255D01*
X98185Y-30005D01*
X98163Y-29954D01*
X98209Y-29945D01*
X98209Y-29945D01*
X98314Y-29874D01*
X98614Y-29574D01*
X98614Y-29574D01*
X98614Y-29574D01*
X98685Y-29469D01*
X98685Y-29469D01*
X98705Y-29369D01*
X98710Y-29345D01*
X98709Y-29345D01*
X98710Y-29345D01*
X98977Y-29345D01*
X99021Y-29389D01*
X99095Y-29419D01*
X99174Y-29420D01*
X99424Y-29420D01*
X99498Y-29389D01*
X99524Y-29363D01*
X99593Y-29432D01*
X99685Y-29470D01*
X99747Y-29470D01*
X99810Y-29407D01*
X99810Y-29045D01*
X99802Y-29045D01*
X99802Y-28945D01*
X99810Y-28945D01*
X99810Y-28582D01*
X99747Y-28520D01*
X99685Y-28519D01*
X99593Y-28557D01*
X99524Y-28626D01*
X99498Y-28600D01*
X99424Y-28570D01*
X99345Y-28569D01*
X99095Y-28569D01*
X99021Y-28600D01*
X98965Y-28656D01*
X98949Y-28695D01*
X98742Y-28695D01*
X98779Y-28658D01*
X98809Y-28584D01*
X98810Y-28505D01*
X98810Y-28255D01*
X98779Y-28181D01*
X98723Y-28125D01*
X98710Y-28119D01*
X98710Y-27895D01*
X98723Y-27889D01*
X98779Y-27833D01*
X98809Y-27759D01*
X98810Y-27680D01*
X98810Y-27430D01*
X98779Y-27356D01*
X98723Y-27300D01*
X98710Y-27295D01*
X98723Y-27289D01*
X98779Y-27233D01*
X98809Y-27159D01*
X98810Y-27080D01*
X98810Y-26830D01*
X98779Y-26756D01*
X98723Y-26700D01*
X98710Y-26694D01*
X98710Y-26245D01*
X98685Y-26120D01*
X98685Y-26120D01*
X98614Y-26015D01*
X98614Y-26015D01*
X98510Y-25910D01*
X98510Y-25270D01*
X98535Y-25145D01*
X98508Y-25011D01*
X98432Y-24897D01*
X98318Y-24821D01*
X98185Y-24795D01*
X97205Y-24795D01*
X97071Y-24821D01*
X96957Y-24897D01*
X96899Y-24955D01*
X96823Y-25068D01*
X96797Y-25202D01*
X96797Y-25300D01*
X96797Y-26408D01*
X96784Y-26413D01*
X96738Y-26394D01*
X96658Y-26394D01*
X96107Y-26394D01*
X96034Y-26424D01*
X95977Y-26480D01*
X95951Y-26545D01*
X95890Y-26545D01*
X95890Y-24089D01*
X106030Y-24070D01*
X106030Y-43910D01*
X106030Y-43910D01*
G37*
G54D42*
X106030Y-43910D02*
X81250Y-43910D01*
X81250Y-40632D01*
X81250Y-40370D01*
X80887Y-40370D01*
X80825Y-40432D01*
X80824Y-40494D01*
X80862Y-40586D01*
X80933Y-40656D01*
X81025Y-40694D01*
X81124Y-40695D01*
X81187Y-40695D01*
X81250Y-40632D01*
X81250Y-43910D01*
X79015Y-43910D01*
X79015Y-41474D01*
X79015Y-41412D01*
X78952Y-41350D01*
X78590Y-41350D01*
X78590Y-41612D01*
X78652Y-41675D01*
X78715Y-41675D01*
X78814Y-41674D01*
X78906Y-41636D01*
X78977Y-41566D01*
X79015Y-41474D01*
X79015Y-43910D01*
X78490Y-43910D01*
X78490Y-41612D01*
X78490Y-41350D01*
X78127Y-41350D01*
X78065Y-41412D01*
X78064Y-41474D01*
X78102Y-41566D01*
X78173Y-41636D01*
X78265Y-41674D01*
X78364Y-41675D01*
X78427Y-41675D01*
X78490Y-41612D01*
X78490Y-43910D01*
X76495Y-43910D01*
X76495Y-41594D01*
X76495Y-41532D01*
X76432Y-41470D01*
X76070Y-41470D01*
X76070Y-41732D01*
X76132Y-41795D01*
X76195Y-41795D01*
X76294Y-41794D01*
X76386Y-41756D01*
X76457Y-41686D01*
X76495Y-41594D01*
X76495Y-43910D01*
X75970Y-43910D01*
X75970Y-41732D01*
X75970Y-41470D01*
X75607Y-41470D01*
X75545Y-41532D01*
X75544Y-41594D01*
X75582Y-41686D01*
X75653Y-41756D01*
X75745Y-41794D01*
X75844Y-41795D01*
X75907Y-41795D01*
X75970Y-41732D01*
X75970Y-43910D01*
X72430Y-43910D01*
X72430Y-39210D01*
X76716Y-39210D01*
X76485Y-39440D01*
X76431Y-39521D01*
X76412Y-39617D01*
X76412Y-39816D01*
X76394Y-39834D01*
X76364Y-39908D01*
X76364Y-39987D01*
X76364Y-40342D01*
X76394Y-40415D01*
X76438Y-40460D01*
X76394Y-40504D01*
X76377Y-40544D01*
X76358Y-40525D01*
X76284Y-40495D01*
X76205Y-40494D01*
X75755Y-40494D01*
X75681Y-40525D01*
X75625Y-40581D01*
X75595Y-40655D01*
X75594Y-40734D01*
X75594Y-40984D01*
X75625Y-41058D01*
X75651Y-41084D01*
X75582Y-41153D01*
X75544Y-41245D01*
X75545Y-41307D01*
X75607Y-41370D01*
X75970Y-41370D01*
X75970Y-41362D01*
X76070Y-41362D01*
X76070Y-41370D01*
X76432Y-41370D01*
X76495Y-41307D01*
X76495Y-41245D01*
X76457Y-41153D01*
X76388Y-41084D01*
X76392Y-41080D01*
X76394Y-41084D01*
X76450Y-41141D01*
X76524Y-41171D01*
X76603Y-41171D01*
X76800Y-41171D01*
X76819Y-41163D01*
X76839Y-41171D01*
X76918Y-41171D01*
X77115Y-41171D01*
X77189Y-41141D01*
X77245Y-41085D01*
X77275Y-41011D01*
X77275Y-40932D01*
X77275Y-40577D01*
X77245Y-40504D01*
X77201Y-40459D01*
X77245Y-40415D01*
X77275Y-40342D01*
X77275Y-40262D01*
X77275Y-39908D01*
X77268Y-39890D01*
X77920Y-39890D01*
X78015Y-39870D01*
X78096Y-39816D01*
X78703Y-39210D01*
X79027Y-39210D01*
X79027Y-39741D01*
X78994Y-39774D01*
X78964Y-39848D01*
X78964Y-39927D01*
X78964Y-40282D01*
X78994Y-40355D01*
X79038Y-40400D01*
X78994Y-40444D01*
X78992Y-40450D01*
X78922Y-40450D01*
X78878Y-40405D01*
X78804Y-40375D01*
X78725Y-40374D01*
X78275Y-40374D01*
X78201Y-40405D01*
X78145Y-40461D01*
X78115Y-40535D01*
X78114Y-40614D01*
X78114Y-40864D01*
X78145Y-40938D01*
X78171Y-40964D01*
X78102Y-41033D01*
X78064Y-41125D01*
X78065Y-41187D01*
X78127Y-41250D01*
X78490Y-41250D01*
X78490Y-41242D01*
X78590Y-41242D01*
X78590Y-41250D01*
X78952Y-41250D01*
X79015Y-41187D01*
X79015Y-41125D01*
X78977Y-41033D01*
X78908Y-40964D01*
X78922Y-40950D01*
X78964Y-40950D01*
X78964Y-40951D01*
X78994Y-41024D01*
X79050Y-41081D01*
X79124Y-41111D01*
X79203Y-41111D01*
X79400Y-41111D01*
X79419Y-41103D01*
X79439Y-41111D01*
X79518Y-41111D01*
X79715Y-41111D01*
X79789Y-41081D01*
X79845Y-41025D01*
X79875Y-40951D01*
X79875Y-40872D01*
X79875Y-40517D01*
X79845Y-40444D01*
X79801Y-40399D01*
X79845Y-40355D01*
X79875Y-40282D01*
X79875Y-40202D01*
X79875Y-39848D01*
X79845Y-39775D01*
X79842Y-39771D01*
X79842Y-39631D01*
X80263Y-39210D01*
X81830Y-39210D01*
X81830Y-39297D01*
X81785Y-39341D01*
X81755Y-39415D01*
X81754Y-39470D01*
X81682Y-39470D01*
X81638Y-39425D01*
X81564Y-39395D01*
X81485Y-39394D01*
X81035Y-39394D01*
X80961Y-39425D01*
X80905Y-39481D01*
X80875Y-39555D01*
X80874Y-39634D01*
X80874Y-39884D01*
X80905Y-39958D01*
X80931Y-39984D01*
X80862Y-40053D01*
X80824Y-40145D01*
X80825Y-40207D01*
X80887Y-40270D01*
X81250Y-40270D01*
X81250Y-40262D01*
X81350Y-40262D01*
X81350Y-40270D01*
X81712Y-40270D01*
X81775Y-40207D01*
X81775Y-40145D01*
X81737Y-40053D01*
X81668Y-39984D01*
X81682Y-39970D01*
X81765Y-39970D01*
X81785Y-40018D01*
X81830Y-40062D01*
X81830Y-40140D01*
X81849Y-40235D01*
X81903Y-40316D01*
X81950Y-40363D01*
X81950Y-41409D01*
X81931Y-41417D01*
X81797Y-41550D01*
X81775Y-41604D01*
X81775Y-40494D01*
X81775Y-40432D01*
X81712Y-40370D01*
X81350Y-40370D01*
X81350Y-40632D01*
X81412Y-40695D01*
X81475Y-40695D01*
X81574Y-40694D01*
X81666Y-40656D01*
X81737Y-40586D01*
X81775Y-40494D01*
X81775Y-41604D01*
X81725Y-41725D01*
X81724Y-41914D01*
X81797Y-42088D01*
X81930Y-42222D01*
X82105Y-42294D01*
X82294Y-42295D01*
X82468Y-42222D01*
X82602Y-42089D01*
X82674Y-41914D01*
X82675Y-41725D01*
X82602Y-41551D01*
X82469Y-41417D01*
X82450Y-41409D01*
X82450Y-40510D01*
X82796Y-40510D01*
X83283Y-40996D01*
X83364Y-41050D01*
X83364Y-41050D01*
X83460Y-41070D01*
X84480Y-41070D01*
X84575Y-41050D01*
X84656Y-40996D01*
X84776Y-40876D01*
X84830Y-40795D01*
X84830Y-40795D01*
X84849Y-40703D01*
X84889Y-40663D01*
X84943Y-40716D01*
X84943Y-40716D01*
X85024Y-40770D01*
X85024Y-40770D01*
X85120Y-40790D01*
X85820Y-40790D01*
X85915Y-40770D01*
X85952Y-40746D01*
X86002Y-40796D01*
X86202Y-40796D01*
X86215Y-40796D01*
X86265Y-40796D01*
X86400Y-40796D01*
X86415Y-40796D01*
X86465Y-40796D01*
X86477Y-40796D01*
X86598Y-40796D01*
X86613Y-40796D01*
X86663Y-40796D01*
X86677Y-40796D01*
X86794Y-40796D01*
X86811Y-40796D01*
X86861Y-40796D01*
X86875Y-40796D01*
X86990Y-40796D01*
X87007Y-40796D01*
X87057Y-40796D01*
X87073Y-40796D01*
X87082Y-40796D01*
X87082Y-40896D01*
X87073Y-40896D01*
X87057Y-40896D01*
X87007Y-40896D01*
X86990Y-40896D01*
X86875Y-40896D01*
X86861Y-40896D01*
X86811Y-40896D01*
X86794Y-40896D01*
X86677Y-40896D01*
X86663Y-40896D01*
X86613Y-40896D01*
X86598Y-40896D01*
X86477Y-40896D01*
X86465Y-40896D01*
X86415Y-40896D01*
X86400Y-40896D01*
X86265Y-40896D01*
X86215Y-40896D01*
X86202Y-40896D01*
X86002Y-40896D01*
X85940Y-40958D01*
X85939Y-41032D01*
X85940Y-41131D01*
X85978Y-41223D01*
X86048Y-41294D01*
X86140Y-41332D01*
X86152Y-41332D01*
X86215Y-41269D01*
X86215Y-41260D01*
X86248Y-41294D01*
X86318Y-41322D01*
X86327Y-41332D01*
X86339Y-41332D01*
X86340Y-41331D01*
X86340Y-41332D01*
X86352Y-41332D01*
X86361Y-41322D01*
X86431Y-41294D01*
X86439Y-41286D01*
X86446Y-41294D01*
X86519Y-41324D01*
X86527Y-41332D01*
X86538Y-41332D01*
X86538Y-41332D01*
X86539Y-41332D01*
X86539Y-41332D01*
X86539Y-41332D01*
X86550Y-41332D01*
X86558Y-41324D01*
X86631Y-41294D01*
X86638Y-41287D01*
X86644Y-41294D01*
X86717Y-41324D01*
X86725Y-41332D01*
X86736Y-41332D01*
X86736Y-41332D01*
X86737Y-41332D01*
X86737Y-41332D01*
X86737Y-41332D01*
X86748Y-41332D01*
X86756Y-41324D01*
X86829Y-41294D01*
X86835Y-41288D01*
X86840Y-41294D01*
X86917Y-41325D01*
X86923Y-41332D01*
X86932Y-41332D01*
X86932Y-41332D01*
X86934Y-41332D01*
X86935Y-41332D01*
X86935Y-41332D01*
X86944Y-41332D01*
X86950Y-41325D01*
X87027Y-41294D01*
X87032Y-41289D01*
X87036Y-41294D01*
X87113Y-41325D01*
X87119Y-41332D01*
X87128Y-41332D01*
X87128Y-41332D01*
X87130Y-41332D01*
X87131Y-41332D01*
X87131Y-41332D01*
X87140Y-41332D01*
X87146Y-41325D01*
X87174Y-41314D01*
X87174Y-41943D01*
X87132Y-41902D01*
X86994Y-41845D01*
X86845Y-41844D01*
X86707Y-41901D01*
X86639Y-41970D01*
X85380Y-41970D01*
X85284Y-41989D01*
X85251Y-42010D01*
X85203Y-42043D01*
X85203Y-42043D01*
X84729Y-42516D01*
X84729Y-41895D01*
X84718Y-41687D01*
X84660Y-41547D01*
X84567Y-41522D01*
X84497Y-41593D01*
X84497Y-41452D01*
X84472Y-41359D01*
X84275Y-41290D01*
X84067Y-41301D01*
X83927Y-41359D01*
X83902Y-41452D01*
X84200Y-41749D01*
X84497Y-41452D01*
X84497Y-41593D01*
X84270Y-41820D01*
X84567Y-42117D01*
X84660Y-42092D01*
X84729Y-41895D01*
X84729Y-42516D01*
X84676Y-42570D01*
X84610Y-42570D01*
X84602Y-42551D01*
X84469Y-42417D01*
X84294Y-42345D01*
X84214Y-42345D01*
X84332Y-42338D01*
X84472Y-42280D01*
X84497Y-42187D01*
X84200Y-41890D01*
X84129Y-41961D01*
X84129Y-41820D01*
X83832Y-41522D01*
X83739Y-41547D01*
X83675Y-41730D01*
X83675Y-41725D01*
X83602Y-41551D01*
X83469Y-41417D01*
X83294Y-41345D01*
X83105Y-41344D01*
X82931Y-41417D01*
X82797Y-41550D01*
X82725Y-41725D01*
X82724Y-41914D01*
X82797Y-42088D01*
X82930Y-42222D01*
X83105Y-42294D01*
X83294Y-42295D01*
X83468Y-42222D01*
X83602Y-42089D01*
X83674Y-41914D01*
X83674Y-41834D01*
X83681Y-41952D01*
X83739Y-42092D01*
X83832Y-42117D01*
X84129Y-41820D01*
X84129Y-41961D01*
X83902Y-42187D01*
X83927Y-42280D01*
X84110Y-42344D01*
X84105Y-42344D01*
X83931Y-42417D01*
X83797Y-42550D01*
X83725Y-42725D01*
X83724Y-42914D01*
X83764Y-43010D01*
X83635Y-43010D01*
X83674Y-42914D01*
X83675Y-42725D01*
X83602Y-42551D01*
X83469Y-42417D01*
X83294Y-42345D01*
X83105Y-42344D01*
X82931Y-42417D01*
X82797Y-42550D01*
X82725Y-42725D01*
X82724Y-42914D01*
X82764Y-43010D01*
X82675Y-43010D01*
X82675Y-42505D01*
X82644Y-42431D01*
X82588Y-42375D01*
X82514Y-42345D01*
X82435Y-42344D01*
X81885Y-42344D01*
X81811Y-42375D01*
X81755Y-42431D01*
X81725Y-42505D01*
X81724Y-42584D01*
X81724Y-43134D01*
X81755Y-43208D01*
X81811Y-43264D01*
X81885Y-43294D01*
X81964Y-43295D01*
X82141Y-43295D01*
X82283Y-43436D01*
X82283Y-43436D01*
X82364Y-43490D01*
X82364Y-43490D01*
X82460Y-43510D01*
X87680Y-43510D01*
X87775Y-43490D01*
X87856Y-43436D01*
X87860Y-43433D01*
X87903Y-43476D01*
X87903Y-43476D01*
X87984Y-43530D01*
X87984Y-43530D01*
X88080Y-43550D01*
X90000Y-43550D01*
X90095Y-43530D01*
X90176Y-43476D01*
X91023Y-42630D01*
X91480Y-42630D01*
X91500Y-42630D01*
X92887Y-42630D01*
X92921Y-42712D01*
X93027Y-42817D01*
X93165Y-42874D01*
X93314Y-42875D01*
X93452Y-42818D01*
X93557Y-42712D01*
X93578Y-42663D01*
X93605Y-42674D01*
X93754Y-42675D01*
X93892Y-42618D01*
X93997Y-42512D01*
X94054Y-42374D01*
X94054Y-42354D01*
X94194Y-42355D01*
X94332Y-42298D01*
X94437Y-42192D01*
X94494Y-42054D01*
X94495Y-41905D01*
X94486Y-41885D01*
X94552Y-41858D01*
X94657Y-41752D01*
X94714Y-41614D01*
X94715Y-41465D01*
X94658Y-41327D01*
X94552Y-41222D01*
X94414Y-41165D01*
X94265Y-41164D01*
X94127Y-41221D01*
X94022Y-41327D01*
X93987Y-41410D01*
X93695Y-41410D01*
X93695Y-40324D01*
X93695Y-40262D01*
X93632Y-40200D01*
X93270Y-40200D01*
X93270Y-40462D01*
X93332Y-40525D01*
X93395Y-40525D01*
X93494Y-40524D01*
X93586Y-40486D01*
X93657Y-40416D01*
X93695Y-40324D01*
X93695Y-41410D01*
X93460Y-41410D01*
X93170Y-41410D01*
X93170Y-40462D01*
X93170Y-40200D01*
X92807Y-40200D01*
X92745Y-40262D01*
X92744Y-40324D01*
X92782Y-40416D01*
X92853Y-40486D01*
X92945Y-40524D01*
X93044Y-40525D01*
X93107Y-40525D01*
X93170Y-40462D01*
X93170Y-41410D01*
X92475Y-41410D01*
X92475Y-39695D01*
X92475Y-39632D01*
X92412Y-39570D01*
X92150Y-39570D01*
X92150Y-39932D01*
X92212Y-39995D01*
X92274Y-39995D01*
X92366Y-39957D01*
X92436Y-39886D01*
X92474Y-39794D01*
X92475Y-39695D01*
X92475Y-41410D01*
X91240Y-41410D01*
X91038Y-41410D01*
X91694Y-40754D01*
X91754Y-40665D01*
X91754Y-40665D01*
X91775Y-40560D01*
X91775Y-39898D01*
X91833Y-39957D01*
X91925Y-39995D01*
X91987Y-39995D01*
X92050Y-39932D01*
X92050Y-39570D01*
X92042Y-39570D01*
X92042Y-39470D01*
X92050Y-39470D01*
X92050Y-39462D01*
X92150Y-39462D01*
X92150Y-39470D01*
X92412Y-39470D01*
X92475Y-39407D01*
X92475Y-39344D01*
X92475Y-39311D01*
X92826Y-39311D01*
X92825Y-39311D01*
X92795Y-39385D01*
X92794Y-39464D01*
X92794Y-39714D01*
X92825Y-39788D01*
X92851Y-39814D01*
X92782Y-39883D01*
X92744Y-39975D01*
X92745Y-40037D01*
X92807Y-40100D01*
X93170Y-40100D01*
X93170Y-40092D01*
X93270Y-40092D01*
X93270Y-40100D01*
X93632Y-40100D01*
X93695Y-40037D01*
X93695Y-39975D01*
X93657Y-39883D01*
X93588Y-39814D01*
X93614Y-39788D01*
X93644Y-39714D01*
X93645Y-39635D01*
X93645Y-39488D01*
X93880Y-39488D01*
X93880Y-39656D01*
X93892Y-39685D01*
X93880Y-39714D01*
X93880Y-39794D01*
X93880Y-39971D01*
X93910Y-40044D01*
X93967Y-40100D01*
X94040Y-40131D01*
X94120Y-40131D01*
X94907Y-40131D01*
X94980Y-40101D01*
X95036Y-40044D01*
X95067Y-39971D01*
X95067Y-39891D01*
X95067Y-39714D01*
X95055Y-39685D01*
X95067Y-39656D01*
X95067Y-39576D01*
X95067Y-39399D01*
X95055Y-39370D01*
X95067Y-39341D01*
X95067Y-39261D01*
X95067Y-39140D01*
X95079Y-39128D01*
X95117Y-39036D01*
X95117Y-39004D01*
X95055Y-38942D01*
X94950Y-38942D01*
X94907Y-38924D01*
X94827Y-38924D01*
X94040Y-38924D01*
X94008Y-38938D01*
X93830Y-38938D01*
X93830Y-39004D01*
X93830Y-39004D01*
X93830Y-38938D01*
X93595Y-38938D01*
X93595Y-38875D01*
X94457Y-38875D01*
X94474Y-38871D01*
X94907Y-38871D01*
X94939Y-38858D01*
X95117Y-38858D01*
X95117Y-38791D01*
X95117Y-38791D01*
X95117Y-38858D01*
X96229Y-38858D01*
X96465Y-39094D01*
X97095Y-39724D01*
X97184Y-39784D01*
X97184Y-39784D01*
X97290Y-39805D01*
X97646Y-39805D01*
X97646Y-39978D01*
X97676Y-40051D01*
X97733Y-40107D01*
X97806Y-40138D01*
X97886Y-40138D01*
X98673Y-40138D01*
X98746Y-40108D01*
X98754Y-40100D01*
X98790Y-40100D01*
X98790Y-40478D01*
X98117Y-41165D01*
X98025Y-41164D01*
X97887Y-41221D01*
X97782Y-41327D01*
X97725Y-41465D01*
X97725Y-41471D01*
X97720Y-41466D01*
X97720Y-41144D01*
X97727Y-41136D01*
X97758Y-41063D01*
X97758Y-40983D01*
X97758Y-40196D01*
X97728Y-40123D01*
X97671Y-40067D01*
X97598Y-40036D01*
X97518Y-40036D01*
X97341Y-40036D01*
X97310Y-40049D01*
X97278Y-40036D01*
X97198Y-40036D01*
X97021Y-40036D01*
X96990Y-40049D01*
X96958Y-40036D01*
X96878Y-40036D01*
X96701Y-40036D01*
X96670Y-40049D01*
X96638Y-40036D01*
X96558Y-40036D01*
X96381Y-40036D01*
X96355Y-40047D01*
X96328Y-40036D01*
X96248Y-40036D01*
X96071Y-40036D01*
X96045Y-40047D01*
X96018Y-40036D01*
X95938Y-40036D01*
X95761Y-40036D01*
X95730Y-40049D01*
X95698Y-40036D01*
X95618Y-40036D01*
X95441Y-40036D01*
X95415Y-40047D01*
X95388Y-40036D01*
X95308Y-40036D01*
X95131Y-40036D01*
X95058Y-40066D01*
X95002Y-40123D01*
X94971Y-40196D01*
X94971Y-40276D01*
X94971Y-41063D01*
X95001Y-41136D01*
X95010Y-41144D01*
X95010Y-42240D01*
X95029Y-42335D01*
X95083Y-42416D01*
X96123Y-43456D01*
X96123Y-43456D01*
X96204Y-43510D01*
X96204Y-43510D01*
X96300Y-43530D01*
X104500Y-43530D01*
X104595Y-43510D01*
X104676Y-43456D01*
X105096Y-43036D01*
X105150Y-42955D01*
X105170Y-42860D01*
X105170Y-39520D01*
X105150Y-39424D01*
X105150Y-39424D01*
X105129Y-39391D01*
X105096Y-39343D01*
X105096Y-39343D01*
X103967Y-38213D01*
X103974Y-38194D01*
X103975Y-38005D01*
X103975Y-37005D01*
X103975Y-36005D01*
X103975Y-35005D01*
X103902Y-34831D01*
X103769Y-34697D01*
X103594Y-34625D01*
X103405Y-34624D01*
X103231Y-34697D01*
X103097Y-34830D01*
X103025Y-35005D01*
X103024Y-35194D01*
X103097Y-35368D01*
X103230Y-35502D01*
X103405Y-35574D01*
X103594Y-35575D01*
X103768Y-35502D01*
X103902Y-35369D01*
X103974Y-35194D01*
X103975Y-35005D01*
X103975Y-36005D01*
X103902Y-35831D01*
X103769Y-35697D01*
X103594Y-35625D01*
X103405Y-35624D01*
X103231Y-35697D01*
X103097Y-35830D01*
X103025Y-36005D01*
X103024Y-36194D01*
X103097Y-36368D01*
X103230Y-36502D01*
X103405Y-36574D01*
X103594Y-36575D01*
X103768Y-36502D01*
X103902Y-36369D01*
X103974Y-36194D01*
X103975Y-36005D01*
X103975Y-37005D01*
X103902Y-36831D01*
X103769Y-36697D01*
X103594Y-36625D01*
X103405Y-36624D01*
X103231Y-36697D01*
X103097Y-36830D01*
X103025Y-37005D01*
X103024Y-37194D01*
X103097Y-37368D01*
X103230Y-37502D01*
X103405Y-37574D01*
X103594Y-37575D01*
X103768Y-37502D01*
X103902Y-37369D01*
X103974Y-37194D01*
X103975Y-37005D01*
X103975Y-38005D01*
X103902Y-37831D01*
X103769Y-37697D01*
X103594Y-37625D01*
X103405Y-37624D01*
X103231Y-37697D01*
X103097Y-37830D01*
X103025Y-38005D01*
X103024Y-38194D01*
X103097Y-38368D01*
X103230Y-38502D01*
X103405Y-38574D01*
X103594Y-38575D01*
X103613Y-38567D01*
X103725Y-38679D01*
X103594Y-38625D01*
X103405Y-38624D01*
X103231Y-38697D01*
X103097Y-38830D01*
X103025Y-39005D01*
X103024Y-39194D01*
X103097Y-39368D01*
X103230Y-39502D01*
X103405Y-39574D01*
X103594Y-39575D01*
X103613Y-39567D01*
X103725Y-39679D01*
X103594Y-39625D01*
X103405Y-39624D01*
X103231Y-39697D01*
X103097Y-39830D01*
X103025Y-40005D01*
X103024Y-40194D01*
X103097Y-40368D01*
X103230Y-40502D01*
X103405Y-40574D01*
X103594Y-40575D01*
X103613Y-40567D01*
X103725Y-40679D01*
X103594Y-40625D01*
X103405Y-40624D01*
X103231Y-40697D01*
X103097Y-40830D01*
X103025Y-41005D01*
X103024Y-41194D01*
X103097Y-41368D01*
X103230Y-41502D01*
X103405Y-41574D01*
X103594Y-41575D01*
X103613Y-41567D01*
X103725Y-41679D01*
X103594Y-41625D01*
X103405Y-41624D01*
X103231Y-41697D01*
X103097Y-41830D01*
X103089Y-41850D01*
X101820Y-41850D01*
X101724Y-41869D01*
X101691Y-41890D01*
X101643Y-41923D01*
X101643Y-41923D01*
X101516Y-42050D01*
X98115Y-42050D01*
X98154Y-41954D01*
X98154Y-41915D01*
X98174Y-41915D01*
X98312Y-41858D01*
X98417Y-41752D01*
X98474Y-41614D01*
X98475Y-41514D01*
X99218Y-40754D01*
X99248Y-40709D01*
X99270Y-40675D01*
X99271Y-40674D01*
X99272Y-40673D01*
X99281Y-40620D01*
X99290Y-40580D01*
X99290Y-40577D01*
X99290Y-40577D01*
X99290Y-40577D01*
X99290Y-39980D01*
X99270Y-39884D01*
X99270Y-39884D01*
X99216Y-39803D01*
X99086Y-39673D01*
X99005Y-39619D01*
X98910Y-39600D01*
X98833Y-39600D01*
X98833Y-39578D01*
X98833Y-39401D01*
X98820Y-39370D01*
X98833Y-39338D01*
X98833Y-39258D01*
X98833Y-39081D01*
X98822Y-39055D01*
X98833Y-39028D01*
X98833Y-38948D01*
X98833Y-38822D01*
X98845Y-38810D01*
X98883Y-38718D01*
X98883Y-38686D01*
X98821Y-38624D01*
X98704Y-38624D01*
X98673Y-38611D01*
X98593Y-38611D01*
X97806Y-38611D01*
X97775Y-38624D01*
X97659Y-38624D01*
X97658Y-38625D01*
X97596Y-38625D01*
X97596Y-38686D01*
X97596Y-38686D01*
X97596Y-38625D01*
X96773Y-38625D01*
X96537Y-38388D01*
X96448Y-38328D01*
X96343Y-38308D01*
X95117Y-38308D01*
X95117Y-38308D01*
X94939Y-38308D01*
X94907Y-38294D01*
X94827Y-38294D01*
X94040Y-38294D01*
X93997Y-38312D01*
X93893Y-38312D01*
X93880Y-38325D01*
X93830Y-38325D01*
X93830Y-38374D01*
X93830Y-38374D01*
X93830Y-38325D01*
X93595Y-38325D01*
X93595Y-37795D01*
X93810Y-37795D01*
X93886Y-37779D01*
X93892Y-37795D01*
X93880Y-37824D01*
X93880Y-37904D01*
X93880Y-38025D01*
X93868Y-38037D01*
X93830Y-38129D01*
X93830Y-38161D01*
X93893Y-38223D01*
X93997Y-38223D01*
X94040Y-38241D01*
X94120Y-38241D01*
X94907Y-38241D01*
X94950Y-38223D01*
X95055Y-38223D01*
X95075Y-38203D01*
X95117Y-38203D01*
X95117Y-38161D01*
X95117Y-38161D01*
X95117Y-38203D01*
X96584Y-38203D01*
X96584Y-38214D01*
X96641Y-38352D01*
X96747Y-38457D01*
X96885Y-38514D01*
X97034Y-38515D01*
X97172Y-38458D01*
X97277Y-38352D01*
X97326Y-38234D01*
X97474Y-38235D01*
X97612Y-38178D01*
X97646Y-38143D01*
X97646Y-38221D01*
X97646Y-38337D01*
X97634Y-38349D01*
X97596Y-38441D01*
X97596Y-38473D01*
X97659Y-38535D01*
X97751Y-38535D01*
X97806Y-38558D01*
X97886Y-38558D01*
X98673Y-38558D01*
X98728Y-38535D01*
X98821Y-38535D01*
X98883Y-38473D01*
X98883Y-38441D01*
X98845Y-38349D01*
X98833Y-38337D01*
X98833Y-38327D01*
X99770Y-39263D01*
X99770Y-39580D01*
X99789Y-39675D01*
X99843Y-39756D01*
X100363Y-40276D01*
X100444Y-40330D01*
X100444Y-40330D01*
X100540Y-40350D01*
X101024Y-40350D01*
X101024Y-40414D01*
X101055Y-40488D01*
X101111Y-40544D01*
X101185Y-40574D01*
X101264Y-40575D01*
X101814Y-40575D01*
X101888Y-40544D01*
X101944Y-40488D01*
X101974Y-40414D01*
X101975Y-40335D01*
X101975Y-39785D01*
X101944Y-39711D01*
X101888Y-39655D01*
X101814Y-39625D01*
X101735Y-39624D01*
X101185Y-39624D01*
X101111Y-39655D01*
X101055Y-39711D01*
X101025Y-39785D01*
X101024Y-39850D01*
X100643Y-39850D01*
X100270Y-39476D01*
X100270Y-39160D01*
X100269Y-39159D01*
X100270Y-39159D01*
X100266Y-39140D01*
X100260Y-39114D01*
X100423Y-39276D01*
X100423Y-39276D01*
X100504Y-39330D01*
X100504Y-39330D01*
X100600Y-39350D01*
X101089Y-39350D01*
X101097Y-39368D01*
X101230Y-39502D01*
X101405Y-39574D01*
X101594Y-39575D01*
X101768Y-39502D01*
X101902Y-39369D01*
X101974Y-39194D01*
X101975Y-39005D01*
X101902Y-38831D01*
X101769Y-38697D01*
X101594Y-38625D01*
X101405Y-38624D01*
X101231Y-38697D01*
X101097Y-38830D01*
X101089Y-38850D01*
X100703Y-38850D01*
X99363Y-37510D01*
X99536Y-37510D01*
X100303Y-38276D01*
X100384Y-38330D01*
X100480Y-38350D01*
X101089Y-38350D01*
X101097Y-38368D01*
X101230Y-38502D01*
X101405Y-38574D01*
X101594Y-38575D01*
X101768Y-38502D01*
X101902Y-38369D01*
X101974Y-38194D01*
X101975Y-38005D01*
X101902Y-37831D01*
X101769Y-37697D01*
X101594Y-37625D01*
X101405Y-37624D01*
X101231Y-37697D01*
X101097Y-37830D01*
X101089Y-37850D01*
X100583Y-37850D01*
X99883Y-37150D01*
X100476Y-37150D01*
X100603Y-37276D01*
X100603Y-37276D01*
X100651Y-37309D01*
X100684Y-37330D01*
X100684Y-37330D01*
X100780Y-37350D01*
X101089Y-37350D01*
X101097Y-37368D01*
X101230Y-37502D01*
X101405Y-37574D01*
X101594Y-37575D01*
X101768Y-37502D01*
X101902Y-37369D01*
X101974Y-37194D01*
X101975Y-37005D01*
X101902Y-36831D01*
X101769Y-36697D01*
X101594Y-36625D01*
X101405Y-36624D01*
X101231Y-36697D01*
X101097Y-36830D01*
X101089Y-36850D01*
X100883Y-36850D01*
X100756Y-36723D01*
X100675Y-36669D01*
X100580Y-36650D01*
X98503Y-36650D01*
X98343Y-36490D01*
X98940Y-36490D01*
X99035Y-36470D01*
X99116Y-36416D01*
X99211Y-36321D01*
X99211Y-36321D01*
X99211Y-36321D01*
X99265Y-36240D01*
X99265Y-36240D01*
X99281Y-36164D01*
X99284Y-36147D01*
X99286Y-36146D01*
X99342Y-36090D01*
X99367Y-36030D01*
X100416Y-36030D01*
X100663Y-36276D01*
X100663Y-36276D01*
X100744Y-36330D01*
X100744Y-36330D01*
X100820Y-36346D01*
X100839Y-36350D01*
X100839Y-36349D01*
X100840Y-36350D01*
X101089Y-36350D01*
X101097Y-36368D01*
X101230Y-36502D01*
X101405Y-36574D01*
X101594Y-36575D01*
X101768Y-36502D01*
X101902Y-36369D01*
X101974Y-36194D01*
X101975Y-36005D01*
X101902Y-35831D01*
X101769Y-35697D01*
X101594Y-35625D01*
X101405Y-35624D01*
X101231Y-35697D01*
X101097Y-35830D01*
X101089Y-35850D01*
X100943Y-35850D01*
X100696Y-35603D01*
X100615Y-35549D01*
X100520Y-35530D01*
X99367Y-35530D01*
X99342Y-35469D01*
X99286Y-35413D01*
X99212Y-35383D01*
X99133Y-35382D01*
X98951Y-35382D01*
X98939Y-35370D01*
X98937Y-35370D01*
X99480Y-35370D01*
X99680Y-35370D01*
X99775Y-35350D01*
X99777Y-35350D01*
X101089Y-35350D01*
X101097Y-35368D01*
X101230Y-35502D01*
X101405Y-35574D01*
X101594Y-35575D01*
X101768Y-35502D01*
X101902Y-35369D01*
X101974Y-35194D01*
X101975Y-35005D01*
X101902Y-34831D01*
X101769Y-34697D01*
X101594Y-34625D01*
X101405Y-34624D01*
X101231Y-34697D01*
X101097Y-34830D01*
X101089Y-34850D01*
X99700Y-34850D01*
X99604Y-34869D01*
X99602Y-34870D01*
X99480Y-34870D01*
X99400Y-34870D01*
X99360Y-34830D01*
X99085Y-34830D01*
X99085Y-34837D01*
X98993Y-34837D01*
X98985Y-34830D01*
X98985Y-34830D01*
X98710Y-34830D01*
X98709Y-34830D01*
X98701Y-34837D01*
X98623Y-34837D01*
X98623Y-34722D01*
X98701Y-34722D01*
X98709Y-34730D01*
X98710Y-34730D01*
X98985Y-34730D01*
X98985Y-34730D01*
X98993Y-34722D01*
X99085Y-34722D01*
X99085Y-34730D01*
X99360Y-34730D01*
X99423Y-34667D01*
X99423Y-34632D01*
X99422Y-34533D01*
X99384Y-34441D01*
X99314Y-34370D01*
X99222Y-34332D01*
X99210Y-34332D01*
X99234Y-34274D01*
X99235Y-34175D01*
X99235Y-33824D01*
X99234Y-33725D01*
X99196Y-33633D01*
X99126Y-33562D01*
X99034Y-33524D01*
X98972Y-33525D01*
X98910Y-33587D01*
X98910Y-33950D01*
X99172Y-33950D01*
X99235Y-33887D01*
X99235Y-33824D01*
X99235Y-34175D01*
X99235Y-34112D01*
X99172Y-34050D01*
X98910Y-34050D01*
X98910Y-34057D01*
X98810Y-34057D01*
X98810Y-34050D01*
X98802Y-34050D01*
X98802Y-33950D01*
X98810Y-33950D01*
X98810Y-33587D01*
X98747Y-33525D01*
X98685Y-33524D01*
X98593Y-33562D01*
X98585Y-33571D01*
X98585Y-33514D01*
X98789Y-33309D01*
X98789Y-33309D01*
X98789Y-33309D01*
X98860Y-33204D01*
X98860Y-33204D01*
X98880Y-33104D01*
X98885Y-33080D01*
X98884Y-33080D01*
X98885Y-33080D01*
X98885Y-33035D01*
X98927Y-33077D01*
X99065Y-33134D01*
X99204Y-33135D01*
X99204Y-33135D01*
X99280Y-33150D01*
X103024Y-33150D01*
X103024Y-33414D01*
X103055Y-33488D01*
X103111Y-33544D01*
X103185Y-33574D01*
X103264Y-33575D01*
X103814Y-33575D01*
X103850Y-33560D01*
X103850Y-33778D01*
X103769Y-33697D01*
X103594Y-33625D01*
X103405Y-33624D01*
X103231Y-33697D01*
X103097Y-33830D01*
X103025Y-34005D01*
X103024Y-34194D01*
X103097Y-34368D01*
X103230Y-34502D01*
X103405Y-34574D01*
X103594Y-34575D01*
X103768Y-34502D01*
X103902Y-34369D01*
X103910Y-34350D01*
X103920Y-34350D01*
X104015Y-34330D01*
X104096Y-34276D01*
X104276Y-34096D01*
X104276Y-34096D01*
X104276Y-34096D01*
X104309Y-34048D01*
X104330Y-34015D01*
X104330Y-34015D01*
X104350Y-33920D01*
X104350Y-32700D01*
X104330Y-32604D01*
X104330Y-32604D01*
X104309Y-32571D01*
X104276Y-32523D01*
X104276Y-32523D01*
X104253Y-32500D01*
X104376Y-32376D01*
X104376Y-32376D01*
X104376Y-32376D01*
X104430Y-32295D01*
X104430Y-32295D01*
X104446Y-32219D01*
X104450Y-32200D01*
X104449Y-32200D01*
X104450Y-32200D01*
X104450Y-30680D01*
X104430Y-30584D01*
X104430Y-30584D01*
X104376Y-30503D01*
X104029Y-30156D01*
X104029Y-26175D01*
X104018Y-25967D01*
X103960Y-25827D01*
X103867Y-25802D01*
X103797Y-25873D01*
X103797Y-25732D01*
X103772Y-25639D01*
X103575Y-25570D01*
X103367Y-25581D01*
X103227Y-25639D01*
X103202Y-25732D01*
X103500Y-26029D01*
X103797Y-25732D01*
X103797Y-25873D01*
X103570Y-26100D01*
X103867Y-26397D01*
X103960Y-26372D01*
X104029Y-26175D01*
X104029Y-30156D01*
X103974Y-30101D01*
X103975Y-30005D01*
X103975Y-29005D01*
X103902Y-28831D01*
X103769Y-28697D01*
X103594Y-28625D01*
X103405Y-28624D01*
X103231Y-28697D01*
X103097Y-28830D01*
X103025Y-29005D01*
X103024Y-29194D01*
X103097Y-29368D01*
X103230Y-29502D01*
X103405Y-29574D01*
X103594Y-29575D01*
X103768Y-29502D01*
X103902Y-29369D01*
X103974Y-29194D01*
X103975Y-29005D01*
X103975Y-30005D01*
X103902Y-29831D01*
X103769Y-29697D01*
X103594Y-29625D01*
X103405Y-29624D01*
X103231Y-29697D01*
X103097Y-29830D01*
X103025Y-30005D01*
X103024Y-30194D01*
X103097Y-30368D01*
X103230Y-30502D01*
X103405Y-30574D01*
X103594Y-30575D01*
X103698Y-30531D01*
X103791Y-30625D01*
X103735Y-30624D01*
X103185Y-30624D01*
X103111Y-30655D01*
X103055Y-30711D01*
X103025Y-30785D01*
X103024Y-30864D01*
X103024Y-31414D01*
X103055Y-31488D01*
X103111Y-31544D01*
X103185Y-31574D01*
X103264Y-31575D01*
X103814Y-31575D01*
X103888Y-31544D01*
X103944Y-31488D01*
X103950Y-31475D01*
X103950Y-32096D01*
X103900Y-32146D01*
X103836Y-32083D01*
X103755Y-32029D01*
X103660Y-32010D01*
X100644Y-32010D01*
X100651Y-32007D01*
X100721Y-31936D01*
X100759Y-31844D01*
X100760Y-31745D01*
X100760Y-31044D01*
X100759Y-30945D01*
X100721Y-30853D01*
X100651Y-30782D01*
X100559Y-30744D01*
X100322Y-30745D01*
X100260Y-30807D01*
X100260Y-31345D01*
X100697Y-31345D01*
X100760Y-31282D01*
X100760Y-31044D01*
X100760Y-31745D01*
X100760Y-31507D01*
X100697Y-31445D01*
X100260Y-31445D01*
X100260Y-31452D01*
X100160Y-31452D01*
X100160Y-31445D01*
X100160Y-31345D01*
X100160Y-30807D01*
X100097Y-30745D01*
X99860Y-30744D01*
X99768Y-30782D01*
X99698Y-30853D01*
X99660Y-30945D01*
X99659Y-31044D01*
X99660Y-31282D01*
X99722Y-31345D01*
X100160Y-31345D01*
X100160Y-31445D01*
X99722Y-31445D01*
X99660Y-31507D01*
X99659Y-31745D01*
X99660Y-31844D01*
X99698Y-31936D01*
X99768Y-32007D01*
X99775Y-32010D01*
X99680Y-32010D01*
X99632Y-31962D01*
X99494Y-31905D01*
X99380Y-31904D01*
X99409Y-31834D01*
X99410Y-31755D01*
X99410Y-30955D01*
X99379Y-30881D01*
X99323Y-30825D01*
X99249Y-30795D01*
X99185Y-30794D01*
X99185Y-30723D01*
X99333Y-30575D01*
X99460Y-30575D01*
X99565Y-30554D01*
X99565Y-30554D01*
X99654Y-30494D01*
X100634Y-29514D01*
X101773Y-28375D01*
X103103Y-28375D01*
X103230Y-28502D01*
X103405Y-28574D01*
X103594Y-28575D01*
X103768Y-28502D01*
X103902Y-28369D01*
X103974Y-28194D01*
X103975Y-28005D01*
X103975Y-27005D01*
X103902Y-26831D01*
X103769Y-26697D01*
X103594Y-26625D01*
X103514Y-26625D01*
X103632Y-26618D01*
X103772Y-26560D01*
X103797Y-26467D01*
X103500Y-26170D01*
X103429Y-26241D01*
X103429Y-26100D01*
X103132Y-25802D01*
X103039Y-25827D01*
X102970Y-26024D01*
X102981Y-26232D01*
X103039Y-26372D01*
X103132Y-26397D01*
X103429Y-26100D01*
X103429Y-26241D01*
X103202Y-26467D01*
X103227Y-26560D01*
X103410Y-26624D01*
X103405Y-26624D01*
X103231Y-26697D01*
X103097Y-26830D01*
X103025Y-27005D01*
X103024Y-27194D01*
X103097Y-27368D01*
X103230Y-27502D01*
X103405Y-27574D01*
X103594Y-27575D01*
X103768Y-27502D01*
X103902Y-27369D01*
X103974Y-27194D01*
X103975Y-27005D01*
X103975Y-28005D01*
X103902Y-27831D01*
X103769Y-27697D01*
X103594Y-27625D01*
X103405Y-27624D01*
X103231Y-27697D01*
X103103Y-27825D01*
X101660Y-27825D01*
X101554Y-27845D01*
X101465Y-27905D01*
X101465Y-27905D01*
X101465Y-27905D01*
X100245Y-29125D01*
X100235Y-29136D01*
X100235Y-28819D01*
X100234Y-28720D01*
X100196Y-28628D01*
X100126Y-28557D01*
X100034Y-28519D01*
X99972Y-28520D01*
X99910Y-28582D01*
X99910Y-28945D01*
X100172Y-28945D01*
X100235Y-28882D01*
X100235Y-28819D01*
X100235Y-29136D01*
X100235Y-29136D01*
X100235Y-29107D01*
X100172Y-29045D01*
X99910Y-29045D01*
X99910Y-29407D01*
X99936Y-29434D01*
X99346Y-30025D01*
X99220Y-30025D01*
X99114Y-30045D01*
X99085Y-30065D01*
X99025Y-30105D01*
X98715Y-30415D01*
X98655Y-30504D01*
X98635Y-30610D01*
X98635Y-30794D01*
X98570Y-30794D01*
X98496Y-30825D01*
X98440Y-30881D01*
X98410Y-30955D01*
X98409Y-31034D01*
X98409Y-31070D01*
X98085Y-31070D01*
X98098Y-31064D01*
X98154Y-31008D01*
X98184Y-30934D01*
X98185Y-30855D01*
X98185Y-30605D01*
X98154Y-30531D01*
X98098Y-30475D01*
X98085Y-30470D01*
X98098Y-30464D01*
X98154Y-30408D01*
X98184Y-30334D01*
X98185Y-30255D01*
X98185Y-30005D01*
X98163Y-29954D01*
X98209Y-29945D01*
X98209Y-29945D01*
X98314Y-29874D01*
X98614Y-29574D01*
X98614Y-29574D01*
X98614Y-29574D01*
X98685Y-29469D01*
X98685Y-29469D01*
X98705Y-29369D01*
X98710Y-29345D01*
X98709Y-29345D01*
X98710Y-29345D01*
X98977Y-29345D01*
X99021Y-29389D01*
X99095Y-29419D01*
X99174Y-29420D01*
X99424Y-29420D01*
X99498Y-29389D01*
X99524Y-29363D01*
X99593Y-29432D01*
X99685Y-29470D01*
X99747Y-29470D01*
X99810Y-29407D01*
X99810Y-29045D01*
X99802Y-29045D01*
X99802Y-28945D01*
X99810Y-28945D01*
X99810Y-28582D01*
X99747Y-28520D01*
X99685Y-28519D01*
X99593Y-28557D01*
X99524Y-28626D01*
X99498Y-28600D01*
X99424Y-28570D01*
X99345Y-28569D01*
X99095Y-28569D01*
X99021Y-28600D01*
X98965Y-28656D01*
X98949Y-28695D01*
X98742Y-28695D01*
X98779Y-28658D01*
X98809Y-28584D01*
X98810Y-28505D01*
X98810Y-28255D01*
X98779Y-28181D01*
X98723Y-28125D01*
X98710Y-28119D01*
X98710Y-27895D01*
X98723Y-27889D01*
X98779Y-27833D01*
X98809Y-27759D01*
X98810Y-27680D01*
X98810Y-27430D01*
X98779Y-27356D01*
X98723Y-27300D01*
X98710Y-27295D01*
X98723Y-27289D01*
X98779Y-27233D01*
X98809Y-27159D01*
X98810Y-27080D01*
X98810Y-26830D01*
X98779Y-26756D01*
X98723Y-26700D01*
X98710Y-26694D01*
X98710Y-26245D01*
X98685Y-26120D01*
X98685Y-26120D01*
X98614Y-26015D01*
X98614Y-26015D01*
X98510Y-25910D01*
X98510Y-25270D01*
X98535Y-25145D01*
X98508Y-25011D01*
X98432Y-24897D01*
X98318Y-24821D01*
X98185Y-24795D01*
X97205Y-24795D01*
X97071Y-24821D01*
X96957Y-24897D01*
X96899Y-24955D01*
X96823Y-25068D01*
X96797Y-25202D01*
X96797Y-25300D01*
X96797Y-26408D01*
X96784Y-26413D01*
X96738Y-26394D01*
X96658Y-26394D01*
X96107Y-26394D01*
X96034Y-26424D01*
X95977Y-26480D01*
X95951Y-26545D01*
X95890Y-26545D01*
X95890Y-24089D01*
X106030Y-24070D01*
X106030Y-43910D01*
M02*
